<svg width="24" height="24" viewBox="0 0 24 24" fill="none" xmlns="http://www.w3.org/2000/svg">
<rect width="24" height="24" rx="12" fill="white"/>
<g clip-path="url(#clip0_4880_5577)">
<path d="M12.6335 6.01014C12.6104 6.01675 12.5558 6.02336 12.5128 6.02501C12.3409 6.02832 11.7856 6.16882 11.5839 6.25807C11.5657 6.26634 11.5145 6.28782 11.4682 6.30601C11.3476 6.35229 11.0286 6.50435 10.979 6.54072C10.9558 6.55559 10.9178 6.57543 10.893 6.58039C10.8682 6.587 10.8484 6.59857 10.8484 6.60518C10.8484 6.61179 10.8352 6.62171 10.8203 6.62832C10.8038 6.63328 10.769 6.65311 10.7409 6.67129C10.7145 6.68948 10.6748 6.71096 10.6533 6.72088C10.6319 6.72915 10.5905 6.75559 10.5608 6.77873C10.531 6.80187 10.5013 6.82006 10.4963 6.82006C10.4583 6.82006 9.92607 7.20683 9.77566 7.34237C9.65334 7.45311 9.4269 7.69444 9.4269 7.71427C9.4269 7.71923 9.41202 7.74237 9.39219 7.76386C9.3426 7.82006 9.19384 8.05477 9.15087 8.14237C9.13268 8.18369 9.09632 8.25642 9.07318 8.30601C8.99219 8.47129 8.95913 8.65146 8.96739 8.86138C8.97731 9.06799 9.02359 9.17543 9.16409 9.31758C9.3112 9.46468 9.46822 9.52915 9.71615 9.54237C9.8864 9.55063 10.0087 9.53741 10.179 9.48948C10.2335 9.4746 10.3062 9.45642 10.3409 9.4465C10.3757 9.43824 10.4153 9.42501 10.4319 9.4151C10.4699 9.39526 10.6831 9.29939 10.693 9.29939C10.7228 9.29939 11.0715 9.08617 11.3938 8.87129C11.6071 8.72915 11.7938 8.60518 11.8104 8.59692C11.8252 8.587 11.9261 8.52749 12.0335 8.46303C12.1409 8.40022 12.2732 8.32419 12.3277 8.29609C12.3823 8.26799 12.46 8.22667 12.5013 8.20518C12.5426 8.18534 12.6203 8.14898 12.6748 8.12915C12.7294 8.10766 12.7971 8.07956 12.8236 8.06799C12.8517 8.05642 12.8914 8.03824 12.9145 8.02832C12.979 8.00187 13.1244 7.97543 13.2666 7.96551C13.574 7.94568 13.7889 8.08121 13.8996 8.36551C13.9261 8.43328 13.931 8.48948 13.931 8.68782C13.931 8.92915 13.9095 9.06138 13.8451 9.21675C13.8319 9.24815 13.8137 9.29278 13.8038 9.31592C13.7211 9.51427 13.5509 9.79857 13.3558 10.0564C13.1707 10.3044 12.7724 10.7159 12.5095 10.9325C12.4186 11.0085 12.3178 11.0911 12.2864 11.1176C12.217 11.1754 12.136 11.2333 12.0467 11.2928C12.0104 11.3159 11.9509 11.3556 11.9145 11.382C11.812 11.4515 11.5393 11.5969 11.3856 11.663C11.3409 11.6829 11.2798 11.7093 11.25 11.7225C11.2219 11.7358 11.1839 11.7457 11.1657 11.7457C11.1492 11.7457 11.1112 11.7539 11.0814 11.7639C10.974 11.8019 10.8649 11.7291 10.8649 11.6184C10.8649 11.4829 10.9294 11.3969 11.336 10.9936C11.7757 10.5572 11.8236 10.4928 11.8236 10.3275C11.8236 10.1572 11.7426 10.0415 11.5608 9.94898C11.4814 9.90766 11.4517 9.9027 11.3128 9.9027C11.1509 9.9027 11.0567 9.92584 10.9393 9.99691C10.9128 10.0134 10.8715 10.0349 10.8484 10.0465C10.8252 10.0581 10.8038 10.0713 10.7988 10.0763C10.7938 10.0812 10.7608 10.106 10.7244 10.1341C10.6368 10.2002 10.4831 10.3572 10.3955 10.4713C10.3343 10.5506 10.2897 10.625 10.1856 10.8201C10.0996 10.982 10.0219 11.2829 10.0219 11.4581C10.0219 11.8134 10.2071 12.0977 10.493 12.1787C10.579 12.2035 10.9294 12.2035 11.05 12.1804C11.169 12.1556 11.4798 12.0597 11.4996 12.0415C11.5095 12.0333 11.5261 12.0267 11.5393 12.0267C11.5823 12.0267 12.0732 11.7771 12.2418 11.668C12.2798 11.6432 12.3228 11.6151 12.3393 11.6052C12.3542 11.5969 12.4319 11.549 12.5128 11.4994C12.5922 11.4498 12.6616 11.4035 12.6666 11.3986C12.6715 11.392 12.7277 11.3506 12.7905 11.3077C12.855 11.263 12.9294 11.2118 12.9558 11.1936C12.9839 11.1738 13.0616 11.1143 13.1294 11.0597C13.5591 10.7176 13.9393 10.3523 14.1608 10.068C14.1971 10.0234 14.2302 9.98204 14.2352 9.97708C14.2484 9.96716 14.3608 9.80518 14.4385 9.68287C14.4732 9.63163 14.5261 9.54072 14.5558 9.48121C14.5872 9.42171 14.6302 9.34072 14.6517 9.29939C14.6732 9.25807 14.7195 9.15063 14.7558 9.05972C14.7905 8.96882 14.8252 8.87956 14.8319 8.86138C14.8781 8.74402 14.9492 8.44154 14.9806 8.22501C15.0153 7.98039 14.9889 7.57873 14.9211 7.35725C14.893 7.26634 14.8864 7.24981 14.8252 7.11758C14.693 6.83328 14.4814 6.57543 14.2385 6.40683C14.2054 6.38369 14.1641 6.35229 14.1459 6.3341C14.0864 6.28121 13.7839 6.14568 13.6071 6.09444C13.5128 6.06634 13.3724 6.03658 13.2947 6.02501C13.1162 6.00187 12.6881 5.9903 12.6335 6.01014ZM17.4252 14.1837C17.4203 14.187 17.3443 14.2019 17.2533 14.2167C17.1624 14.23 17.0137 14.2548 16.9228 14.2713L16.7575 14.2994V15.8201C16.7575 17.4713 16.7542 17.4019 16.8517 17.6085C16.8847 17.6796 16.931 17.7407 17.0021 17.8052C17.1773 17.9655 17.3409 18.0151 17.6897 18.0167C17.9872 18.0167 17.9757 18.0283 17.969 17.7539L17.9641 17.5556L17.8368 17.544C17.6104 17.5242 17.5013 17.4333 17.4765 17.2448C17.4699 17.1887 17.4649 16.4812 17.4666 15.6746C17.4682 14.2779 17.4649 14.144 17.4252 14.1837ZM12.8484 14.2167C12.4814 14.2713 12.3591 14.2944 12.3443 14.3126C12.3327 14.3258 12.331 14.8531 12.336 15.8614C12.3443 17.2696 12.3476 17.3969 12.374 17.4647C12.4368 17.625 12.4699 17.6812 12.5542 17.7655C12.7277 17.9391 12.9492 18.0101 13.3128 18.0101C13.5145 18.0101 13.5426 18.0068 13.5558 17.9804C13.5724 17.949 13.5806 17.6614 13.5674 17.5953C13.5575 17.5539 13.5509 17.5523 13.4269 17.5424C13.2699 17.5325 13.1773 17.4796 13.1128 17.3655L13.0715 17.2911L13.0666 16.4349C13.0633 15.7969 13.0666 15.5721 13.0814 15.5539C13.0963 15.5358 13.1525 15.5308 13.3294 15.5308C13.6021 15.5308 13.579 15.5572 13.5724 15.2415L13.5674 15.0267L13.336 15.0184C13.2087 15.0134 13.0947 15.0035 13.0847 14.9969C13.0682 14.987 13.0633 14.8862 13.0633 14.587V14.192L13.0269 14.1936C13.0054 14.1953 12.9261 14.2052 12.8484 14.2167ZM7.12111 14.9622C6.99715 14.9738 6.69963 15.0448 6.60872 15.0845C6.59053 15.0928 6.55748 15.1044 6.53434 15.111C6.46161 15.1308 6.22029 15.2515 6.22029 15.268C6.22029 15.2763 6.23516 15.3143 6.25169 15.3539C6.36078 15.5936 6.40211 15.6796 6.41037 15.6796C6.41533 15.6796 6.43186 15.6729 6.44839 15.6647C6.53268 15.6217 6.63516 15.5804 6.71615 15.5556C6.76574 15.5407 6.82525 15.5209 6.84839 15.5126C6.94095 15.4796 7.18723 15.463 7.30128 15.4812C7.52607 15.5176 7.60872 15.6217 7.62194 15.8878C7.62855 16.0349 7.62855 16.0382 7.59053 16.0482C7.56905 16.0548 7.41698 16.0597 7.25334 16.0597C6.85996 16.0597 6.7393 16.0829 6.48475 16.2068C6.26657 16.3126 6.10458 16.5126 6.0269 16.7705C5.98723 16.9077 5.99219 17.1639 6.03682 17.2994C6.18558 17.749 6.5393 18.0118 7.03186 18.0382C7.47979 18.063 7.94095 17.9291 8.23682 17.6911L8.34425 17.6035L8.34921 16.7291C8.35417 15.7159 8.35252 15.6812 8.2302 15.4333C8.17566 15.3209 7.99219 15.1424 7.87814 15.0928C7.82525 15.068 7.76739 15.0432 7.74921 15.0349C7.62525 14.9804 7.3112 14.944 7.12111 14.9622ZM7.60872 16.5556C7.61863 16.5688 7.62525 16.7655 7.62525 17.0035C7.62525 17.4729 7.63186 17.4432 7.50954 17.5077C7.46326 17.5325 7.41202 17.5374 7.25169 17.5391H7.05169L6.96905 17.4829C6.92442 17.4531 6.87153 17.4035 6.85334 17.3754C6.73103 17.1969 6.7393 16.8779 6.86822 16.7209C6.90624 16.6729 7.05169 16.5721 7.07814 16.5721C7.09467 16.5721 7.11285 16.5655 7.12277 16.5572C7.14591 16.5325 7.22194 16.5258 7.41533 16.5291C7.55417 16.5308 7.59715 16.5358 7.60872 16.5556ZM11.2451 15.0019C10.9162 15.0796 10.6533 15.2201 10.3889 15.4614L10.3195 15.5242V17.9655C10.3195 17.992 10.3443 17.9936 10.6798 17.9903L11.0385 17.9853L11.0434 16.8333L11.0467 15.6829L11.1095 15.6333C11.1839 15.5738 11.2203 15.5556 11.3162 15.5225C11.4302 15.4845 11.6087 15.4663 11.7426 15.4812C11.8087 15.4878 11.8715 15.4911 11.8814 15.4862C11.893 15.4829 11.9228 15.4267 11.9492 15.3606C11.974 15.2944 12.0137 15.2085 12.0335 15.1688C12.0881 15.0647 12.0831 15.0382 12.0104 15.0217C11.9757 15.0134 11.9128 14.9986 11.8682 14.9887C11.7509 14.9589 11.3922 14.9672 11.2451 15.0019ZM14.8401 15.0052C14.7856 15.0134 14.7343 15.0283 14.7261 15.0366C14.7162 15.0448 14.6996 15.0515 14.6864 15.0515C14.6732 15.0515 14.6137 15.0746 14.5558 15.1044C14.4286 15.1672 14.2335 15.3473 14.1509 15.4812C14.0781 15.5986 13.9938 15.7738 13.9806 15.8366C13.974 15.863 13.9641 15.901 13.9558 15.9192C13.9492 15.9374 13.9294 16.0085 13.9128 16.0763C13.8682 16.2548 13.8682 16.8267 13.9112 16.9936C13.9509 17.1473 14.0401 17.382 14.0567 17.382C14.0649 17.382 14.0715 17.3903 14.0715 17.4002C14.0715 17.463 14.2682 17.7126 14.4071 17.825C14.4682 17.8746 14.6054 17.9457 14.7079 17.9804C14.8186 18.0184 15.0633 18.0597 15.1724 18.0597C15.4071 18.0597 15.8302 17.9589 15.9707 17.8696C16.0038 17.8498 16.0484 17.8267 16.0715 17.8201C16.1211 17.8052 16.2302 17.7374 16.2434 17.7143C16.2583 17.6911 16.0732 17.3159 16.0484 17.3159C16.0368 17.3159 16.0071 17.3308 15.9839 17.349C15.9608 17.3672 15.9327 17.382 15.9195 17.382C15.9079 17.382 15.8831 17.392 15.8649 17.4052C15.8467 17.4167 15.7608 17.4515 15.6748 17.4812C15.5277 17.5325 15.5029 17.5358 15.2864 17.5374C15.0814 17.5374 15.0467 17.5341 14.9806 17.5027C14.7492 17.392 14.617 17.1126 14.617 16.7358C14.617 16.6548 14.6186 16.587 14.6219 16.5853C14.6236 16.582 14.9905 16.5771 15.4352 16.5721L16.2451 16.5639L16.2401 16.3986C16.2302 16.0746 16.1443 15.6382 16.0699 15.5391C16.0633 15.5291 16.0401 15.4878 16.0186 15.4465C15.9294 15.2696 15.7409 15.1176 15.5178 15.0432C15.3542 14.987 15.055 14.9705 14.8401 15.0052ZM15.1955 15.5308C15.2649 15.549 15.4104 15.6663 15.4104 15.7027C15.4104 15.7126 15.4219 15.7424 15.4352 15.7672C15.4732 15.8415 15.5029 16.0862 15.4765 16.1176C15.46 16.1391 15.3955 16.1424 15.0616 16.1424H14.6666L14.6567 16.101C14.6352 16.0167 14.693 15.7903 14.7591 15.7027C14.8319 15.6052 14.8963 15.5556 14.9922 15.5275C15.0451 15.5126 15.0963 15.5027 15.1079 15.506C15.1178 15.5093 15.1575 15.5209 15.1955 15.5308ZM9.14591 13.8415C9.02029 13.906 8.98227 13.9374 8.92772 14.0184C8.87483 14.0994 8.87318 14.106 8.87318 14.2746V14.4498L8.93599 14.5358C9.01037 14.6366 9.05996 14.6729 9.16905 14.711C9.31615 14.7589 9.44343 14.7407 9.59053 14.6482C9.76739 14.5358 9.82855 14.2482 9.72111 14.0366C9.6831 13.9622 9.65004 13.9275 9.55087 13.8647C9.46161 13.8068 9.23516 13.7936 9.14591 13.8415ZM9.55087 15.0349C9.52442 15.0432 9.45004 15.0581 9.38558 15.0663C9.32277 15.0746 9.20706 15.0911 9.12938 15.1027C9.05169 15.1126 8.98392 15.1275 8.97566 15.1325C8.96078 15.1457 8.95913 17.9539 8.97235 17.9787C8.97896 17.987 9.12607 17.9936 9.31946 17.9936C9.65665 17.9936 9.6583 17.9936 9.66657 17.9556C9.67153 17.9358 9.67318 17.268 9.67153 16.4729C9.66657 15.0399 9.66657 15.0267 9.63351 15.0234C9.61533 15.0217 9.57896 15.0267 9.55087 15.0349Z" fill="#FF0000"/>
</g>
<defs>
<clipPath id="clip0_4880_5577">
<rect width="11.9713" height="12.0597" fill="white" transform="translate(6 6)"/>
</clipPath>
</defs>
</svg>
