<svg width="20" height="20" viewBox="0 0 20 20" fill="none" xmlns="http://www.w3.org/2000/svg">
<g clip-path="url(#clip0_1037_32173)">
<path d="M15.4581 10.6254C15.4862 13.6521 18.1133 14.6593 18.1424 14.6721C18.1202 14.7431 17.7226 16.1074 16.7583 17.5166C15.9247 18.735 15.0596 19.9489 13.6967 19.974C12.3575 19.9987 11.9269 19.1799 10.3959 19.1799C8.8653 19.1799 8.38686 19.9489 7.11919 19.9987C5.80367 20.0485 4.80187 18.6813 3.96139 17.4673C2.24389 14.9843 0.931365 10.4508 2.69376 7.39064C3.56927 5.87095 5.13389 4.90861 6.83214 4.88394C8.12395 4.85929 9.34323 5.75302 10.133 5.75302C10.9222 5.75302 12.4039 4.67823 13.9616 4.83608C14.6137 4.86322 16.4442 5.09949 17.6195 6.81996C17.5248 6.87867 15.4354 8.09502 15.4581 10.6254ZM12.9413 3.19333C13.6397 2.34792 14.1098 1.17103 13.9816 2.67029e-05C12.9749 0.0404885 11.7575 0.670878 11.0354 1.51582C10.3883 2.26406 9.82152 3.46167 9.97444 4.60949C11.0966 4.6963 12.2429 4.03927 12.9413 3.19333Z" fill="black"/>
</g>
<defs>
<clipPath id="clip0_1037_32173">
<rect width="20" height="20" fill="white"/>
</clipPath>
</defs>
</svg>
