<svg width="8" height="8" viewBox="0 0 8 8" fill="none" xmlns="http://www.w3.org/2000/svg">
<path d="M3.99935 7.58342C2.02268 7.58342 0.416016 5.97675 0.416016 4.00008C0.416016 2.02341 2.02268 0.416748 3.99935 0.416748C5.97602 0.416748 7.58268 2.02341 7.58268 4.00008C7.58268 5.97675 5.97602 7.58342 3.99935 7.58342ZM3.99935 0.916748C2.29935 0.916748 0.916016 2.30008 0.916016 4.00008C0.916016 5.70008 2.29935 7.08342 3.99935 7.08342C5.69935 7.08342 7.08268 5.70008 7.08268 4.00008C7.08268 2.30008 5.69935 0.916748 3.99935 0.916748Z" fill="#242424"/>
<path d="M5.23753 5.31008C5.19419 5.31008 5.15086 5.30008 5.11086 5.27342L4.07753 4.65675C3.82086 4.50342 3.63086 4.16675 3.63086 3.87008V2.50342C3.63086 2.36675 3.74419 2.25342 3.88086 2.25342C4.01753 2.25342 4.13086 2.36675 4.13086 2.50342V3.87008C4.13086 3.99008 4.23086 4.16675 4.33419 4.22675L5.36753 4.84342C5.48753 4.91342 5.52419 5.06675 5.45419 5.18675C5.40419 5.26675 5.32086 5.31008 5.23753 5.31008Z" fill="#242424"/>
</svg>
