<svg width="17" height="16" viewBox="0 0 17 16" fill="none" xmlns="http://www.w3.org/2000/svg">
<path d="M5.73398 15.1667H3.93398C2.16065 15.1667 1.33398 14.3401 1.33398 12.5667V10.7667C1.33398 8.99341 2.16065 8.16675 3.93398 8.16675H5.73398C7.50732 8.16675 8.33398 8.99341 8.33398 10.7667V12.5667C8.33398 14.3401 7.50732 15.1667 5.73398 15.1667ZM3.93398 9.16675C2.70732 9.16675 2.33398 9.54008 2.33398 10.7667V12.5667C2.33398 13.7934 2.70732 14.1667 3.93398 14.1667H5.73398C6.96065 14.1667 7.33398 13.7934 7.33398 12.5667V10.7667C7.33398 9.54008 6.96065 9.16675 5.73398 9.16675H3.93398Z" fill="white"/>
<path d="M10.4995 15.1667C10.3195 15.1667 10.1528 15.0667 10.0661 14.9133C9.97948 14.76 9.97948 14.5667 10.0728 14.4133L10.7728 13.2467C10.9128 13.0067 11.2195 12.9333 11.4595 13.0733C11.6995 13.2133 11.7728 13.52 11.6328 13.76L11.4528 14.06C13.2928 13.6267 14.6728 11.9733 14.6728 10C14.6728 9.72667 14.8995 9.5 15.1728 9.5C15.4461 9.5 15.6728 9.72667 15.6728 10C15.6661 12.8467 13.3461 15.1667 10.4995 15.1667Z" fill="white"/>
<path d="M1.83398 6.49992C1.56065 6.49992 1.33398 6.27325 1.33398 5.99992C1.33398 3.15325 3.65398 0.833252 6.50065 0.833252C6.68065 0.833252 6.84732 0.933252 6.93398 1.08659C7.02065 1.23992 7.02065 1.43325 6.92732 1.58659L6.22732 2.75992C6.08732 2.99325 5.78065 3.07325 5.54065 2.92658C5.30732 2.78659 5.22732 2.47992 5.37398 2.23992L5.55398 1.93992C3.70732 2.37325 2.33398 4.02659 2.33398 5.99992C2.33398 6.27325 2.10732 6.49992 1.83398 6.49992Z" fill="white"/>
<path d="M12.166 7.83325C10.2393 7.83325 8.66602 6.25992 8.66602 4.33325C8.66602 2.40659 10.2393 0.833252 12.166 0.833252C14.0927 0.833252 15.666 2.40659 15.666 4.33325C15.666 6.25992 14.0927 7.83325 12.166 7.83325ZM12.166 1.83325C10.786 1.83325 9.66602 2.95325 9.66602 4.33325C9.66602 5.71325 10.786 6.83325 12.166 6.83325C13.546 6.83325 14.666 5.71325 14.666 4.33325C14.666 2.95325 13.546 1.83325 12.166 1.83325Z" fill="white"/>
</svg>
