<svg width="8" height="16" viewBox="0 0 8 16" fill="none" xmlns="http://www.w3.org/2000/svg">
<g clip-path="url(#clip0_4471_4713)">
<path d="M3.82022 15.5784C3.67877 15.5599 3.38409 15.5207 3.38409 15.3197V8.21308C3.41937 7.73095 3.55889 7.26169 3.7934 6.83642C4.02792 6.41115 4.35207 6.0396 4.74434 5.74643L4.85042 3.356H4.82685V2.14115C4.82344 2.12282 4.82344 2.10404 4.82685 2.08572C4.82328 2.06741 4.82328 2.0486 4.82685 2.03029V2.03722C4.82955 2.01346 4.8376 1.99058 4.85042 1.97024V1.864C4.84382 1.8067 4.85011 1.74868 4.86885 1.69401C4.88758 1.63935 4.91831 1.58937 4.95886 1.54758C5.03703 1.47101 5.13068 1.41131 5.23381 1.37233C5.33694 1.33335 5.44725 1.31595 5.55765 1.32124C5.66801 1.31687 5.77808 1.33516 5.88079 1.37494C5.98351 1.41471 6.0766 1.47509 6.15408 1.5522C6.19411 1.59433 6.2245 1.64436 6.2432 1.69893C6.2619 1.7535 6.26849 1.81135 6.26253 1.86861L6.24838 1.97024C6.25866 1.99117 6.26429 2.014 6.26488 2.03722H6.27903V3.36754H6.24602L6.34739 5.70948C7.17485 6.1968 7.78779 7.4232 7.78779 8.22463V15.3197C7.78779 15.4999 7.55204 15.5507 7.29744 15.5784H3.82022Z" fill="#3F3B39"/>
<path d="M3.82018 15.4628H7.28561C7.52135 15.4374 7.67223 15.3912 7.67223 15.3196V8.21299C7.67223 7.4439 7.06873 6.2175 6.23419 5.76713L6.0786 2.15723H5.01775L4.85038 5.81101C4.05828 6.29603 3.49249 7.46699 3.49249 8.21299V15.3196C3.50192 15.3912 3.61979 15.4328 3.82018 15.4628Z" fill="#423B08"/>
<path d="M5.0861 15.0959C4.65233 15.0959 3.85788 15.0959 3.69757 15.0105V8.08167C3.69757 7.38879 4.23742 6.28018 4.9588 5.83674L5.02009 5.79978L5.15918 2.2915H5.93949L6.08801 5.7559L6.15402 5.79055C6.90604 6.19934 7.48833 7.35645 7.48833 8.07705V15.0058C7.29738 15.0959 6.35205 15.0959 5.58824 15.0959H5.0861Z" fill="#5B510C"/>
<path d="M7.67226 8.375H3.50195V13.8557H7.67226V8.375Z" fill="#CCBA2E"/>
<path d="M6.02916 2.75117C6.01265 2.88282 5.79341 2.98213 5.55767 2.98213C5.32193 2.98213 5.10268 2.88051 5.08618 2.75117L4.97302 1.85043C4.94474 1.61947 5.20877 1.43701 5.55767 1.43701C5.91128 1.43701 6.17296 1.62871 6.14467 1.85043L6.02916 2.75117Z" fill="#EFD978"/>
<path d="M6.16117 2.08594C6.16057 2.10842 6.15119 2.12982 6.13496 2.14572C6.11873 2.16162 6.09689 2.17081 6.07395 2.1714H5.02253C4.99958 2.17081 4.97774 2.16162 4.96151 2.14572C4.94528 2.12982 4.9359 2.10842 4.9353 2.08594C4.9359 2.06346 4.94528 2.04207 4.96151 2.02616C4.97774 2.01026 4.99958 2.00107 5.02253 2.00049H6.07395C6.09689 2.00107 6.11873 2.01026 6.13496 2.02616C6.15119 2.04207 6.16057 2.06346 6.16117 2.08594Z" fill="#423B08"/>
<path d="M6.1635 2.14111H4.9447V3.24048H6.1635V2.14111Z" fill="#394251"/>
<g style="mix-blend-mode:overlay" opacity="0.6">
<path d="M5.25359 2.13916C5.25359 2.13916 5.1145 5.00537 5.1145 5.83452C5.1145 6.06548 4.05365 6.54818 4.05365 8.20647V15.3939L4.7208 15.4147V8.58063C4.7208 6.69138 5.50819 6.36342 5.50819 5.95924V2.13916H5.25359Z" fill="white"/>
<path d="M6.28383 6.04463H6.19189C6.67444 6.59225 6.92716 7.29872 6.89913 8.02165V15.3939H6.81897V15.4124L7.48849 15.3916V8.21335C7.48377 6.92459 6.42764 5.97997 6.28383 6.04463Z" fill="white"/>
</g>
<path d="M1.31426 15.5785C1.16338 15.56 0.842773 15.5161 0.842773 15.3037V7.74895C0.842773 6.9429 1.43449 5.68648 2.29024 5.12756L2.39868 2.587H2.37511V1.29363C2.37266 1.27368 2.37266 1.25352 2.37511 1.23358C2.3728 1.2144 2.3728 1.19502 2.37511 1.17584C2.38188 1.15315 2.39309 1.13197 2.40811 1.11348L2.39397 0.997998C2.38629 0.935494 2.39264 0.8721 2.4126 0.812256C2.43255 0.752412 2.46562 0.697566 2.50948 0.651558C2.59309 0.572809 2.69229 0.511685 2.80096 0.471962C2.90962 0.432238 3.02545 0.414757 3.14127 0.420598C3.25748 0.414575 3.37371 0.431963 3.48278 0.471688C3.59186 0.511413 3.69146 0.572631 3.77543 0.651558C3.81825 0.696276 3.85057 0.749632 3.87012 0.807883C3.88966 0.866134 3.89597 0.927869 3.88858 0.98876L3.8768 1.11348C3.89145 1.1322 3.90262 1.15331 3.9098 1.17584H3.92159V2.58469H3.88858L3.99467 5.07444C4.87635 5.5941 5.527 6.89671 5.527 7.74895V15.3037C5.527 15.493 5.27711 15.5485 5.00601 15.5785H1.31426Z" fill="#3F3B39"/>
<path d="M1.31432 15.456H4.99192C5.24888 15.4283 5.40211 15.3798 5.40211 15.3036V7.74886C5.40211 6.92895 4.76089 5.62634 3.87214 5.14825L3.70712 1.31201H2.5779L2.41288 5.19676C1.56892 5.70949 0.967773 6.95667 0.967773 7.74886V15.3036C0.967773 15.3798 1.09272 15.4329 1.31432 15.456Z" fill="#08421F"/>
<path d="M2.6415 15.0659C2.17002 15.0659 1.33548 15.0659 1.16339 14.9758V7.6059C1.16339 6.86913 1.73861 5.69124 2.50477 5.22008L2.56842 5.18082L2.72873 1.45312H3.55619L3.7165 5.14848L3.78486 5.18775C4.58403 5.62195 5.19932 6.85066 5.19932 7.61744V14.9712C4.99658 15.0659 3.99232 15.0659 3.179 15.0659H2.6415Z" fill="#0C5B28"/>
<path d="M5.40211 7.92236H0.967773V13.7472H5.40211V7.92236Z" fill="#2ECC71"/>
<path d="M3.64583 1.94259C3.62697 2.08116 3.41009 2.1874 3.14134 2.1874C2.88202 2.1874 2.65571 2.08116 2.6392 1.94259L2.51897 0.984102C2.49304 0.748523 2.7665 0.542969 3.14134 0.542969C3.51617 0.542969 3.79435 0.748523 3.76606 0.984102L3.64583 1.94259Z" fill="#EFD978"/>
<path d="M3.79432 1.23363C3.79432 1.25774 3.78471 1.28089 3.76754 1.29815C3.75036 1.31541 3.72698 1.32541 3.70238 1.32601H2.58495C2.57268 1.32602 2.56053 1.32361 2.54921 1.31894C2.5379 1.31427 2.52766 1.30743 2.51909 1.29882C2.51052 1.29021 2.5038 1.28 2.49932 1.26881C2.49484 1.25761 2.4927 1.24565 2.49301 1.23363C2.49301 1.20974 2.5027 1.18683 2.51994 1.16994C2.53718 1.15304 2.56057 1.14355 2.58495 1.14355H3.70238C3.72657 1.14414 3.74961 1.15382 3.76673 1.17059C3.78384 1.18735 3.79372 1.20992 3.79432 1.23363Z" fill="#08421F"/>
<path d="M3.79903 1.29346H2.50244V2.46211H3.79903V1.29346Z" fill="#394251"/>
<g style="mix-blend-mode:overlay" opacity="0.6">
<path d="M2.83008 1.28906C2.83008 1.28906 2.68392 4.33773 2.68392 5.21538C2.68392 5.46944 1.54999 5.98679 1.54999 7.74901V15.3822L2.25722 15.403V8.13702C2.25722 6.12998 3.09411 5.78123 3.09411 5.35165V1.28906H2.83008Z" fill="white"/>
<path d="M3.92399 5.44185H3.82733C4.33803 6.02595 4.60491 6.77736 4.57464 7.54589V15.3824H4.48977V15.4008L5.197 15.38V7.75837C5.19936 6.37954 4.07958 5.37256 3.92399 5.44185Z" fill="white"/>
</g>
</g>
<defs>
<clipPath id="clip0_4471_4713">
<rect width="6.94737" height="15.1579" fill="white" transform="translate(0.842773 0.420898)"/>
</clipPath>
</defs>
</svg>
