<svg width="20" height="20" viewBox="0 0 20 20" fill="none" xmlns="http://www.w3.org/2000/svg">
<g clip-path="url(#clip0_1037_32167)">
<path d="M19.7623 10.1871C19.7623 9.36773 19.6958 8.7698 19.552 8.14972H10.1953V11.848H15.6874C15.5768 12.7671 14.9788 14.1512 13.65 15.0813L13.6314 15.2051L16.5898 17.497L16.7948 17.5174C18.6771 15.779 19.7623 13.2211 19.7623 10.1871Z" fill="#4285F4"/>
<path d="M10.1937 19.9313C12.8844 19.9313 15.1432 19.0455 16.7932 17.5174L13.6484 15.0813C12.8069 15.6682 11.6774 16.0779 10.1937 16.0779C7.55834 16.0779 5.32163 14.3395 4.5243 11.9367L4.40743 11.9466L1.33124 14.3273L1.29102 14.4391C2.92979 17.6945 6.29598 19.9313 10.1937 19.9313Z" fill="#34A853"/>
<path d="M4.52478 11.9367C4.31439 11.3166 4.19264 10.6522 4.19264 9.96568C4.19264 9.27912 4.31439 8.61476 4.51371 7.99469L4.50813 7.86263L1.3934 5.4437L1.29149 5.49217C0.616073 6.84308 0.228516 8.36011 0.228516 9.96568C0.228516 11.5713 0.616073 13.0882 1.29149 14.4391L4.52478 11.9367Z" fill="#FBBC05"/>
<path d="M10.1937 3.85339C12.065 3.85339 13.3273 4.66171 14.047 5.3372L16.8596 2.5911C15.1322 0.985523 12.8844 2.67029e-05 10.1937 2.67029e-05C6.29598 2.67029e-05 2.92979 2.23674 1.29102 5.49216L4.51323 7.99468C5.32163 5.59186 7.55834 3.85339 10.1937 3.85339Z" fill="#EB4335"/>
</g>
<defs>
<clipPath id="clip0_1037_32167">
<rect width="20" height="20" fill="white"/>
</clipPath>
</defs>
</svg>
