<svg width="16" height="16" viewBox="0 0 16 16" fill="none" xmlns="http://www.w3.org/2000/svg">
<path d="M10.1743 14.8334H5.82763C2.5543 14.8334 1.1543 13.4334 1.1543 10.1601V10.0734C1.1543 7.11343 2.32096 5.68677 4.9343 5.4401C5.20096 5.4201 5.4543 5.6201 5.48096 5.89343C5.50763 6.16677 5.30763 6.41343 5.02763 6.4401C2.9343 6.63343 2.1543 7.6201 2.1543 10.0801V10.1668C2.1543 12.8801 3.1143 13.8401 5.82763 13.8401H10.1743C12.8876 13.8401 13.8476 12.8801 13.8476 10.1668V10.0801C13.8476 7.60677 13.0543 6.6201 10.921 6.4401C10.6476 6.41343 10.441 6.17343 10.4676 5.9001C10.4943 5.62677 10.7276 5.4201 11.0076 5.44677C13.661 5.67343 14.8476 7.10677 14.8476 10.0868V10.1734C14.8476 13.4334 13.4476 14.8334 10.1743 14.8334Z" fill="white"/>
<path d="M8 10.4199C7.72667 10.4199 7.5 10.1933 7.5 9.91992V1.33325C7.5 1.05992 7.72667 0.833252 8 0.833252C8.27333 0.833252 8.5 1.05992 8.5 1.33325V9.91992C8.5 10.1999 8.27333 10.4199 8 10.4199Z" fill="white"/>
<path d="M7.99924 11.1667C7.87258 11.1667 7.74591 11.1201 7.64591 11.0201L5.41258 8.78673C5.21924 8.59339 5.21924 8.27339 5.41258 8.08006C5.60591 7.88673 5.92591 7.88673 6.11924 8.08006L7.99924 9.96006L9.87924 8.08006C10.0726 7.88673 10.3926 7.88673 10.5859 8.08006C10.7792 8.27339 10.7792 8.59339 10.5859 8.78673L8.35258 11.0201C8.25258 11.1201 8.12591 11.1667 7.99924 11.1667Z" fill="white"/>
</svg>
