<svg width="174" height="168" viewBox="0 0 174 168" fill="none" xmlns="http://www.w3.org/2000/svg">
<path d="M-59.4064 148.719C-41.1882 170.587 2.5793 166.398 28.2171 151.6C57.76 134.543 56.0866 107.515 82.6569 101.11C106.899 95.2578 120.686 114.789 137.862 109.447C153.647 104.537 168.145 79.914 166.946 -1.02094" stroke="#569B7A" stroke-width="0.250668" stroke-miterlimit="10"/>
<path d="M163.573 -2.67564C164.67 77.1367 150.453 102.239 134.807 107.802C123.202 111.912 113.054 104.366 100.07 101.302C93.5154 99.6529 86.6729 99.5862 80.1572 101.108C58.8061 106.08 55.1583 123.645 38.8639 139.446C34.7197 143.488 30.0848 147.037 25.0548 150.02C-0.45092 165.26 -42.5843 171.245 -60.7948 150.541" stroke="#569B7A" stroke-width="0.250668" stroke-miterlimit="10"/>
<path d="M160.197 -4.31985C161.191 74.3656 147.265 99.9363 131.785 106.132C120.405 110.685 110.307 103.742 97.5495 101.078C90.9847 99.6258 84.1948 99.6274 77.6973 101.083C56.5538 105.821 52.2006 122.242 35.6958 137.852C31.5077 141.829 26.893 145.369 21.9256 148.415C-3.50088 164.02 -43.9448 171.881 -62.1476 152.342" stroke="#569B7A" stroke-width="0.250668" stroke-miterlimit="10"/>
<path d="M156.832 -5.95819C157.723 71.5833 144.072 97.6249 128.749 104.475C117.581 109.469 107.556 103.127 95.008 100.865C88.4438 99.6077 81.7092 99.6736 75.2335 101.059C54.2808 105.574 49.2627 120.835 32.524 136.26C28.2966 140.183 23.6989 143.722 18.7876 146.832C-6.52725 162.844 -45.3097 172.537 -63.5049 154.162" stroke="#569B7A" stroke-width="0.250668" stroke-miterlimit="10"/>
<path d="M153.453 -7.61697C154.247 68.8097 140.884 95.3046 125.705 102.816C114.759 108.239 104.785 102.511 92.4602 100.662C85.8923 99.598 79.202 99.7304 72.7398 101.052C51.9779 105.344 46.2797 119.446 29.3011 134.696C25.0374 138.549 20.4642 142.075 15.6221 145.241C-9.58525 161.664 -46.7088 173.184 -64.9005 155.975" stroke="#569B7A" stroke-width="0.250668" stroke-miterlimit="10"/>
<path d="M150.096 -9.27722C150.777 66.0332 137.932 93.3889 122.665 101.16C111.774 106.718 102.034 101.923 89.9189 100.448C83.3534 99.584 76.7079 99.783 70.2594 101.037C49.6885 105.106 43.3186 118.045 26.1272 133.098C21.8301 136.895 17.277 140.416 12.4963 143.639C-12.5933 160.489 -48.0655 173.823 -66.252 157.774" stroke="#569B7A" stroke-width="0.250668" stroke-miterlimit="10"/>
<path d="M146.702 -10.9158C147.3 63.2552 134.492 90.634 119.641 99.5226C109.12 105.748 99.2581 101.315 87.3707 100.233C80.8134 99.5667 74.2111 99.8311 67.7764 101.018C47.3964 104.863 40.3448 116.651 22.9363 131.511C18.6024 135.245 14.0672 138.759 9.34853 142.038C-15.6335 159.298 -49.4364 174.475 -67.6229 159.579" stroke="#569B7A" stroke-width="0.250668" stroke-miterlimit="10"/>
<path d="M143.328 -12.5665C143.837 60.474 131.314 88.3189 116.585 97.8422C106.304 104.509 96.4962 100.748 84.8268 100.026C78.2832 99.5583 71.7227 99.8906 65.3028 101.015C45.1153 104.631 37.3768 115.259 19.7547 129.939C15.6512 133.35 11.2153 136.902 6.21265 140.457C-18.6584 158.142 -50.816 175.115 -68.9895 161.391" stroke="#569B7A" stroke-width="0.250668" stroke-miterlimit="10"/>
<path d="M139.952 -14.217C140.349 57.7004 128.106 85.9582 113.551 96.1919C103.484 103.265 93.7266 100.18 82.2759 99.8277C75.747 99.5601 69.2222 99.9568 62.8104 101.011C42.8138 104.403 34.4047 113.879 16.5521 128.362C12.3969 131.735 7.96861 135.272 3.05149 138.873C-21.6732 156.958 -52.1936 175.759 -70.3568 163.203" stroke="#569B7A" stroke-width="0.250668" stroke-miterlimit="10"/>
<path d="M136.575 -15.8611C136.873 54.926 124.903 83.6056 110.502 94.5233C100.648 101.997 90.931 99.6144 79.7388 99.6048C73.2319 99.5357 66.7426 99.995 60.3401 100.978C40.5304 104.149 31.4412 112.467 13.3802 126.778C9.19432 130.102 4.7619 133.642 -0.0721954 137.285C-24.7008 155.825 -53.5555 176.426 -71.7135 165.031" stroke="#569B7A" stroke-width="0.250668" stroke-miterlimit="10"/>
<path d="M133.201 -17.5119C133.401 52.1488 121.697 81.2441 107.473 92.8592C97.832 100.728 88.1761 99.0482 77.1984 99.3834C70.7181 99.5185 64.2618 100.044 57.8676 100.956C38.2531 103.902 28.4864 111.066 10.1873 125.167C5.94473 128.446 1.52755 131.982 -3.22185 135.661C-27.7249 154.64 -54.9316 177.04 -73.0901 166.814" stroke="#569B7A" stroke-width="0.250668" stroke-miterlimit="10"/>
<path d="M129.825 -19.1624C129.922 49.3699 118.48 78.8875 104.422 91.2068C94.9863 99.4701 85.3928 98.5025 74.6465 99.1731C68.4702 99.5604 62.1673 99.9911 55.3768 100.945C35.9559 103.67 25.5067 109.673 6.98908 123.587C2.70073 126.818 -1.70541 130.354 -6.38275 134.076C-30.7602 153.493 -56.3231 177.695 -74.4721 168.627" stroke="#569B7A" stroke-width="0.250668" stroke-miterlimit="10"/>
<path d="M126.448 -20.8128C126.434 46.5785 115.287 76.5056 101.38 89.5428C92.1526 98.2042 82.614 97.9646 72.0982 98.9599C65.8925 99.5465 59.6179 100.05 52.8939 100.927C33.6564 103.417 22.5418 108.276 3.79887 122C-0.53779 125.182 -4.93708 128.719 -9.51874 132.475C-33.7613 152.337 -57.6896 178.335 -75.8332 170.427" stroke="#569B7A" stroke-width="0.250668" stroke-miterlimit="10"/>
<path d="M123.08 -22.4684C122.968 43.8131 112.046 74.1451 98.3389 87.8782C89.3117 96.9252 79.8382 97.4299 69.5479 98.7418C63.3136 99.5382 57.069 100.108 50.4258 100.896C31.3829 103.177 19.5892 106.861 0.604186 120.405C-3.77988 123.547 -8.16391 127.081 -12.6676 130.871C-36.7742 151.188 -59.0639 178.979 -77.202 172.23" stroke="#569B7A" stroke-width="0.250668" stroke-miterlimit="10"/>
<path d="M119.691 -24.1077C119.487 41.0375 108.825 71.7596 95.2925 86.2196C86.4641 95.6588 77.0625 96.9094 67.0035 98.5289C60.7433 99.5393 54.5151 100.172 47.9258 100.891C29.0825 102.944 16.6031 105.479 -2.58589 118.822C-7.18134 122.089 -11.5946 125.584 -15.8084 129.293C-39.7834 150.039 -60.4588 179.62 -78.5711 174.037" stroke="#569B7A" stroke-width="0.250668" stroke-miterlimit="10"/>
<path d="M116.312 -25.7584C116.005 38.2576 105.58 69.4047 92.2646 84.5509C83.6324 94.378 74.3035 96.3851 64.4498 98.3159C58.1661 99.5443 51.9629 100.235 45.4418 100.871C26.7855 102.703 13.6306 104.078 -5.76829 117.229C-10.398 120.431 -14.8019 123.921 -18.9526 127.678C-42.7753 148.914 -61.8214 180.254 -79.9349 175.857" stroke="#569B7A" stroke-width="0.250668" stroke-miterlimit="10"/>
<path d="M112.934 -27.409C112.53 35.4791 102.317 67.0206 89.2073 82.898C80.7746 93.1 71.5246 95.8824 61.9072 98.1013C55.6028 99.5519 49.4168 100.288 42.9624 100.848C24.5015 102.455 10.6654 102.678 -8.96696 115.644C-13.6273 118.787 -18.0199 122.277 -22.1053 126.084C-45.7801 147.757 -63.1985 180.889 -81.3141 177.64" stroke="#569B7A" stroke-width="0.250668" stroke-miterlimit="10"/>
<path d="M109.528 -29.057C109.014 32.6734 99.0735 64.616 86.1429 81.2151C77.8946 91.8104 68.7436 95.362 59.3431 97.8635C53.0067 99.5535 46.8512 100.328 40.4614 100.808C22.1986 102.199 7.6832 101.255 -12.1723 114.029C-16.8608 117.114 -21.2421 120.605 -25.2635 124.458C-48.784 146.589 -64.581 181.497 -82.6893 179.408" stroke="#569B7A" stroke-width="0.250668" stroke-miterlimit="10"/>
<path d="M106.125 -30.7078C105.541 29.8925 95.7978 62.2166 83.0653 79.521C75.0047 90.4964 65.9579 94.8251 56.7583 97.6014C50.4118 99.502 44.2582 100.342 37.9439 100.742C19.869 101.901 4.68074 99.808 -15.3859 112.4C-20.1023 115.428 -24.4731 118.918 -28.4299 122.818C-51.7934 145.412 -66.003 182.085 -84.0753 181.156" stroke="#569B7A" stroke-width="0.250668" stroke-miterlimit="10"/>
<path d="M102.722 -32.3584C102.017 27.1127 92.5172 59.8196 80.0091 77.8531C72.1302 89.2172 63.1971 94.3284 54.2034 97.3877C47.8571 99.5427 41.7077 100.398 35.4513 100.715C17.5737 101.648 1.71014 98.4032 -18.5844 110.796C-23.33 113.763 -27.6911 117.255 -31.5812 121.202C-54.7758 144.268 -67.3504 182.701 -85.4414 182.935" stroke="#569B7A" stroke-width="0.250668" stroke-miterlimit="10"/>
<path d="M99.3167 -34.0025C98.5128 24.3281 89.2242 57.4027 76.9581 76.1659C69.2601 87.9081 60.4497 93.8074 51.6543 97.1372C45.3057 99.5424 39.1573 100.425 32.9773 100.672C15.2859 101.38 -1.25525 96.9792 -21.7658 109.182C-26.5386 112.094 -30.8917 115.588 -34.7196 119.58C-57.7038 143.139 -68.7199 183.289 -86.8068 184.695" stroke="#569B7A" stroke-width="0.250668" stroke-miterlimit="10"/>
<path d="M95.9161 -35.6555C94.4544 57.1675 71.4964 87.5333 49.0657 96.9076C24.5798 107.141 2.99413 91.3693 -24.9899 107.575C-57.8148 126.59 -67.0591 183.466 -88.1933 186.46" stroke="#569B7A" stroke-width="0.250668" stroke-miterlimit="10"/>
</svg>
