<svg width="10" height="16" viewBox="0 0 10 16" fill="none" xmlns="http://www.w3.org/2000/svg">
<g clip-path="url(#clip0_4471_4856)">
<path d="M5.00144 15.9997C2.90193 15.9997 0.649986 15.5635 0.606845 14.7597V14.6571C0.606845 13.1463 0.569456 7.99255 0.0891573 4.96529C0.0575282 4.9113 0.0388327 4.85084 0.0345125 4.78856C0.0345125 4.7686 0.0345125 4.71444 0.0345125 4.65458C0.0345125 4.59472 0 4.48925 0 4.45789C0 4.22985 0.161058 4.02461 0.517688 3.84788C0.211166 3.43529 0.0486156 2.93496 0.0546448 2.42262C0.0713215 2.24171 0.132473 2.06762 0.232748 1.91556C0.333024 1.76349 0.469368 1.63811 0.629853 1.55036C0.555007 1.46283 0.490367 1.36721 0.437158 1.26531C0.36041 1.13763 0.313586 0.994503 0.300145 0.846486C0.286704 0.69847 0.306991 0.549352 0.359505 0.410149C0.401872 0.334925 0.460889 0.270195 0.532122 0.220823C0.603355 0.171452 0.684951 0.138723 0.770779 0.125097L1.25108 -0.000326338C1.28649 -0.00314643 1.32208 -0.00314643 1.35749 -0.000326338C1.52868 0.00375638 1.69322 0.0661694 1.82341 0.176406C1.97974 0.303091 2.10552 0.462816 2.19154 0.643892C2.23727 0.724218 2.27393 0.809298 2.30083 0.897589L2.36698 1.13988C2.87343 1.15202 3.37098 1.27452 3.82429 1.49867C4.2776 1.72282 4.67557 2.04314 4.98993 2.43687C5.2251 2.74044 5.51111 3.00173 5.83549 3.20936C7.84872 3.28918 9.42192 3.6455 9.86195 4.12153C9.90866 4.16652 9.94533 4.22071 9.96961 4.28061C9.99388 4.34051 10.0052 4.40479 10.0029 4.4693C9.99963 4.53044 9.99291 4.59134 9.98274 4.65173C9.98274 4.71159 9.98274 4.7686 9.96836 4.79141C9.96342 4.85229 9.94579 4.9115 9.9166 4.96529C9.43342 8.00395 9.39603 13.1577 9.39603 14.6571V14.7597C9.35001 15.5635 7.09807 15.9997 5.00144 15.9997ZM0.997987 1.10283C1.09634 1.09943 1.19348 1.08018 1.28559 1.04582L1.62209 0.926094C1.67629 0.907936 1.72836 0.884044 1.77739 0.854831C1.77739 0.854831 1.77739 0.834877 1.77739 0.826326C1.7435 0.737213 1.69082 0.656287 1.62288 0.588946C1.55494 0.521605 1.47329 0.469397 1.38338 0.435804L0.897325 0.538423C0.883208 0.545641 0.871293 0.556466 0.862813 0.569779C0.844571 0.649436 0.842811 0.731931 0.857641 0.812281C0.872471 0.892631 0.903582 0.969167 0.949094 1.03726C0.959832 1.06004 0.972333 1.08196 0.986483 1.10283H0.997987Z" fill="#3F3B39"/>
<path d="M9.7987 4.7915H0.204224C0.779432 8.29195 0.74492 14.6942 0.747796 14.7512C0.779432 15.3698 2.68337 15.8629 5.00146 15.8629C7.31955 15.8629 9.22062 15.3698 9.25513 14.7512C9.25801 14.6942 9.20336 8.29195 9.7987 4.7915Z" fill="#CAC5C1"/>
<path d="M4.45499 4.79154V15.7518C4.6333 15.7518 4.81449 15.7518 5.00143 15.7518C5.37409 15.7984 5.7519 15.7849 6.12022 15.7119L6.23526 4.74023L4.45499 4.79154Z" fill="#9F9DA8"/>
<path d="M4.85476 4.84566L2.78976 4.7915V15.5978C3.41674 15.6777 4.11562 15.7404 4.85476 15.7831V4.84566Z" fill="#F4F4F4"/>
<path d="M1.09004 4.7915H0.204224C0.785184 8.26629 0.74492 14.6059 0.747796 14.6629C0.747796 14.8111 0.880094 14.9479 1.09004 15.0819V4.7915Z" fill="#9F9DA8"/>
<path d="M1.40063 4.7915V15.2387C1.74926 15.3749 2.11048 15.4771 2.47915 15.5437V4.7915H1.40063Z" fill="#E0DCD9"/>
<path d="M8.34052 4.7915V15.3384C8.89559 15.1532 9.24072 14.9223 9.2551 14.6686C9.2551 14.6116 9.21483 8.26629 9.79867 4.79721L8.34052 4.7915Z" fill="#9F9DA8"/>
<path d="M8.40957 4.6377L7.56976 4.79162V15.5467C7.96666 15.4355 8.237 15.3671 8.5016 15.2759L8.40957 4.6377Z" fill="#E0DCD9"/>
<path d="M7.58699 4.75146L6.12021 4.79137V15.7231C6.50272 15.6946 7.31377 15.5778 7.64451 15.5236L7.58699 4.75146Z" fill="#DFDDE0"/>
<path d="M9.77857 4.77186C9.74406 5.37332 7.60428 5.85506 4.99571 5.85506C2.38714 5.85506 0.250245 5.37332 0.218608 4.77186C0.186972 4.1704 2.32675 3.66016 5.00147 3.66016C7.67619 3.66016 9.81596 4.16185 9.77857 4.77186Z" fill="#ADADAD"/>
<path d="M9.86198 4.44929C9.89649 3.82788 7.71932 3.30908 5.00146 3.30908C2.2836 3.30908 0.112193 3.81933 0.138077 4.44929C0.138077 4.50915 0.169713 4.73434 0.172589 4.7714C0.207102 5.37856 2.36701 5.86315 5.00146 5.86315C7.63592 5.86315 9.79583 5.37856 9.82746 4.7714C9.83034 4.72294 9.8591 4.50915 9.86198 4.44929Z" fill="#92919B"/>
<path d="M9.72677 4.35544C9.75841 3.80528 7.64452 3.35205 5.00144 3.35205C2.35835 3.35205 0.241585 3.80528 0.287602 4.35544C0.287602 4.4096 0.319238 4.59773 0.322114 4.64049C0.353751 5.18209 2.45614 5.61252 5.01582 5.61252C7.57549 5.61252 9.675 5.18209 9.70664 4.64049C9.69514 4.59773 9.7239 4.4096 9.72677 4.35544Z" fill="#DFDDE0"/>
<path d="M9.59162 4.38104C9.56286 4.90553 7.50936 5.32456 4.98995 5.32456C2.47054 5.32456 0.42567 4.90553 0.388281 4.38104C0.350893 3.85654 2.4389 3.42041 5.00145 3.42041C7.56401 3.42041 9.6175 3.85084 9.59162 4.38104Z" fill="#88888A"/>
<path d="M5.00148 3.78809C2.75241 3.78809 0.897367 4.12445 0.506226 4.56058C0.934756 4.99671 2.7898 5.32167 5.00148 5.32167C7.21316 5.32167 9.06533 4.99956 9.49098 4.56058C9.10559 4.12445 7.24767 3.78809 5.00148 3.78809Z" fill="#7B7B7C"/>
<path d="M4.88929 2.51094C3.30459 0.524124 0.230099 1.2282 0.192711 2.43113C0.166826 3.33474 0.882961 5.33581 5.00145 5.33581C7.21025 5.33581 9.02791 5.05076 9.49671 4.56332C8.45558 3.59414 6.38195 4.40654 4.88929 2.51094Z" fill="#EAEAEA"/>
<path d="M8.49004 4.56051C8.49004 4.4921 8.46415 4.37808 7.75089 4.27546C6.78742 4.11868 5.59099 3.922 4.62751 2.70767C4.34239 2.35222 3.97913 2.06601 3.56543 1.87088C3.15173 1.67575 2.69853 1.57684 2.2404 1.58171C1.33444 1.58171 0.529151 1.98364 0.514771 2.43687C0.515855 2.70292 0.57061 2.96607 0.675814 3.21083C0.781017 3.4556 0.934546 3.67704 1.12737 3.86214C1.86651 4.61752 3.20675 5.0166 5.0014 5.0166H5.78943C7.05202 5.0166 7.85731 4.9995 8.37787 4.73155C8.49004 4.69164 8.49866 4.61467 8.49004 4.56051ZM8.32898 4.64033C7.73939 4.92538 6.73277 4.89973 5.0014 4.89973C3.27002 4.89973 1.92403 4.52346 1.20214 3.78802C1.0216 3.61234 0.877851 3.40305 0.779141 3.17216C0.68043 2.94127 0.628705 2.69333 0.626936 2.44257C0.626936 2.08626 1.33157 1.68718 2.24615 1.68718C2.68769 1.68318 3.12435 1.77889 3.52301 1.96707C3.92167 2.15524 4.27185 2.43094 4.54698 2.77323C5.53347 4.02176 6.75578 4.21845 7.73651 4.37808C8.05288 4.42939 8.55906 4.53771 8.34048 4.65173L8.32898 4.64033Z" fill="#CAC5C1"/>
<path d="M5.00146 8.12961C3.04287 8.12961 1.34601 7.89017 0.537842 7.53955C0.888719 8.03554 2.7639 8.48307 5.00146 8.48307C7.23902 8.48307 9.11132 8.03554 9.4622 7.53955C8.65691 7.89017 6.95717 8.12961 5.00146 8.12961Z" fill="#88888A"/>
<path d="M5.00142 8.10124C3.49798 8.11971 1.9985 7.94436 0.54068 7.57959C0.882929 7.9188 2.75811 8.28082 5.00142 8.28082C7.24473 8.28082 9.11704 7.9188 9.46216 7.57959C8.00427 7.94394 6.50484 8.11929 5.00142 8.10124Z" fill="#DFDDE0"/>
<path d="M5.00145 8.61707C3.05437 8.61707 1.36614 8.37763 0.563721 8.03271C0.911722 8.52301 2.7754 8.96484 5.00145 8.96484C7.22751 8.96484 9.08831 8.52301 9.43631 8.03271C8.62814 8.37763 6.94566 8.61707 5.00145 8.61707Z" fill="#88888A"/>
<path d="M5.00146 8.58577C3.5098 8.60309 2.02212 8.42967 0.575226 8.06982C0.914599 8.40619 2.77827 8.7625 5.01008 8.7625C7.24189 8.7625 9.10269 8.40619 9.44494 8.06982C7.99245 8.43114 6.49888 8.60456 5.00146 8.58577Z" fill="#DFDDE0"/>
<path d="M5.00142 9.09598C3.06584 9.09598 1.38623 8.86224 0.589569 8.52588C0.934694 9.01332 2.78974 9.44945 5.00142 9.44945C7.2131 9.44945 9.06527 9.01332 9.41327 8.52588C8.62811 8.86224 6.93412 9.09598 5.00142 9.09598Z" fill="#88888A"/>
<path d="M5.00142 9.06721C3.51459 9.0829 2.03188 8.9095 0.589569 8.55127C0.928942 8.88193 2.78399 9.2354 5.00142 9.2354C7.21885 9.2354 9.07102 8.88763 9.41039 8.55127C7.96911 8.90975 6.48731 9.08316 5.00142 9.06721Z" fill="#DFDDE0"/>
<path d="M5.00145 9.56913C3.07738 9.56913 1.4064 9.33824 0.61261 8.99902C0.957735 9.48076 2.80128 9.91119 5.00145 9.91119C7.20162 9.91119 9.04229 9.48076 9.38741 8.99902C8.59363 9.33824 6.92552 9.56913 5.00145 9.56913Z" fill="#88888A"/>
<path d="M5.00144 9.54068C3.52375 9.55821 2.04984 9.38866 0.615479 9.03613C0.951975 9.36679 2.79552 9.71456 5.00144 9.71456C7.20737 9.71456 9.04803 9.36679 9.38741 9.03613C7.95301 9.38847 6.47913 9.55802 5.00144 9.54068Z" fill="#DFDDE0"/>
<path d="M5.00148 10.0393C3.08603 10.0393 1.42655 9.8113 0.638519 9.46924C0.980768 9.94528 2.81281 10.37 5.00148 10.37C7.19014 10.37 9.02794 9.94528 9.36443 9.46924C8.5764 9.8113 6.90254 10.0393 5.00148 10.0393Z" fill="#88888A"/>
<path d="M5.00148 10.011C3.53173 10.0281 2.06574 9.86049 0.638519 9.51221C0.975016 9.83717 2.80705 10.1821 5.00148 10.1821C7.1959 10.1821 9.02794 9.83717 9.36156 9.51221C7.93532 9.86052 6.47027 10.0281 5.00148 10.011Z" fill="#DFDDE0"/>
<path d="M5.00145 10.5042C3.09751 10.5042 1.44666 10.2761 0.661499 9.93408C1.00375 10.4158 2.82428 10.832 5.00145 10.832C7.17861 10.832 8.99915 10.4101 9.33852 9.93978C8.55624 10.2761 6.90251 10.5042 5.00145 10.5042Z" fill="#88888A"/>
<path d="M5.00141 10.4754C3.54032 10.4904 2.08314 10.3228 0.664337 9.97656C0.997958 10.2987 2.81849 10.6379 5.00141 10.6379C7.18433 10.6379 9.00198 10.3044 9.33848 9.97656C7.91967 10.3228 6.4625 10.4904 5.00141 10.4754Z" fill="#DFDDE0"/>
<path d="M5.00147 10.9632C3.10904 10.9632 1.46394 10.738 0.687408 10.4102C1.02678 10.8748 2.83869 11.2938 5.00147 11.2938C7.16426 11.2938 8.97616 10.8748 9.31554 10.4102C8.53613 10.738 6.90254 10.9632 5.00147 10.9632Z" fill="#88888A"/>
<path d="M5.00147 10.9342C3.54855 10.951 2.09924 10.7872 0.687408 10.4468C1.02103 10.7632 2.83294 11.1024 5.00147 11.1024C7.17001 11.1024 8.98191 10.7632 9.31554 10.4468C7.90372 10.7873 6.45439 10.9511 5.00147 10.9342Z" fill="#DFDDE0"/>
<path d="M5.00141 11.416C3.1176 11.416 1.48401 11.1937 0.710358 10.8716C1.04685 11.3305 2.84726 11.7438 5.00141 11.7438C7.15557 11.7438 8.9531 11.3305 9.29247 10.8716C8.51594 11.1937 6.88234 11.416 5.00141 11.416Z" fill="#88888A"/>
<path d="M5.00141 11.4021C3.55623 11.4193 2.11459 11.2565 0.710358 10.9175C1.0411 11.2339 2.84438 11.5674 5.00141 11.5674C7.15845 11.5674 8.95885 11.2339 9.28959 10.9175C7.88629 11.2562 6.44563 11.419 5.00141 11.4021Z" fill="#DFDDE0"/>
<path d="M5.00148 11.8668C3.12917 11.8668 1.50421 11.6473 0.733429 11.3252C1.06705 11.7813 2.85882 12.1804 5.00148 12.1804C7.14413 12.1804 8.93303 11.7727 9.26952 11.3252C8.49874 11.6473 6.87378 11.8668 5.00148 11.8668Z" fill="#88888A"/>
<path d="M5.00148 11.8379C3.56439 11.8551 2.13071 11.6952 0.733429 11.3618C1.06417 11.6868 2.85595 12.0032 5.00148 12.0032C7.147 12.0032 8.93878 11.6868 9.26665 11.3618C7.87035 11.6952 6.43762 11.8552 5.00148 11.8379Z" fill="#DFDDE0"/>
<path d="M5.00145 12.3113C3.13777 12.3113 1.52144 12.0918 0.756409 11.7754C1.09003 12.2258 2.8703 12.6305 5.00145 12.6305C7.1326 12.6305 8.91287 12.2258 9.24361 11.7754C8.47858 12.0918 6.86225 12.3113 5.00145 12.3113Z" fill="#88888A"/>
<path d="M5.00145 12.2828C3.57229 12.3 2.14647 12.142 0.756409 11.8125C1.08428 12.1175 2.86742 12.4453 5.00145 12.4453C7.13547 12.4453 8.91574 12.1175 9.24361 11.8125C7.8545 12.1419 6.42965 12.2999 5.00145 12.2828Z" fill="#DFDDE0"/>
<path d="M5.00142 12.75C3.14925 12.75 1.55017 12.5334 0.779388 12.2227C1.11013 12.6673 2.88178 13.0778 5.00142 13.0778C7.12106 13.0778 8.88983 12.6787 9.22345 12.2227C8.45842 12.5419 6.85359 12.75 5.00142 12.75Z" fill="#88888A"/>
<path d="M5.00142 12.7248C3.58007 12.7409 2.16211 12.5839 0.779388 12.2573C1.10438 12.5595 2.8789 12.8844 5.00142 12.8844C7.12394 12.8844 8.89558 12.5595 9.22057 12.2573C7.83884 12.584 6.42182 12.741 5.00142 12.7248Z" fill="#DFDDE0"/>
<path d="M5.00145 13.1861C3.15791 13.1861 1.5502 12.9723 0.802429 12.6616C1.1303 13.1006 2.89331 13.4968 5.00145 13.4968C7.10959 13.4968 8.86973 13.112 9.20335 12.6616C8.4412 12.9723 6.84212 13.1861 5.00145 13.1861Z" fill="#88888A"/>
<path d="M5.00145 13.1581C3.58803 13.1741 2.17792 13.019 0.802429 12.6963C1.12742 12.9984 2.89044 13.3177 5.00145 13.3177C7.11247 13.3177 8.87548 12.9984 9.20335 12.6963C7.82693 13.0193 6.41584 13.1744 5.00145 13.1581Z" fill="#DFDDE0"/>
<path d="M7.66756 4.50632C7.66756 4.45216 7.64455 4.36095 7.05784 4.25833C6.26405 4.1215 5.27757 3.95047 4.48378 2.96134C4.24586 2.6705 3.94567 2.43573 3.60494 2.27402C3.26421 2.11232 2.89147 2.02773 2.51369 2.02637C1.7688 2.02637 1.10443 2.32852 1.09293 2.69624C1.09732 2.90998 1.1443 3.12075 1.23117 3.31643C1.31804 3.51211 1.44308 3.68884 1.59911 3.83645C2.20883 4.45501 3.32473 4.79138 4.79152 4.81418H5.4415C6.48263 4.83128 7.14412 4.81418 7.57265 4.6289C7.66756 4.60039 7.67331 4.54053 7.66756 4.50632ZM7.53239 4.56904C7.04633 4.79138 6.21803 4.75717 4.79152 4.73722C3.365 4.71726 2.25485 4.3866 1.66238 3.78799C1.51261 3.64779 1.39288 3.47911 1.31036 3.29202C1.22783 3.10493 1.18421 2.90327 1.18208 2.69909C1.18208 2.41404 1.75729 2.10048 2.51369 2.11188C2.87776 2.11265 3.23708 2.1939 3.56546 2.34973C3.89383 2.50556 4.183 2.73203 4.41188 3.01265C5.22867 4.02744 6.23529 4.20132 7.04346 4.34099C7.29367 4.3866 7.7222 4.48067 7.53239 4.56048V4.56904Z" fill="#CAC5C1"/>
<path d="M2.67183 2.51948L2.15702 0.934592C2.13459 0.855053 2.10474 0.777756 2.06786 0.703699C1.98847 0.539383 1.87124 0.395851 1.72561 0.284672C1.66498 0.231377 1.59366 0.191384 1.51634 0.167313C1.43902 0.143242 1.35744 0.135637 1.27695 0.144996L0.785147 0.236213C0.365245 0.313177 0.33936 0.774962 0.549312 1.18544C0.598126 1.28722 0.658947 1.38291 0.730502 1.47049L1.95282 3.06393C1.97978 3.09333 2.01263 3.11681 2.04928 3.13289C2.08594 3.14896 2.12557 3.15726 2.16565 3.15726C2.20573 3.15726 2.24536 3.14896 2.28201 3.13289C2.31866 3.11681 2.35152 3.09333 2.37847 3.06393L2.52228 2.94706C2.58588 2.89746 2.63379 2.8308 2.6603 2.755C2.68681 2.67921 2.69081 2.59747 2.67183 2.51948ZM0.894437 1.21679C0.869275 1.17814 0.846233 1.13818 0.825412 1.09707C0.641345 0.735055 0.704618 0.4386 0.8628 0.404394L1.34885 0.301775C1.48978 0.284672 1.72561 0.455704 1.88667 0.76071C1.90393 0.794916 1.91831 0.829122 1.93269 0.863329C1.94707 0.897535 1.85216 0.988752 1.66522 1.05431L1.32872 1.17404C1.10439 1.25385 0.917445 1.25385 0.894437 1.21679ZM2.12251 2.56509C2.09665 2.58111 2.06582 2.58733 2.0357 2.58262C2.00558 2.57791 1.97819 2.56257 1.95857 2.53944L1.34022 1.7755C1.3297 1.76455 1.32097 1.75205 1.31434 1.73844C1.25394 1.61872 1.33735 1.47904 1.50128 1.41348L1.74575 1.31371C1.80114 1.28236 1.86653 1.27316 1.92854 1.28799C1.99055 1.30283 2.0445 1.34058 2.07937 1.39353C2.08054 1.40585 2.08054 1.41826 2.07937 1.43058L2.3152 2.28574C2.3232 2.31558 2.3223 2.34709 2.3126 2.37643C2.3029 2.40578 2.28482 2.4317 2.26056 2.45107L2.12251 2.56509ZM2.34396 2.90716C2.30724 2.88702 2.27601 2.85833 2.25297 2.82357C2.22992 2.78881 2.21574 2.74902 2.21166 2.70762C2.21166 2.6221 2.24905 2.57364 2.3152 2.5993C2.35186 2.61878 2.38312 2.64692 2.40619 2.68123C2.42927 2.71553 2.44346 2.75495 2.4475 2.79598C2.45613 2.87865 2.41011 2.92996 2.34396 2.9043V2.90716Z" fill="#9F9DA8"/>
</g>
<defs>
<clipPath id="clip0_4471_4856">
<rect width="10" height="16" fill="white"/>
</clipPath>
</defs>
</svg>
