<svg width="17" height="16" viewBox="0 0 17 16" fill="none" xmlns="http://www.w3.org/2000/svg">
<g clip-path="url(#clip0_4471_4905)">
<path d="M16.7592 9.83957C16.6999 9.86858 16.6356 9.88367 16.5705 9.88383C15.6323 9.88383 14.4916 6.93343 14.2974 5.66476L14.2619 5.43168C14.0567 4.05975 13.7476 1.98857 11.4883 0.191776L11.2558 0L11.2858 0.321593C11.3003 0.643119 11.2027 0.958849 11.0123 1.20671L10.7716 0.719897C10.7014 0.554991 10.5916 0.413328 10.4536 0.309579C10.3155 0.205829 10.1543 0.143767 9.98656 0.129817C9.89132 0.128226 9.79724 0.152581 9.71303 0.200627L7.1856 1.64632C7.15568 1.61709 7.11655 1.60126 7.07619 1.60207C6.99034 1.61339 6.90802 1.64568 6.83548 1.69648L6.23644 2.03872C6.19277 2.0642 6.14385 2.07739 6.09421 2.07708H6.06412C6.08082 2.0073 6.08249 1.93433 6.069 1.86375C6.05551 1.79316 6.02722 1.72685 5.98629 1.66989C5.94536 1.61293 5.89289 1.56683 5.83289 1.53513C5.77289 1.50343 5.70696 1.48696 5.64014 1.487C5.5679 1.48639 5.49658 1.50461 5.43226 1.54011C5.34255 1.59223 5.27279 1.67688 5.23532 1.77909C5.20712 1.77601 5.17872 1.77601 5.15052 1.77909C5.07814 1.78017 5.00698 1.79936 4.94264 1.83515C4.8899 1.86547 4.84366 1.9074 4.80691 1.95823C4.77016 2.00905 4.74371 2.06764 4.72928 2.13019C4.71145 2.18938 4.70516 2.25192 4.71081 2.31386C4.71646 2.37581 4.73392 2.43582 4.76211 2.49013C4.81408 2.59651 4.90236 2.67692 5.00829 2.71436C4.98317 2.77099 4.94197 2.8175 4.89067 2.84713L4.2889 3.18938C4.15487 3.26609 4.08375 3.3192 4.06187 3.40181C4.05664 3.42507 4.05664 3.44935 4.06187 3.47262L1.61649 4.8357C1.27184 5.03338 1.18431 5.58805 1.42228 6.07192L1.74505 6.7269C0.333628 7.41435 -0.0301695 7.67103 -8.09956e-05 7.91296C0.0245369 8.09294 0.232421 8.12539 0.303539 8.13424C1.88729 8.35552 2.72977 11.0374 3.34248 12.9965C3.52771 13.683 3.77318 14.3488 4.07554 14.9851L4.1959 15.1916L4.30257 14.9792C4.40134 14.7926 4.51775 14.6176 4.64996 14.4569V15.6637C4.64996 15.9174 4.98914 15.9587 5.13138 15.9882H9.81971C10.1206 15.9616 10.3941 15.8967 10.3941 15.6725V14.7048L12.659 15.5604L12.6836 15.5102L12.7684 15.5427L12.7356 15.4011L13.4659 13.8905C15.2903 13.6751 16.4747 12.371 16.9534 9.99889L17.0109 9.72156L16.7592 9.83957ZM5.43226 2.5993C5.48683 2.55039 5.52916 2.4875 5.55535 2.41637C5.58354 2.41943 5.61195 2.41943 5.64014 2.41637C5.68566 2.41575 5.73084 2.4078 5.77418 2.39277L5.82068 2.41637L5.42405 2.65536L5.43226 2.5993Z" fill="#3F3B39"/>
<path d="M0.32277 7.99281C-1.59195 7.72137 11.7236 3.38134 11.4172 0.321777C13.7587 2.18938 13.9638 4.38447 14.1525 5.7033C14.3413 7.02213 15.6788 10.5331 16.8003 9.98433C16.5952 10.9727 15.884 14.3745 11.9123 13.7166C7.94063 13.0586 5.29831 12.7282 4.17683 14.9233C3.37539 13.4835 2.6642 8.32325 0.32277 7.99281Z" fill="#E67E22"/>
<path d="M5.15888 2.67916C5.12231 2.78916 5.04921 2.88062 4.95373 2.93585L4.35196 3.28104C4.16049 3.39021 4.17963 3.41381 4.19604 3.44627C4.21246 3.47872 4.21793 3.50822 4.4094 3.39906L5.01117 3.05386C5.07737 3.01532 5.1357 2.96281 5.18269 2.89945C5.22968 2.83609 5.26437 2.76318 5.2847 2.68506C5.34214 2.46083 5.23273 2.28676 5.20264 2.30446C5.17255 2.32216 5.21905 2.49624 5.15888 2.67916Z" fill="#B76935"/>
<path d="M5.98212 2.20708C6.08636 2.23465 6.19636 2.21995 6.29121 2.16577L6.89298 1.82057C7.08445 1.71141 7.09266 1.74091 7.10634 1.77337C7.12001 1.80582 7.1419 1.82943 6.95042 1.93859L6.34865 2.28379C6.28248 2.32203 6.20972 2.34516 6.1349 2.35176C6.06007 2.35836 5.98479 2.34828 5.91374 2.32214C5.70859 2.25133 5.64021 2.05661 5.66482 2.0271C5.68944 1.9976 5.8098 2.15692 5.98212 2.20708Z" fill="#CE844D"/>
<path d="M12.8752 5.44343C13.0776 5.85354 13.0174 6.32855 12.7384 6.47607L4.7349 11.061C4.46137 11.2203 4.06748 11.0167 3.86507 10.6066L1.61937 6.04826C1.41696 5.63816 1.47987 5.16314 1.75888 5.01562L9.76241 0.430708C10.0359 0.271387 10.4298 0.474964 10.6322 0.885069L12.8752 5.44343Z" fill="#0B826B"/>
<path d="M9.7651 0.327736L1.67676 4.96281C1.40323 5.12213 1.33485 5.59124 1.53726 6.00725L3.80484 10.6217C3.86799 10.7859 3.97908 10.9234 4.12124 11.0134C4.2634 11.1034 4.42889 11.1409 4.59261 11.1203C4.43924 11.124 4.2883 11.0786 4.15881 10.9898C4.02933 10.9011 3.9271 10.773 3.86502 10.6217L1.61932 6.04856C1.41691 5.63845 1.47982 5.16344 1.75882 5.01592L9.76236 0.431C10.0359 0.271679 10.4298 0.475256 10.6322 0.885361L12.8752 5.44372C12.958 5.58369 13.0003 5.74703 12.9969 5.91302C12.9935 6.07902 12.9445 6.24018 12.856 6.37605C12.9637 6.2416 13.0278 6.07296 13.0387 5.89568C13.0495 5.7184 13.0065 5.54213 12.9162 5.39357L10.6459 0.787998C10.4407 0.374943 10.0468 0.168415 9.7651 0.327736Z" fill="#B76935"/>
<path d="M9.7624 0.430708L1.75886 5.01562C1.48532 5.17495 1.41694 5.63816 1.61936 6.04826L3.02531 8.9013L3.05813 8.96916L7.45652 8.98686C8.2714 8.81694 9.0203 8.38735 9.60648 7.75359L12.0683 3.80006L12.0354 3.7499L10.6322 0.885069C10.4298 0.474964 10.0414 0.271387 9.7624 0.430708Z" fill="#1ABC9C"/>
<path d="M9.03925 5.83011L6.3577 7.36609C6.17491 7.47079 6.10542 7.71549 6.20249 7.91265L6.47703 8.47029C6.57409 8.66745 6.80096 8.7424 6.98375 8.6377L9.6653 7.10173C9.84809 6.99703 9.91758 6.75232 9.82051 6.55516L9.54598 5.99753C9.44891 5.80037 9.22204 5.72541 9.03925 5.83011Z" fill="#CE844D"/>
<path d="M5.91105 1.79663C5.93987 1.85493 5.95198 1.92114 5.94585 1.98687C5.93973 2.05261 5.91563 2.11489 5.87662 2.16583C5.83762 2.21676 5.78546 2.25405 5.72678 2.27296C5.66809 2.29187 5.60552 2.29154 5.54701 2.27203C5.48849 2.25251 5.43667 2.21468 5.39812 2.16335C5.35957 2.11201 5.33603 2.04947 5.33049 1.98368C5.32495 1.91789 5.33765 1.8518 5.36699 1.79381C5.39633 1.73582 5.44098 1.68854 5.49528 1.65796C5.56753 1.61728 5.65176 1.60903 5.72962 1.635C5.80749 1.66097 5.8727 1.71906 5.91105 1.79663Z" fill="#B76935"/>
<path d="M5.42416 2.06538C5.45268 2.12365 5.46456 2.18973 5.45828 2.25527C5.45201 2.32082 5.42787 2.38289 5.38891 2.43365C5.34995 2.48441 5.29792 2.52157 5.2394 2.54045C5.18087 2.55934 5.11846 2.55909 5.06006 2.53974C5.00167 2.52039 4.94989 2.48281 4.91129 2.43174C4.87268 2.38067 4.84896 2.31841 4.84314 2.25281C4.83732 2.18722 4.84965 2.12123 4.87857 2.06319C4.9075 2.00515 4.95172 1.95766 5.00565 1.92671C5.07831 1.88589 5.16295 1.87755 5.24126 1.9035C5.31957 1.92945 5.38527 1.9876 5.42416 2.06538Z" fill="#CE844D"/>
<path d="M14.0678 6.32862L9.09223 4.44922L6.66327 9.46489L11.6388 11.3472L14.0678 6.32862Z" fill="#233849"/>
<path d="M12.5688 15.3214L7.59328 13.439L6.66327 9.46484L11.6388 11.3472L12.5688 15.3214Z" fill="#48647A"/>
<path d="M15.0115 10.3677L10.036 8.48536L9.09229 4.44922L14.0678 6.32862L15.0115 10.3677Z" fill="#48647A"/>
<path d="M15.0115 10.3677L10.036 8.48535L7.60699 13.504L12.5825 15.3863L15.0115 10.3677Z" fill="#34495E"/>
<path d="M10.252 12.3001C10.0437 12.1211 9.8446 11.9301 9.65565 11.7277C8.4007 10.3183 7.32287 8.7371 6.44986 7.02477C6.07512 6.29307 5.67576 5.56432 5.30103 4.81787C4.98582 5.37071 4.80256 5.99919 4.76764 6.64712V15.6724C4.76764 15.7668 4.90167 15.8229 5.13417 15.8553H9.80609C10.0796 15.8229 10.252 15.7668 10.252 15.6724V12.3001Z" fill="#0B826B"/>
<path d="M9.65574 11.7277C8.40078 10.3183 7.32296 8.73708 6.44994 7.02475C6.10256 6.34321 5.73056 5.66462 5.3777 4.95947C5.13958 5.43086 5.00395 5.95448 4.98108 6.49073V15.28C5.16708 15.3891 6.07521 15.3891 6.58398 15.3891H7.1748C8.05831 15.3891 9.81986 15.3891 10.0387 15.277V12.1112C9.90739 11.9903 9.77883 11.8604 9.65574 11.7277Z" fill="#1ABC9C"/>
<path d="M9.65565 11.7281C8.40069 10.3186 7.32287 8.73746 6.44986 7.02513L6.35959 6.854H4.76764V13.814H10.2383V12.3004C10.0347 12.1211 9.84017 11.93 9.65565 11.7281Z" fill="#34495E"/>
<g style="mix-blend-mode:overlay" opacity="0.6">
<path d="M6.19825 6.541L5.5828 5.36084C5.4607 5.77371 5.40067 6.20501 5.405 6.63836V15.7698L6.17636 15.7934V7.11338C6.17636 6.90685 6.18457 6.71802 6.19825 6.541Z" fill="white"/>
<path d="M9.65565 11.7276C9.54807 11.6096 9.44686 11.4887 9.35203 11.3647V15.7667H9.25903V15.7903L10.0331 15.7667V12.0964C9.90183 11.9843 9.77601 11.8604 9.65565 11.7276Z" fill="white"/>
</g>
</g>
<defs>
<clipPath id="clip0_4471_4905">
<rect width="17" height="16" fill="white"/>
</clipPath>
</defs>
</svg>
