<svg width="24" height="24" viewBox="0 0 24 24" fill="none" xmlns="http://www.w3.org/2000/svg">
<g clip-path="url(#clip0_4880_5571)">
<path d="M0 0H24V24H0V0Z" fill="#FFC403"/>
<path d="M10.6683 10.5835V13.323H9.91906V11.7864L9.41858 12.5269H9.02638L8.47614 11.7864V13.323H7.79126V10.5835H8.48199L9.27224 11.6576L9.98053 10.5835H10.6683ZM10.8849 11.204V10.5835H13.443V11.204H12.5474V13.323H11.7835V11.204H10.8849ZM16.2615 10.5835V13.323H15.6322L14.3444 11.7572V13.323H13.6596V10.5835H14.3415L15.5737 12.0937V10.5835H16.2615Z" fill="black"/>
<path d="M12.0001 16.1854C9.78738 16.1854 7.70056 15.7727 6.12592 15.0206C4.47812 14.2332 3.5708 13.162 3.5708 12.0001C3.5708 10.8381 4.47812 9.76689 6.12592 8.97958C7.70056 8.22738 9.78738 7.8147 12.0001 7.8147C14.2127 7.8147 16.2996 8.22738 17.8742 8.97958C19.522 9.76689 20.4293 10.8381 20.4293 12.0001C20.4293 13.162 19.522 14.2332 17.8742 15.0206C16.2996 15.7727 14.2127 16.1854 12.0001 16.1854ZM12.0001 8.43226C9.87519 8.43226 7.88495 8.82445 6.39226 9.5386C4.97275 10.2176 4.18836 11.0927 4.18836 12.003C4.18836 12.9132 4.96982 13.7884 6.39226 14.4645C7.88495 15.1786 9.87812 15.5708 12.0001 15.5708C14.122 15.5708 16.1152 15.1786 17.6079 14.4645C19.0274 13.7884 19.8118 12.9103 19.8118 12.003C19.8118 11.0957 19.0303 10.2176 17.6079 9.54153C16.1152 8.82445 14.1249 8.43226 12.0001 8.43226Z" fill="black"/>
</g>
<defs>
<clipPath id="clip0_4880_5571">
<rect width="24" height="24" rx="12" fill="white"/>
</clipPath>
</defs>
</svg>
