<svg width="8" height="16" viewBox="0 0 8 16" fill="none" xmlns="http://www.w3.org/2000/svg">
<g clip-path="url(#clip0_4471_4741)">
<path d="M4.50415 15.5788C4.39862 15.5809 4.29587 15.5321 4.21365 15.4408C2.57254 15.3705 1.03141 14.535 0.944635 13.9154L0.927658 13.7853L1.03141 13.767C1.5841 13.6759 2.60838 13.1996 3.2686 11.0286C3.80243 9.27668 3.32708 7.38422 2.83286 6.08266C2.33864 4.78111 0.955953 3.67999 0.940863 3.66958L0.842773 3.59149L0.920113 3.47435C1.19363 3.06566 2.17264 2.50339 3.2686 2.24308C2.99204 2.04919 2.74489 1.78412 2.54047 1.46215C2.49708 1.39625 2.45111 1.33369 2.40277 1.27472L2.31411 1.1758L2.41032 1.07949C2.71472 0.733356 3.09009 0.52761 3.48364 0.491187C4.08915 0.491187 4.38531 1.20704 4.50415 1.61313C4.61869 1.13575 4.85454 0.731686 5.16814 0.475569L5.2002 0.441728C5.21872 0.427848 5.23949 0.420683 5.26057 0.420903C5.3662 0.420903 5.4492 0.600518 5.47372 0.655183C5.52152 0.752893 5.54104 0.871782 5.52843 0.988381C5.52536 1.0112 5.5187 1.03282 5.50892 1.05171C5.49915 1.0706 5.48649 1.0863 5.47184 1.09771L5.45109 1.11333H5.43788C5.14147 1.33125 4.90542 1.67803 4.76635 2.09991C5.99624 2.15978 7.00354 2.71684 7.68639 3.71644L7.77694 3.8492L7.65433 3.91948C7.64112 3.91948 6.38105 4.65616 5.81892 6.26228C5.32848 7.65234 5.519 11.0156 5.90381 11.6481C6.41689 12.4915 6.94506 13.3662 7.64301 13.6239L7.79014 13.6785L7.68639 13.8321C7.02806 14.7953 6.03019 15.3523 4.80219 15.446C4.74642 15.5184 4.67602 15.5656 4.60035 15.5814C4.56834 15.5851 4.53616 15.5851 4.50415 15.5814V15.5788Z" fill="#3F3B39"/>
<path d="M4.58526 15.4436C4.72674 15.4097 4.79465 15.29 4.78522 15.2093C4.77578 15.1286 4.65129 15.0765 4.50793 15.0974C4.40132 15.1165 4.2964 15.1505 4.19479 15.1989C4.2287 15.2965 4.2864 15.3744 4.3578 15.4192C4.42919 15.4639 4.50972 15.4726 4.58526 15.4436Z" fill="#6B2F07"/>
<path d="M3.13652 4.72902C3.19877 4.81492 5.73778 10.5938 2.61778 13.3427C3.91558 14.5453 5.50953 14.095 6.44327 13.2438C3.81749 10.5496 4.66257 6.59805 5.96225 4.82794C5.15113 4.26306 4.17589 4.21881 3.13652 4.72902Z" fill="#FFEEA4"/>
<path d="M4.07782 9.28702C4.04386 9.51089 3.93068 9.62282 3.85523 9.60721C3.77978 9.59159 3.73262 9.39896 3.75525 9.17249C3.77742 9.002 3.81284 8.83531 3.86089 8.67529C3.94639 8.72053 4.0163 8.80878 4.05654 8.92228C4.09679 9.03578 4.10439 9.1661 4.07782 9.28702Z" fill="#6B2F07"/>
<path d="M4.86066 9.25304C4.88896 9.44827 4.98894 9.54458 5.0493 9.53157C5.10966 9.51855 5.15493 9.34935 5.13607 9.15152C5.11895 9.00261 5.08984 8.8568 5.0493 8.7168C4.97426 8.75618 4.91295 8.83361 4.87789 8.93328C4.84284 9.03294 4.83667 9.14731 4.86066 9.25304Z" fill="#6B2F07"/>
<path d="M4.8324 2.68322C4.8324 2.7535 4.70036 2.81077 4.53625 2.81077C4.37213 2.81077 4.2382 2.76391 4.2382 2.68322C4.2382 2.60252 4.37025 2.55566 4.53436 2.55566C4.69847 2.55566 4.8324 2.61293 4.8324 2.68322Z" fill="#B20616"/>
<path d="M4.46834 2.62855C4.46834 1.63156 4.75317 0.93393 5.24739 0.559082C5.35114 0.788156 5.4266 0.983389 5.4266 0.983389C5.4266 0.983389 4.63622 1.47798 4.57963 2.65458C4.55511 2.68842 4.46834 2.72226 4.46834 2.62855Z" fill="#6B2F07"/>
<path d="M0.986099 3.56033C0.986099 3.56033 2.3933 4.68227 2.90639 6.02548C3.48361 7.53528 3.86087 9.3939 3.3459 11.0781C2.68757 13.2361 1.66518 13.7879 1.03137 13.8921C2.70078 15.3186 5.93584 15.2379 7.61656 13.7333C6.89598 13.473 6.35461 12.5775 5.8302 11.7159C5.40767 11.0156 5.24921 7.57433 5.74721 6.19468C6.33197 4.5391 7.63354 3.80242 7.63354 3.80242C7.63354 3.80242 4.69275 1.80063 0.986099 3.56033Z" fill="#EFD978"/>
<path d="M4.58526 15.4436C4.72674 15.4097 4.79465 15.29 4.78522 15.2093C4.77578 15.1286 4.65129 15.0765 4.50793 15.0974C4.40132 15.1165 4.2964 15.1505 4.19479 15.1989C4.2287 15.2965 4.2864 15.3744 4.3578 15.4192C4.42919 15.4639 4.50972 15.4726 4.58526 15.4436Z" fill="#6B2F07"/>
<path d="M0.986099 3.56016C1.52182 2.7636 5.61516 0.868542 7.62034 3.80485C6.69226 3.74237 5.96225 4.83047 5.96225 4.83047C4.83045 4.30985 3.69865 4.6847 3.13275 4.73155C2.61778 3.7632 1.07853 3.54454 0.986099 3.56016Z" fill="#E74C3C"/>
<path d="M1.03143 13.8919C1.1465 14.8134 5.61145 16.6668 7.61662 13.7331C6.68855 13.7956 5.95854 12.7075 5.95854 12.7075C4.82674 13.2281 3.69494 12.8533 3.12904 12.8038C2.8533 13.1762 2.52439 13.4653 2.16325 13.6526C1.80211 13.84 1.41665 13.9215 1.03143 13.8919Z" fill="#E74C3C"/>
<path d="M3.13652 4.72902C3.19877 4.81492 5.73778 10.5938 2.61778 13.3427C3.91558 14.5453 5.50953 14.095 6.44327 13.2438C3.81749 10.5496 4.66257 6.59805 5.96225 4.82794C5.15113 4.26306 4.17589 4.21881 3.13652 4.72902Z" fill="#FFEEA4"/>
<path d="M4.07782 9.28702C4.04386 9.51089 3.93068 9.62282 3.85523 9.60721C3.77978 9.59159 3.73262 9.39896 3.75525 9.17249C3.77742 9.002 3.81284 8.83531 3.86089 8.67529C3.94639 8.72053 4.0163 8.80878 4.05654 8.92228C4.09679 9.03578 4.10439 9.1661 4.07782 9.28702Z" fill="#6B2F07"/>
<path d="M4.86066 9.25304C4.88896 9.44827 4.98894 9.54458 5.0493 9.53157C5.10966 9.51855 5.15493 9.34935 5.13607 9.15152C5.11895 9.00261 5.08984 8.8568 5.0493 8.7168C4.97426 8.75618 4.91295 8.83361 4.87789 8.93328C4.84284 9.03294 4.83667 9.14731 4.86066 9.25304Z" fill="#6B2F07"/>
<path d="M4.8324 2.68322C4.8324 2.7535 4.70036 2.81077 4.53625 2.81077C4.37213 2.81077 4.2382 2.76391 4.2382 2.68322C4.2382 2.60252 4.37025 2.55566 4.53436 2.55566C4.69847 2.55566 4.8324 2.61293 4.8324 2.68322Z" fill="#B20616"/>
<path d="M4.52866 2.63604C4.50979 2.31585 4.47584 1.91497 4.47584 1.91497C4.47584 1.91497 4.07405 -0.427821 2.46312 1.1809C2.70834 1.45683 3.3497 2.80003 4.36077 2.06596C4.41565 2.2656 4.45609 2.47226 4.4815 2.68289L4.52866 2.63604Z" fill="#198444"/>
<path d="M4.46834 2.62855C4.46834 1.63156 4.75317 0.93393 5.24739 0.559082C5.35114 0.788156 5.4266 0.983389 5.4266 0.983389C5.4266 0.983389 4.63622 1.47798 4.57963 2.65458C4.55511 2.68842 4.46834 2.72226 4.46834 2.62855Z" fill="#934D2B"/>
<path d="M5.3926 0.725659C5.44353 0.845402 5.45863 0.962542 5.42656 0.98597C5.39449 1.0094 5.32658 0.936511 5.27565 0.819371C5.22472 0.702231 5.21152 0.582488 5.24358 0.55906C5.27565 0.535632 5.34167 0.608519 5.3926 0.725659Z" fill="#A55E37"/>
</g>
<defs>
<clipPath id="clip0_4471_4741">
<rect width="6.94737" height="15.1579" fill="white" transform="translate(0.842773 0.420898)"/>
</clipPath>
</defs>
</svg>
