<svg width="16" height="16" viewBox="0 0 16 16" fill="none" xmlns="http://www.w3.org/2000/svg">
<g clip-path="url(#clip0_4471_4786)">
<path d="M2.44419 11.8332V11.4956L0 9.89484L4.14709 7.31564L5.19942 6.26076L6.27507 7.31564L6.96193 7.76133C7.26945 7.56543 7.60165 7.41284 7.94946 7.30773C7.88263 7.17557 7.84211 7.03128 7.83023 6.88314L7.75247 1.05489L8.50413 0.596011V0.210977L8.867 0L15.8652 3.79759L15.987 11.4033C15.9943 11.5871 15.9522 11.7695 15.8652 11.9308C15.7681 12.1064 15.6291 12.2543 15.4609 12.3606L15.1395 12.5532C15.0489 12.6101 14.9452 12.642 14.8388 12.6455C14.8095 12.6483 14.78 12.6483 14.7507 12.6455C14.6648 12.7676 14.5555 12.8708 14.4293 12.9487L13.9446 13.2309L9.25061 16L2.44419 11.8332Z" fill="#3F3B39"/>
<path d="M14.2557 11.8676C13.993 11.5954 13.7496 11.3046 13.5273 10.9973L7.86395 8.6001L2.90818 10.3934V11.5089L9.20916 15.3751L14.1623 12.4557C14.3088 12.3625 14.4181 12.2196 14.4708 12.0522C14.3948 11.9961 14.3229 11.9344 14.2557 11.8676Z" fill="white"/>
<path d="M13.4262 11.4269L14.8181 12.0414L14.774 12.4133L15.7071 11.7962L15.6605 11.5509L14.9269 11.2081C14.9269 11.2081 14.45 10.7017 13.4262 11.4269Z" fill="#1A7299"/>
<path d="M14.8181 12.0414L9.70159 15.0636L3.04032 10.9865L8.49893 9.02441L14.8181 12.0414Z" fill="#1A7299"/>
<path d="M13.1152 11.9493L14.3593 12.6376L14.6548 12.4108L14.6108 12.1655L13.8772 11.8227C13.8772 11.8227 14.139 11.2214 13.1152 11.9493Z" fill="#1A7299"/>
<path d="M14.3697 12.8062L9.25319 15.8285L2.59193 11.7487V11.4902L14.3697 12.5478V12.8062Z" fill="#3498DB"/>
<path d="M9.25319 15.5674V15.8285L2.59193 11.7487V11.4902L9.25319 15.5674Z" fill="#288DC6"/>
<path d="M14.3697 12.5479L9.25319 15.5675L2.59193 11.4904L8.05054 9.52832L14.3697 12.5479Z" fill="#1A7299"/>
<path d="M14.0535 11.2742L7.86395 8.6001L2.90818 10.3934V11.5089L9.20916 15.3751C9.20916 15.3751 13.0686 13.1598 13.6466 12.7221C14.2246 12.2843 14.7118 11.7964 14.8388 12.0549L15.4609 11.7067C14.7429 10.8918 14.0535 11.2742 14.0535 11.2742Z" fill="#EAEAEA"/>
<path d="M9.21953 14.1669L2.90818 10.3931L2.91336 11.5112L9.20916 15.3748L9.21953 14.1669Z" fill="#CCCCCC"/>
<path d="M14.0535 11.2742L9.18843 14.1488L2.90818 10.3934L6.44616 8.26514L14.0535 11.2742Z" fill="#F9F9F9"/>
<path d="M15.0954 11.0894C15.1153 10.9776 15.1484 10.8687 15.1939 10.765L8.88257 6.97266C8.81183 7.14781 8.78596 7.33837 8.8074 7.52647C9.4813 8.22797 13.6491 10.5487 15.0695 11.3663C15.0721 11.2735 15.0808 11.181 15.0954 11.0894Z" fill="#EFEFEF"/>
<path d="M15.8497 11.4058L15.7486 11.4506L15.6319 11.5403V11.6036C15.6085 11.6872 15.569 11.7653 15.5156 11.8332C15.4622 11.9012 15.396 11.9576 15.3209 11.9991L15.111 12.1231L15.0617 12.1521C14.8777 12.2602 14.8155 12.2233 14.8155 12.0361L14.6055 12.1547C14.5546 12.3308 14.4421 12.4818 14.2893 12.5793L14.0845 12.7006V12.9644L14.3619 12.7982C14.5044 12.7084 14.6222 12.5832 14.704 12.4343C14.7598 12.4704 14.8254 12.4877 14.8914 12.4839C14.9574 12.4802 15.0206 12.4554 15.0721 12.4132L15.1084 12.3894L15.3935 12.218C15.5413 12.1269 15.6629 11.9977 15.746 11.8435C15.8175 11.7093 15.8532 11.5584 15.8497 11.4058Z" fill="#3498DB"/>
<path d="M13.5428 11.5773L9.21947 14.167L2.93663 10.4116L9.22984 13.84L13.5428 11.5773Z" fill="white"/>
<path d="M14.9943 10.3087C14.6303 10.2187 14.2605 10.1553 13.8876 10.1188L8.9629 6.42669L7.90021 1.15226L8.83849 0.574707L15.3183 4.08484L15.4376 9.92628C15.4351 10.1027 15.3718 10.2726 15.2587 10.4063C15.1733 10.3666 15.0849 10.334 14.9943 10.3087Z" fill="white"/>
<path d="M15.8522 11.4297L15.733 3.88723L8.87217 0.171387L8.65445 0.305885L15.6319 11.5642L15.8522 11.4297Z" fill="#3498DB"/>
<path d="M15.5153 4.02172L15.733 3.88723L8.87217 0.171387L8.65445 0.305885L15.5153 4.02172Z" fill="#62BFF4"/>
<path d="M15.632 11.5644L15.5153 4.02199L8.65448 0.306152L8.56895 7.72201L15.632 11.5644Z" fill="#1A7299"/>
<path d="M14.406 10.4432L8.9629 6.41351L7.90021 1.13907L8.83849 0.574707L15.3183 4.08484C15.3183 4.08484 15.3987 8.6024 15.3935 9.33818C15.3935 10.9021 15.4479 11.7117 15.4479 11.7117C15.1581 11.6528 14.8968 11.4949 14.7073 11.2642C14.5178 11.0335 14.4115 10.7438 14.406 10.4432Z" fill="#EAEAEA"/>
<path d="M14.3256 4.71778L7.90021 1.14962L8.83849 0.574707L15.3313 4.08484L14.3256 4.71778Z" fill="#CCCCCC"/>
<path d="M14.406 10.4435L14.2919 4.6996L7.90021 1.1499L7.9676 6.88585L14.406 10.4435Z" fill="#EFEFEF"/>
<path d="M14.4034 10.3403C14.4522 10.8143 14.6776 11.2512 15.0332 11.5613C14.857 12.2918 8.75813 7.91142 8.65186 7.85077C8.4667 7.76286 8.30667 7.62831 8.18692 7.45986C8.06717 7.2914 7.99168 7.09463 7.96759 6.88818L10.8343 7.66616L14.4034 10.3403Z" fill="#EFEFEF"/>
<path d="M14.393 9.83934L14.3256 4.71786L7.93128 1.16553L14.056 4.89719L14.393 9.83934Z" fill="white"/>
<path d="M13.618 11.5326C14.0489 11.4078 14.5097 11.4472 14.914 11.6434C14.774 11.5115 8.29421 7.49765 8.19053 7.45809C7.81988 7.3315 6.44616 8.26508 6.44616 8.26508L9.52797 9.64171L13.618 11.5326Z" fill="#F9F9F9"/>
<path d="M8.11277 13.508L11.9488 11.1846L6.95158 7.94873L2.97556 10.3381L8.11277 13.508Z" fill="#CCCCCC"/>
<path d="M6.16364 7.43192L5.19166 6.47461L4.22746 7.43192H6.16364Z" fill="#CCCCCC"/>
<path d="M6.16364 7.43164H4.22747L0.274773 9.89744L6.86087 14.2119L11.8063 11.129L6.16364 7.43164Z" fill="#FCFCFC"/>
</g>
<defs>
<clipPath id="clip0_4471_4786">
<rect width="16" height="16" fill="white"/>
</clipPath>
</defs>
</svg>
