<svg width="6" height="16" viewBox="0 0 6 16" fill="none" xmlns="http://www.w3.org/2000/svg">
<g clip-path="url(#clip0_4471_4820)">
<path d="M2.73053 16C2.5614 15.9971 2.3954 15.9547 2.2462 15.8764C2.097 15.798 1.96886 15.6859 1.87234 15.5494C1.8308 15.559 1.78825 15.5638 1.74556 15.5637H1.32378C0.780099 15.5637 0.243732 14.8614 0.143773 14.044C0.0779458 13.4712 0.019433 12.3038 -7.12571e-05 11.6926C-0.00508191 11.4211 0.0386604 11.1509 0.129144 10.8944V7.19101C0.0427489 6.93102 -0.000871989 6.65913 -7.12571e-05 6.38562V5.10562C-7.12571e-05 4.24749 0.621627 3.60749 1.21895 2.98906C1.43944 2.76942 1.64856 2.53902 1.84552 2.29873C1.90033 2.20395 1.92733 2.09608 1.92354 1.98712C1.86224 1.97402 1.80733 1.94075 1.76787 1.8928C1.72842 1.84486 1.70679 1.78512 1.70655 1.72345C1.70742 1.66502 1.728 1.60853 1.76506 1.56285V0.455431L1.78945 0.270861V0.254082C1.78945 0.254082 1.78945 0.232509 1.80895 0.213333C1.82409 0.188972 1.84209 0.166446 1.86259 0.146217C1.87594 0.129897 1.89062 0.114667 1.90647 0.100674C1.92988 0.0821207 1.95521 0.0660514 1.98205 0.0527341C1.99644 0.0429151 2.01199 0.0348652 2.02837 0.028764C2.07559 0.00982619 2.1261 5.83417e-05 2.17709 0L3.86177 0C3.91272 0.000518784 3.96314 0.0102698 4.01049 0.028764L4.03975 0.0431461C4.06872 0.0582888 4.09573 0.0767985 4.1202 0.0982772C4.13738 0.110741 4.15294 0.125232 4.16653 0.141423C4.18203 0.161063 4.19589 0.181905 4.20797 0.203745C4.22048 0.223511 4.23109 0.244374 4.23967 0.266067L4.26649 1.62517C4.27877 1.65489 4.28538 1.68658 4.28599 1.71865C4.28532 1.78021 4.26352 1.83973 4.22414 1.88759C4.18476 1.93545 4.1301 1.96883 4.06901 1.98232C4.06369 2.09266 4.08986 2.20226 4.14459 2.29873C4.34154 2.53902 4.55067 2.76942 4.77116 2.98906C5.37092 3.60749 5.99018 4.24749 5.99018 5.10562V6.38562C5.9943 6.65863 5.95396 6.93053 5.87071 7.19101V10.8944C5.96037 11.1511 6.00409 11.4212 5.99993 11.6926C5.98286 12.2894 5.93654 13.4568 5.87071 14.044C5.77807 14.8518 5.22951 15.5637 4.69314 15.5637H4.26892C4.22214 15.5629 4.17557 15.5573 4.12996 15.547C4.03361 15.6844 3.90523 15.7973 3.75552 15.8761C3.60582 15.9549 3.43912 15.9974 3.26933 16H2.73053Z" fill="#3F3B39"/>
<path d="M5.73674 7.23176V7.15985C5.82221 6.91037 5.86586 6.64888 5.86595 6.38562V5.10562C5.86595 3.98622 4.70789 3.22637 4.04962 2.37783C3.96108 2.22095 3.92524 2.04058 3.94722 1.86247H4.02036C4.05787 1.86247 4.09383 1.84783 4.12035 1.82175C4.14687 1.79568 4.16177 1.76032 4.16177 1.72345C4.16244 1.70072 4.15652 1.67827 4.1447 1.65873V0.407493C4.14374 0.378796 4.13798 0.350451 4.12764 0.323598C4.1226 0.30862 4.11606 0.294168 4.10813 0.280452L4.074 0.239703C4.06469 0.228153 4.05405 0.217697 4.04231 0.208542C4.02768 0.19523 4.01127 0.183941 3.99354 0.174984L3.96185 0.151014C3.93 0.138676 3.89612 0.132176 3.86189 0.131838H2.17721C2.14293 0.131711 2.10897 0.138227 2.07725 0.151014L2.04556 0.167793C2.02673 0.176134 2.00943 0.187472 1.99436 0.201351L1.9651 0.239703C1.95322 0.25168 1.94334 0.265433 1.93584 0.280452C1.92707 0.294072 1.91972 0.308527 1.9139 0.323598C1.90472 0.350765 1.89899 0.378944 1.89684 0.407493V1.606C1.88007 1.61888 1.86637 1.63521 1.85668 1.65384C1.847 1.67247 1.84157 1.69295 1.84076 1.71386C1.84076 1.75073 1.85566 1.78609 1.88218 1.81217C1.9087 1.83824 1.94466 1.85289 1.98217 1.85289H2.05531C2.0785 2.03439 2.04174 2.21842 1.95047 2.37783C1.2922 3.22637 0.134138 3.98622 0.134138 5.10562V6.38562C0.134236 6.64888 0.177878 6.91037 0.263354 7.15985V10.916C0.174363 11.1646 0.130622 11.4267 0.134138 11.6902C0.153642 12.2751 0.209717 13.4472 0.277982 14.0273C0.368189 14.8087 0.880176 15.4319 1.3239 15.4319H1.74568C1.80789 15.4317 1.86935 15.4186 1.92609 15.3936C2.00712 15.5346 2.12369 15.6528 2.26459 15.7367C2.40549 15.8207 2.56598 15.8676 2.73064 15.873H3.26945C3.43463 15.867 3.59558 15.8199 3.73717 15.7361C3.87875 15.6522 3.99634 15.5344 4.07888 15.3936C4.13793 15.4224 4.20308 15.4372 4.26904 15.4367H4.69326C5.13698 15.4367 5.64897 14.8135 5.73918 14.0321C5.805 13.452 5.84889 12.2799 5.86595 11.695C5.86947 11.4314 5.82573 11.1694 5.73674 10.9208V7.23176Z" fill="#0A0A0A"/>
<path d="M4.14468 1.72106V0.407502C4.14468 0.3711 4.13735 0.335058 4.12311 0.301456C4.10887 0.267855 4.088 0.23736 4.0617 0.211732C4.03541 0.186103 4.00421 0.165849 3.96991 0.152137C3.93562 0.138426 3.8989 0.13153 3.86187 0.131846H2.17719C2.14017 0.13153 2.10345 0.138426 2.06915 0.152137C2.03485 0.165849 2.00365 0.186103 1.97736 0.211732C1.95106 0.23736 1.93019 0.267855 1.91595 0.301456C1.90171 0.335058 1.89438 0.3711 1.89438 0.407502V1.72106H4.14468Z" fill="#F1C40F"/>
<path d="M4.12764 0.323596C4.10962 0.268137 4.0742 0.219712 4.02646 0.185263C3.97872 0.150815 3.92111 0.132112 3.86189 0.131836H2.17721C2.11767 0.131973 2.05969 0.150584 2.01153 0.185017C1.96338 0.219449 1.92751 0.267946 1.90903 0.323596H4.12764Z" fill="#FFDE52"/>
<path d="M2.33809 1.5197C2.33809 1.526 2.33683 1.53223 2.33438 1.53805C2.33193 1.54386 2.32834 1.54915 2.32381 1.5536C2.31929 1.55805 2.31391 1.56158 2.30799 1.56399C2.30208 1.5664 2.29574 1.56764 2.28933 1.56764C2.27683 1.56703 2.26504 1.56171 2.25642 1.55278C2.2478 1.54386 2.243 1.53201 2.24301 1.5197V0.417081C2.243 0.404771 2.2478 0.392927 2.25642 0.384002C2.26504 0.375077 2.27683 0.369756 2.28933 0.369141C2.30227 0.369141 2.31467 0.374191 2.32381 0.383182C2.33296 0.392172 2.33809 0.404366 2.33809 0.417081V1.5197Z" fill="#FFDE52"/>
<path d="M2.53321 1.5197C2.53321 1.526 2.53194 1.53223 2.52949 1.53805C2.52704 1.54386 2.52345 1.54915 2.51892 1.5536C2.5144 1.55805 2.50902 1.56158 2.5031 1.56399C2.49719 1.5664 2.49085 1.56764 2.48444 1.56764C2.47804 1.56764 2.4717 1.5664 2.46579 1.56399C2.45987 1.56158 2.45449 1.55805 2.44997 1.5536C2.44544 1.54915 2.44185 1.54386 2.4394 1.53805C2.43695 1.53223 2.43568 1.526 2.43568 1.5197V0.417081C2.43568 0.404366 2.44082 0.392172 2.44997 0.383182C2.45911 0.374191 2.47151 0.369141 2.48444 0.369141C2.49738 0.369141 2.50978 0.374191 2.51892 0.383182C2.52807 0.392172 2.53321 0.404366 2.53321 0.417081V1.5197Z" fill="#FFDE52"/>
<path d="M2.72574 1.5197C2.72576 1.53201 2.72096 1.54386 2.71234 1.55278C2.70371 1.56171 2.69193 1.56703 2.67942 1.56764C2.67302 1.56764 2.66668 1.5664 2.66076 1.56399C2.65485 1.56158 2.64947 1.55805 2.64494 1.5536C2.64041 1.54915 2.63682 1.54386 2.63437 1.53805C2.63192 1.53223 2.63066 1.526 2.63066 1.5197V0.417081C2.63066 0.404366 2.6358 0.392172 2.64494 0.383182C2.65409 0.374191 2.66649 0.369141 2.67942 0.369141C2.69193 0.369756 2.70371 0.375077 2.71234 0.384002C2.72096 0.392927 2.72576 0.404771 2.72574 0.417081V1.5197Z" fill="#FFDE52"/>
<path d="M2.92571 1.5197C2.92571 1.526 2.92445 1.53223 2.922 1.53805C2.91955 1.54386 2.91595 1.54915 2.91143 1.5536C2.9069 1.55805 2.90152 1.56158 2.89561 1.56399C2.88969 1.5664 2.88335 1.56764 2.87695 1.56764C2.87054 1.56764 2.8642 1.5664 2.85829 1.56399C2.85237 1.56158 2.847 1.55805 2.84247 1.5536C2.83794 1.54915 2.83435 1.54386 2.8319 1.53805C2.82945 1.53223 2.82819 1.526 2.82819 1.5197V0.417081C2.82819 0.404366 2.83332 0.392172 2.84247 0.383182C2.85161 0.374191 2.86401 0.369141 2.87695 0.369141C2.88988 0.369141 2.90228 0.374191 2.91143 0.383182C2.92057 0.392172 2.92571 0.404366 2.92571 0.417081V1.5197Z" fill="#FFDE52"/>
<path d="M3.14998 1.5197C3.14998 1.53242 3.14484 1.54461 3.1357 1.5536C3.12655 1.56259 3.11415 1.56764 3.10122 1.56764C3.08829 1.56764 3.07589 1.56259 3.06674 1.5536C3.0576 1.54461 3.05246 1.53242 3.05246 1.5197V0.417081C3.05246 0.404366 3.0576 0.392172 3.06674 0.383182C3.07589 0.374191 3.08829 0.369141 3.10122 0.369141C3.11415 0.369141 3.12655 0.374191 3.1357 0.383182C3.14484 0.392172 3.14998 0.404366 3.14998 0.417081V1.5197Z" fill="#FFDE52"/>
<path d="M3.37673 1.5197C3.37673 1.526 3.37547 1.53223 3.37302 1.53805C3.37057 1.54386 3.36698 1.54915 3.36245 1.5536C3.35792 1.55805 3.35255 1.56158 3.34663 1.56399C3.34072 1.5664 3.33438 1.56764 3.32797 1.56764C3.32168 1.56765 3.31545 1.5664 3.30966 1.56396C3.30388 1.56152 3.29866 1.55795 3.29432 1.55347C3.28999 1.54898 3.28663 1.54367 3.28445 1.53787C3.28227 1.53206 3.28132 1.52588 3.28165 1.5197V0.417081C3.28132 0.410901 3.28227 0.40472 3.28445 0.398915C3.28663 0.39311 3.28999 0.387802 3.29432 0.383316C3.29866 0.37883 3.30388 0.375259 3.30966 0.372822C3.31545 0.370385 3.32168 0.369132 3.32797 0.369141C3.3409 0.369141 3.35331 0.374192 3.36245 0.383182C3.3716 0.392173 3.37673 0.404366 3.37673 0.417081V1.5197Z" fill="#FFDE52"/>
<path d="M3.58399 1.5197C3.58432 1.52588 3.58337 1.53206 3.58119 1.53787C3.57901 1.54367 3.57565 1.54898 3.57132 1.55347C3.56698 1.55795 3.56176 1.56152 3.55598 1.56396C3.55019 1.5664 3.54396 1.56765 3.53767 1.56764C3.53126 1.56764 3.52492 1.5664 3.51901 1.56399C3.51309 1.56158 3.50772 1.55805 3.50319 1.5536C3.49866 1.54915 3.49507 1.54386 3.49262 1.53805C3.49017 1.53223 3.48891 1.526 3.48891 1.5197V0.417081C3.48891 0.404366 3.49404 0.392173 3.50319 0.383182C3.51233 0.374192 3.52474 0.369141 3.53767 0.369141C3.54396 0.369132 3.55019 0.370385 3.55598 0.372822C3.56176 0.375259 3.56698 0.37883 3.57132 0.383316C3.57565 0.387802 3.57901 0.39311 3.58119 0.398915C3.58337 0.40472 3.58432 0.410901 3.58399 0.417081V1.5197Z" fill="#FFDE52"/>
<path d="M3.79366 1.5197C3.79366 1.526 3.7924 1.53223 3.78995 1.53805C3.7875 1.54386 3.7839 1.54915 3.77938 1.5536C3.77485 1.55805 3.76947 1.56158 3.76356 1.56399C3.75764 1.5664 3.7513 1.56764 3.7449 1.56764C3.73849 1.56764 3.73215 1.5664 3.72624 1.56399C3.72032 1.56158 3.71495 1.55805 3.71042 1.5536C3.70589 1.54915 3.7023 1.54386 3.69985 1.53805C3.6974 1.53223 3.69614 1.526 3.69614 1.5197V0.417081C3.69614 0.404366 3.70127 0.392172 3.71042 0.383182C3.71956 0.374191 3.73196 0.369141 3.7449 0.369141C3.75783 0.369141 3.77023 0.374191 3.77938 0.383182C3.78852 0.392172 3.79366 0.404366 3.79366 0.417081V1.5197Z" fill="#FFDE52"/>
<path d="M3.97889 1.5197C3.97958 1.5314 3.97566 1.54291 3.96794 1.55184C3.96022 1.56077 3.94929 1.56643 3.93744 1.56764C3.93166 1.56705 3.92606 1.56533 3.92097 1.56259C3.91587 1.55985 3.91138 1.55614 3.90775 1.55168C3.90412 1.54723 3.90143 1.5421 3.89983 1.53661C3.89823 1.53112 3.89775 1.52537 3.89843 1.5197V0.417081C3.89775 0.411409 3.89823 0.405661 3.89983 0.400171C3.90143 0.394681 3.90412 0.389558 3.90775 0.385098C3.91138 0.380639 3.91587 0.376932 3.92097 0.374193C3.92606 0.371453 3.93166 0.369736 3.93744 0.369141C3.94929 0.370354 3.96022 0.376014 3.96794 0.384943C3.97566 0.393872 3.97958 0.405382 3.97889 0.417081V1.5197Z" fill="#FFDE52"/>
<path d="M4.1179 1.5197C4.1179 1.54607 4.10327 1.56764 4.08377 1.56764C4.06426 1.56764 4.04964 1.54607 4.04964 1.5197V0.417081C4.04964 0.390714 4.06426 0.369141 4.08377 0.369141C4.10327 0.369141 4.1179 0.390714 4.1179 0.417081V1.5197Z" fill="#FFDE52"/>
<path d="M2.06261 0.417081C2.06261 0.390714 2.07967 0.369141 2.09918 0.369141C2.10495 0.369736 2.11055 0.371453 2.11565 0.374193C2.12075 0.376932 2.12524 0.380639 2.12887 0.385098C2.1325 0.389558 2.13519 0.394681 2.13679 0.400171C2.13839 0.405661 2.13886 0.411409 2.13819 0.417081V1.5197C2.13886 1.52537 2.13839 1.53112 2.13679 1.53661C2.13519 1.5421 2.1325 1.54723 2.12887 1.55168C2.12524 1.55614 2.12075 1.55985 2.11565 1.56259C2.11055 1.56533 2.10495 1.56705 2.09918 1.56764C2.07967 1.56764 2.06261 1.54607 2.06261 1.5197V0.417081Z" fill="#FFDE52"/>
<path d="M1.92367 0.417081C1.92367 0.390714 1.93829 0.369141 1.9578 0.369141H1.95048C1.96999 0.369141 1.98462 0.390714 1.98462 0.417081V1.5197C1.98462 1.54607 1.96999 1.56764 1.95048 1.56764C1.93098 1.56764 1.91635 1.54607 1.91635 1.5197L1.92367 0.417081Z" fill="#FFDE52"/>
<path d="M5.86595 6.38574V5.10574C5.86595 3.98634 4.70789 3.22649 4.04962 2.37795C3.96108 2.22107 3.92524 2.04069 3.94722 1.86259H4.02036C4.05787 1.86259 4.09383 1.84794 4.12035 1.82187C4.14687 1.7958 4.16177 1.76044 4.16177 1.72356C4.16177 1.70542 4.1581 1.68745 4.15096 1.67072C4.14383 1.65398 4.13337 1.63881 4.12021 1.6261C4.10704 1.61338 4.09144 1.60336 4.07429 1.59664C4.05715 1.58992 4.03882 1.58662 4.02036 1.58694H1.97973C1.96128 1.58662 1.94294 1.58992 1.9258 1.59664C1.90866 1.60336 1.89305 1.61338 1.87988 1.6261C1.86672 1.63881 1.85627 1.65398 1.84913 1.67072C1.84199 1.68745 1.83832 1.70542 1.83832 1.72356C1.83832 1.76044 1.85322 1.7958 1.87974 1.82187C1.90626 1.84794 1.94223 1.86259 1.97973 1.86259H2.05287C2.07468 2.04069 2.03885 2.22101 1.95047 2.37795C1.2922 3.22649 0.134138 3.98634 0.134138 5.10574V6.38574C0.134236 6.64899 0.177878 6.91048 0.263354 7.15997V10.9161C0.174363 11.1647 0.130622 11.4268 0.134138 11.6903C0.153642 12.2752 0.209717 13.4473 0.277982 14.0274C0.368189 14.8088 0.880176 15.432 1.3239 15.432H1.74568C1.80789 15.4318 1.86935 15.4188 1.92609 15.3937C2.00712 15.5347 2.12369 15.6529 2.26459 15.7368C2.40549 15.8208 2.56598 15.8677 2.73064 15.8731H3.26945C3.43463 15.8672 3.59558 15.8201 3.73717 15.7362C3.87875 15.6523 3.99634 15.5345 4.07888 15.3937C4.13793 15.4226 4.20308 15.4373 4.26904 15.4368H4.69326C5.13698 15.4368 5.64897 14.8136 5.73918 14.0322C5.805 13.4521 5.84889 12.28 5.86595 11.6951C5.86947 11.4316 5.82573 11.1695 5.73674 10.9209V7.15997C5.82221 6.91048 5.86586 6.64899 5.86595 6.38574Z" fill="#3E6C6D"/>
<path d="M5.80743 6.36894V5.09133C5.80743 3.97673 4.67375 3.22167 4.02767 2.37553C3.94091 2.21805 3.90598 2.03799 3.92771 1.86017H4.00085C4.0377 1.86017 4.07305 1.84578 4.09911 1.82015C4.12518 1.79453 4.13982 1.75978 4.13982 1.72354C4.13982 1.68731 4.12518 1.65255 4.09911 1.62693C4.07305 1.60131 4.0377 1.58691 4.00085 1.58691H1.99922C1.96237 1.58691 1.92702 1.60131 1.90096 1.62693C1.8749 1.65255 1.86026 1.68731 1.86026 1.72354C1.86026 1.75978 1.8749 1.79453 1.90096 1.82015C1.92702 1.84578 1.96237 1.86017 1.99922 1.86017H2.07236C2.09409 2.03799 2.05917 2.21805 1.9724 2.37553C1.32633 3.22167 0.19264 3.97673 0.19264 5.09133V6.36894C0.192302 6.63125 0.235114 6.8919 0.319418 7.14077V10.8825C0.22999 11.1293 0.18703 11.39 0.19264 11.6519C0.209707 12.2368 0.265781 13.4041 0.331608 13.9818C0.421815 14.7608 0.921612 15.3817 1.35802 15.3817H1.77249C1.83406 15.3805 1.8947 15.3666 1.95046 15.3409C2.02893 15.481 2.1429 15.5987 2.28131 15.6827C2.41971 15.7667 2.57786 15.8141 2.74039 15.8203H3.26456C3.42777 15.8143 3.58663 15.767 3.72584 15.683C3.86505 15.599 3.97991 15.4812 4.05936 15.3409C4.11755 15.3698 4.18191 15.3846 4.24709 15.3841H4.66156C5.09553 15.3841 5.6002 14.7632 5.68553 13.9842C5.75136 13.4065 5.79524 12.2392 5.80987 11.6543C5.81364 11.3927 5.77158 11.1325 5.68553 10.8849V7.14077C5.76704 6.89136 5.80818 6.63091 5.80743 6.36894Z" fill="#AFDCE0"/>
<path d="M4.04722 1.70672C4.04756 1.71625 4.0459 1.72575 4.04235 1.73463C4.03879 1.7435 4.03342 1.75157 4.02655 1.75831C4.01969 1.76506 4.01149 1.77034 4.00247 1.77384C3.99344 1.77733 3.98377 1.77896 3.97408 1.77863H1.96758C1.95777 1.77895 1.948 1.77733 1.93884 1.77386C1.92968 1.77039 1.92133 1.76514 1.91428 1.75843C1.90722 1.75172 1.90162 1.74369 1.89779 1.7348C1.89396 1.72592 1.89199 1.71637 1.892 1.70672C1.89199 1.69707 1.89396 1.68752 1.89779 1.67863C1.90162 1.66975 1.90722 1.66171 1.91428 1.655C1.92133 1.64829 1.92968 1.64305 1.93884 1.63958C1.948 1.63611 1.95777 1.63449 1.96758 1.63481H3.97408C3.98377 1.63447 3.99344 1.6361 4.00247 1.6396C4.01149 1.6431 4.01969 1.64838 4.02655 1.65513C4.03342 1.66187 4.03879 1.66993 4.04235 1.67881C4.0459 1.68768 4.04756 1.69718 4.04722 1.70672Z" fill="#EBF9FC"/>
<path opacity="0.6" d="M3.33769 12.0977H2.62579C2.43181 12.0977 2.24577 12.1734 2.1086 12.3083C1.97144 12.4431 1.89438 12.626 1.89438 12.8168V15.0244C1.89479 15.2015 1.96163 15.3722 2.08211 15.5038V13.2938C2.08211 12.3613 3.38402 12.0977 3.33769 12.0977Z" fill="white"/>
<path d="M2.59897 15.7532H3.31087C3.50486 15.7532 3.69089 15.6774 3.82806 15.5426C3.96523 15.4077 4.04228 15.2248 4.04228 15.0341V13.1836C4.04228 12.999 3.85456 14.5643 3.85456 14.5643C3.8223 14.8765 3.67841 15.1674 3.44849 15.3851C3.21857 15.6028 2.91754 15.7332 2.59897 15.7532Z" fill="#598A8E"/>
<path d="M5.73678 7.23193H0.263397V10.8418H5.73678V7.23193Z" fill="#F1C40F"/>
<g style="mix-blend-mode:overlay" opacity="0.6">
<path d="M2.04556 10.8463C2.04493 10.8951 2.02495 10.9417 1.98988 10.9762C1.95481 11.0106 1.90743 11.0303 1.85783 11.0309C1.80824 11.0303 1.76086 11.0106 1.72579 10.9762C1.69072 10.9417 1.67074 10.8951 1.6701 10.8463V6.97998C1.67074 6.93122 1.69072 6.88464 1.72579 6.85016C1.76086 6.81568 1.80824 6.79603 1.85783 6.79541C1.90743 6.79603 1.95481 6.81568 1.98988 6.85016C2.02495 6.88464 2.04493 6.93122 2.04556 6.97998V10.8463Z" fill="white"/>
</g>
<g style="mix-blend-mode:overlay" opacity="0.6">
<path d="M4.01792 3.72717L3.5937 3.37961C3.34465 3.18616 3.0485 3.06006 2.73461 3.01381C2.42072 2.96756 2.09998 3.00276 1.80419 3.11594C1.98144 2.87125 2.14424 2.61675 2.29179 2.35369C2.34706 2.20506 2.36869 2.04637 2.35518 1.88867H2.1577C2.17498 2.04958 2.1418 2.21184 2.06262 2.35369C1.46286 3.11594 0.297483 3.82066 0.282855 4.85616L0.263351 6.05467C0.257965 6.30366 0.295894 6.55172 0.3755 6.78815L0.438889 11.0261C0.351415 11.2743 0.306913 11.5352 0.307235 11.7979C0.307235 12.3852 0.35112 12.9964 0.407194 13.6004C0.48765 14.3962 0.975256 15.0434 1.38972 15.0434H1.81638C1.536 15.0123 1.21906 14.3819 1.17517 13.5884C1.13617 12.9916 1.11179 12.3732 1.10691 11.7859C1.10765 11.5302 1.13708 11.2754 1.19468 11.0261L1.15323 6.79054C1.10022 6.5496 1.07487 6.30357 1.07765 6.05706V4.85856C1.08435 4.7564 1.09737 4.65474 1.11666 4.55414C1.41888 4.63225 1.7307 4.66856 2.04311 4.66201H2.89155C4.1447 4.65481 4.63231 4.24013 4.01792 3.72717Z" fill="white"/>
</g>
<g style="mix-blend-mode:overlay">
<path d="M5.588 6.79054C5.66564 6.55371 5.70272 6.30584 5.69771 6.05706L5.68065 4.85856C5.66358 3.82066 4.49332 3.11594 3.90088 2.35369C3.82117 2.21207 3.78876 2.04939 3.80824 1.88867H3.64001C3.63676 2.06598 3.65976 2.24281 3.70828 2.41362C4.22758 3.17586 5.24911 3.8662 5.26374 4.89212L5.28081 6.09062C5.28309 6.33365 5.25025 6.57577 5.18329 6.80972L5.1199 10.9877C5.19676 11.2332 5.237 11.4883 5.23936 11.7452C5.23936 12.3276 5.20035 12.9437 5.15159 13.5309C5.09369 14.0763 4.88735 14.5964 4.55427 15.0362H4.57134C4.998 15.0362 5.47829 14.389 5.54655 13.5813C5.60263 12.9844 5.6392 12.366 5.64895 11.7787C5.64865 11.5227 5.60582 11.2685 5.52217 11.0261L5.588 6.79054Z" fill="#0A0A0A"/>
</g>
<g style="mix-blend-mode:overlay">
<path d="M4.79807 12.5436C4.79807 12.5767 4.78471 12.6084 4.76093 12.6318C4.73716 12.6552 4.70491 12.6683 4.67129 12.6683C4.63766 12.6683 4.60542 12.6552 4.58164 12.6318C4.55787 12.6084 4.54451 12.5767 4.54451 12.5436V5.64027C4.54451 5.60721 4.55787 5.57551 4.58164 5.55213C4.60542 5.52876 4.63766 5.51562 4.67129 5.51562C4.70491 5.51563 4.73716 5.52876 4.76093 5.55213C4.78471 5.57551 4.79807 5.60721 4.79807 5.64027V12.5436Z" fill="#0A0A0A"/>
</g>
</g>
<defs>
<clipPath id="clip0_4471_4820">
<rect width="6" height="16" fill="white"/>
</clipPath>
</defs>
</svg>
