<svg width="8" height="8" viewBox="0 0 8 8" fill="none" xmlns="http://www.w3.org/2000/svg">
<path d="M3.05286 3.87341C3.04286 3.87341 3.0362 3.87341 3.0262 3.87341C3.00953 3.87008 2.9862 3.87008 2.9662 3.87341C1.99953 3.84341 1.26953 3.08341 1.26953 2.14675C1.26953 1.19341 2.0462 0.416748 2.99953 0.416748C3.95286 0.416748 4.72953 1.19341 4.72953 2.14675C4.7262 3.08341 3.99286 3.84341 3.06286 3.87341C3.05953 3.87341 3.0562 3.87341 3.05286 3.87341ZM2.99953 0.916748C2.32286 0.916748 1.76953 1.47008 1.76953 2.14675C1.76953 2.81341 2.28953 3.35008 2.95286 3.37341C2.97286 3.37008 3.0162 3.37008 3.05953 3.37341C3.71286 3.34341 4.2262 2.80675 4.22953 2.14675C4.22953 1.47008 3.6762 0.916748 2.99953 0.916748Z" fill="#242424"/>
<path d="M5.5128 3.91659C5.5028 3.91659 5.4928 3.91659 5.4828 3.91325C5.34613 3.92659 5.20613 3.82992 5.1928 3.69325C5.17947 3.55659 5.2628 3.43325 5.39947 3.41659C5.43947 3.41325 5.4828 3.41325 5.51947 3.41325C6.00613 3.38659 6.38613 2.98659 6.38613 2.49659C6.38613 1.98992 5.97613 1.57992 5.46947 1.57992C5.3328 1.58325 5.21947 1.46992 5.21947 1.33325C5.21947 1.19659 5.3328 1.08325 5.46947 1.08325C6.24947 1.08325 6.88613 1.71992 6.88613 2.49992C6.88613 3.26659 6.28613 3.88659 5.5228 3.91659C5.51947 3.91659 5.51613 3.91659 5.5128 3.91659Z" fill="#242424"/>
<path d="M3.05654 7.51658C2.4032 7.51658 1.74654 7.34992 1.24987 7.01658C0.786537 6.70992 0.533203 6.28992 0.533203 5.83325C0.533203 5.37659 0.786537 4.95325 1.24987 4.64325C2.24987 3.97992 3.86987 3.97992 4.8632 4.64325C5.3232 4.94992 5.57987 5.36992 5.57987 5.82658C5.57987 6.28325 5.32654 6.70658 4.8632 7.01658C4.3632 7.34992 3.70987 7.51658 3.05654 7.51658ZM1.52654 5.06325C1.20654 5.27658 1.0332 5.54992 1.0332 5.83659C1.0332 6.11992 1.20987 6.39325 1.52654 6.60325C2.35654 7.15992 3.75654 7.15992 4.58654 6.60325C4.90654 6.38992 5.07987 6.11658 5.07987 5.82992C5.07987 5.54658 4.9032 5.27325 4.58654 5.06325C3.75654 4.50992 2.35654 4.50992 1.52654 5.06325Z" fill="#292D32"/>
<path d="M6.11339 6.91667C5.99672 6.91667 5.89339 6.83667 5.87005 6.71667C5.84339 6.58001 5.93005 6.45001 6.06339 6.42001C6.27339 6.37667 6.46672 6.29334 6.61672 6.17667C6.80672 6.03334 6.91005 5.85334 6.91005 5.66334C6.91005 5.47334 6.80672 5.29334 6.62005 5.15334C6.47339 5.04001 6.29005 4.96001 6.07339 4.91001C5.94005 4.88001 5.85339 4.74667 5.88339 4.61001C5.91339 4.47667 6.04672 4.39001 6.18339 4.42001C6.47005 4.48334 6.72005 4.59667 6.92339 4.75334C7.23339 4.98667 7.41005 5.31667 7.41005 5.66334C7.41005 6.01001 7.23005 6.34001 6.92005 6.57667C6.71339 6.73667 6.45339 6.85334 6.16672 6.91001C6.14672 6.91667 6.13005 6.91667 6.11339 6.91667Z" fill="#292D32"/>
</svg>
