<svg width="283" height="241" viewBox="0 0 283 241" fill="none" xmlns="http://www.w3.org/2000/svg">
<g clip-path="url(#clip0_843_21305)">
<path d="M12.6583 180.883L0 173.572V175.621L12.6583 182.931V180.883Z" fill="#B4AEBC"/>
<path d="M40.7569 164.646L12.6584 180.884V182.932L40.7569 166.716V164.646Z" fill="#F3EDF2"/>
<path d="M28.0984 157.355L0 173.572L12.6583 180.882L40.7567 164.644L28.0984 157.355Z" fill="#F3EDF2"/>
<g style="mix-blend-mode:multiply">
<path d="M359.371 -7.61182L436.701 37.0265L84.4245 240.422L7.09448 195.762L359.371 -7.61182Z" fill="#C7CCD1"/>
</g>
<path d="M217.585 106.917L157.463 141.636V164.235L217.585 129.538V106.917Z" fill="#1C1922"/>
<path d="M133.117 158.09L331.014 43.82V24.4983L133.117 138.747V158.09Z" fill="#222428"/>
<path d="M176.376 131.867C176.376 143.189 184.376 147.739 194.231 142.046C204.086 136.353 212.065 122.638 212.065 111.273C212.065 99.9088 204.086 95.4018 194.231 101.095C184.376 106.788 176.376 120.567 176.376 131.867Z" fill="#23222D"/>
<path d="M177.885 127.339C180.257 115.91 188.236 104.243 197.293 99.0032C201.864 96.3723 206.242 95.6392 209.627 96.9546C211.045 97.5544 212.307 98.4705 213.316 99.6329C214.325 100.795 215.055 102.173 215.45 103.661L217.606 103.014C217.126 101.214 216.236 99.5486 215.005 98.1494C213.774 96.7502 212.236 95.6549 210.512 94.9491C206.501 93.3965 201.454 94.1728 196.322 97.1055C186.748 102.626 178.337 114.875 175.858 126.864L177.885 127.339Z" fill="#232321"/>
<path d="M215.472 103.661L226.729 110.131L226.06 105.43L224.788 103.273L211.332 95.3591C211.332 95.3591 203.353 94.0868 197.552 97.5155C191.21 101.645 185.905 107.179 182.047 113.689C179.609 117.963 177.504 122.418 175.75 127.016L187.007 133.485C187.007 133.485 193.347 117.764 199.04 112.179C204.733 106.594 213.359 99.4347 215.472 103.661Z" fill="#232321"/>
<path d="M194.554 150.821L180.753 142.778L208.097 100.662L220.388 107.714L194.554 150.821Z" fill="#23222D"/>
<path d="M189.141 133.872C191.513 122.422 199.492 110.777 208.549 105.537C213.121 102.906 217.499 102.173 220.884 103.38C222.304 103.977 223.567 104.893 224.576 106.055C225.586 107.218 226.315 108.598 226.707 110.087L228.863 109.418C228.378 107.622 227.486 105.962 226.256 104.567C225.025 103.172 223.49 102.08 221.768 101.375C217.757 99.8222 212.711 100.599 207.579 103.531C198.004 109.073 189.594 121.3 187.114 133.312L189.141 133.872Z" fill="#2F2F2D"/>
<path d="M189.098 139.242C189.098 150.542 197.077 155.092 206.932 149.399C216.786 143.706 224.787 129.991 224.787 118.626C224.787 107.262 216.786 102.755 207.018 108.426C197.249 114.098 189.098 127.834 189.098 139.242Z" fill="#292833"/>
<path d="M190.413 138.466C190.413 148.946 197.81 153.173 206.931 147.89C211.738 144.775 215.741 140.57 218.615 135.616C221.489 130.662 223.153 125.1 223.471 119.382C223.471 108.901 216.075 104.696 206.931 109.958C197.788 115.22 190.413 127.986 190.413 138.466Z" fill="#2D2C37"/>
<path d="M195.115 135.748C195.115 143.253 200.398 146.272 206.932 142.498C210.371 140.269 213.235 137.259 215.292 133.715C217.35 130.17 218.541 126.19 218.771 122.098C218.771 114.615 213.466 111.596 206.932 115.37C203.496 117.596 200.635 120.602 198.581 124.143C196.528 127.684 195.34 131.661 195.115 135.748Z" fill="#D8D5DC"/>
<path d="M195.848 135.317C195.848 135.555 195.848 135.792 195.848 136.007C196.172 142.477 201.002 145.043 206.911 141.636C210.132 139.548 212.814 136.729 214.74 133.409C216.666 130.089 217.781 126.362 217.995 122.53C217.995 115.823 213.467 112.955 207.752 115.78L206.911 116.211C205.357 117.128 203.942 118.261 202.706 119.575L202.296 120.028C201.8 120.567 201.326 121.15 200.873 121.753L200.42 122.379C199.787 123.269 199.211 124.198 198.695 125.161L198.35 125.786C197.983 126.541 197.617 127.317 197.315 128.115C197.267 128.269 197.209 128.42 197.142 128.568C196.319 130.724 195.881 133.009 195.848 135.317Z" fill="#929197"/>
<path d="M203.806 140.084C207.019 137.99 209.694 135.169 211.616 131.85C213.537 128.531 214.651 124.807 214.868 120.978C214.997 118.704 214.222 116.472 212.712 114.767C215.838 115.199 217.93 117.98 217.93 122.531C217.736 126.347 216.647 130.065 214.751 133.384C212.856 136.703 210.207 139.53 207.019 141.637C203.31 143.793 200.053 143.577 198.026 141.529C200.059 141.696 202.09 141.188 203.806 140.084Z" fill="#A4A3A8"/>
<path d="M195.848 135.317C195.848 135.554 195.848 135.791 195.848 136.007C195.849 138.002 196.551 139.934 197.832 141.463C199.07 142.013 200.43 142.229 201.777 142.089C203.124 141.949 204.411 141.458 205.509 140.665C208.65 138.611 211.263 135.846 213.136 132.594C215.01 129.342 216.091 125.694 216.291 121.947C216.291 118.259 214.89 115.758 212.669 114.766C210.942 114.602 209.206 114.963 207.687 115.801L206.846 116.232C205.317 117.148 203.923 118.273 202.706 119.575L202.296 120.028C201.8 120.567 201.326 121.149 200.873 121.753L200.42 122.378C199.787 123.268 199.211 124.198 198.695 125.16L198.35 125.785C197.983 126.54 197.617 127.317 197.315 128.114C197.267 128.269 197.209 128.42 197.142 128.567C196.319 130.724 195.881 133.009 195.848 135.317Z" fill="#B6B5B9"/>
<path d="M203.395 139.717C206.539 137.665 209.153 134.901 211.027 131.648C212.9 128.396 213.98 124.747 214.177 120.999C214.278 119.86 214.138 118.713 213.767 117.632C213.395 116.551 212.8 115.56 212.021 114.723H212.797C214.954 115.715 216.42 118.217 216.42 121.904C216.219 125.652 215.138 129.299 213.265 132.551C211.392 135.803 208.779 138.568 205.638 140.622C204.54 141.415 203.253 141.906 201.906 142.046C200.559 142.186 199.199 141.97 197.961 141.42C197.961 141.42 197.81 141.183 197.724 141.097C199.714 141.269 201.706 140.784 203.395 139.717Z" fill="#D8D5DC"/>
<path d="M195.848 135.318C195.848 135.555 195.848 135.792 195.848 136.008C197.336 138.164 200.161 138.66 203.461 136.784C205.967 135.146 208.054 132.943 209.552 130.351C211.05 127.759 211.918 124.851 212.086 121.861C212.086 118.174 210.318 115.974 207.774 115.78L206.932 116.212C205.371 117.127 203.948 118.26 202.706 119.576L202.296 120.028C201.8 120.568 201.326 121.15 200.873 121.754L200.42 122.379C199.787 123.269 199.211 124.198 198.695 125.161L198.35 125.786C197.983 126.541 197.617 127.317 197.315 128.115C197.267 128.269 197.209 128.421 197.142 128.568C196.319 130.725 195.881 133.009 195.848 135.318Z" fill="#A4A3A8"/>
<path d="M207.903 118.109C207.873 118.582 207.733 119.041 207.493 119.449C207.253 119.857 206.921 120.203 206.522 120.459C205.789 120.891 205.164 120.459 205.164 119.683C205.193 119.213 205.331 118.756 205.566 118.348C205.802 117.94 206.129 117.592 206.522 117.333C207.277 116.901 207.903 117.246 207.903 118.109Z" fill="#22222C"/>
<path d="M200.549 122.378C200.563 122.482 200.602 122.581 200.662 122.667C200.722 122.754 200.801 122.824 200.894 122.874C201.433 123.176 202.296 122.68 202.813 121.774C203.331 120.869 203.352 119.898 202.813 119.618L202.403 120.071C201.907 120.61 201.433 121.192 200.98 121.796L200.549 122.378Z" fill="#22222C"/>
<path d="M197.164 128.567C197.305 128.649 197.464 128.692 197.627 128.692C197.79 128.692 197.95 128.649 198.091 128.567C198.493 128.315 198.828 127.97 199.068 127.561C199.308 127.152 199.447 126.691 199.471 126.217C199.471 125.613 199.169 125.268 198.716 125.268L198.371 125.893C198.005 126.648 197.638 127.425 197.336 128.222C197.284 128.34 197.227 128.455 197.164 128.567Z" fill="#22222C"/>
<path d="M197.336 128.115C197.509 128.395 197.854 128.46 198.242 128.223C198.551 128.035 198.807 127.773 198.988 127.46C199.169 127.147 199.268 126.794 199.277 126.433C199.277 125.829 198.889 125.57 198.371 125.786C198.005 126.541 197.638 127.317 197.336 128.115Z" fill="#585760"/>
<path d="M200.872 121.947C200.872 122.616 201.325 122.874 201.907 122.529C202.213 122.344 202.468 122.085 202.648 121.776C202.829 121.467 202.93 121.119 202.943 120.761C202.943 120.265 202.684 120.006 202.317 120.028C201.821 120.567 201.347 121.149 200.894 121.753C200.876 121.816 200.869 121.882 200.872 121.947Z" fill="#585760"/>
<path d="M206.695 117.85C207.256 117.505 207.73 117.85 207.73 118.432C207.71 118.791 207.606 119.14 207.426 119.451C207.247 119.762 206.996 120.026 206.695 120.222C206.113 120.545 205.66 120.222 205.66 119.64C205.669 119.278 205.768 118.925 205.949 118.612C206.13 118.3 206.386 118.037 206.695 117.85Z" fill="#585760"/>
<path d="M196.754 132.148C197.293 131.221 198.155 130.725 198.673 131.027C199.19 131.329 199.212 132.321 198.673 133.183C198.134 134.046 197.293 134.585 196.754 134.283C196.215 133.981 196.236 132.968 196.754 132.148Z" fill="#22222C"/>
<path d="M199.471 135.791C199.497 135.32 199.633 134.862 199.869 134.453C200.105 134.045 200.434 133.698 200.83 133.441C201.584 132.988 202.188 133.441 202.188 134.217C202.163 134.688 202.026 135.147 201.79 135.555C201.554 135.963 201.225 136.31 200.83 136.568C200.075 136.999 199.471 136.654 199.471 135.791Z" fill="#22222C"/>
<path d="M204.647 134.303C204.107 134.002 204.107 133.01 204.647 132.147C205.186 131.284 206.048 130.724 206.566 131.026C207.083 131.328 207.105 132.32 206.566 133.182C206.027 134.045 205.186 134.648 204.647 134.303Z" fill="#22222C"/>
<path d="M209.174 128.568C208.42 128.999 207.816 128.568 207.816 127.792C207.841 127.321 207.978 126.862 208.214 126.454C208.45 126.045 208.779 125.698 209.174 125.441C209.929 124.988 210.533 125.441 210.533 126.218C210.508 126.689 210.371 127.147 210.135 127.555C209.899 127.964 209.57 128.311 209.174 128.568Z" fill="#22222C"/>
<path d="M210.598 121.839C210.08 122.766 209.218 123.262 208.679 122.96C208.139 122.659 208.139 121.667 208.679 120.804C209.218 119.941 210.08 119.381 210.598 119.683C211.115 119.985 211.137 120.912 210.598 121.839Z" fill="#22222C"/>
<path d="M200.873 129.278C200.873 131.241 202.253 132.039 203.978 131.047C204.868 130.45 205.606 129.654 206.134 128.722C206.662 127.79 206.965 126.747 207.019 125.677C207.019 123.693 205.617 122.917 203.913 123.909C203.017 124.499 202.275 125.294 201.746 126.227C201.217 127.161 200.918 128.207 200.873 129.278Z" fill="#22222C"/>
<path d="M202.382 129.625C202.382 131.286 203.547 131.976 204.991 131.135C205.753 130.638 206.388 129.97 206.845 129.183C207.302 128.397 207.568 127.514 207.622 126.606C207.622 124.946 206.436 124.277 204.991 125.118C204.231 125.609 203.597 126.274 203.144 127.057C202.69 127.841 202.429 128.721 202.382 129.625Z" fill="#585760"/>
<path d="M209.8 120.243C210.36 119.898 210.835 120.243 210.835 120.826C210.815 121.184 210.711 121.533 210.531 121.844C210.351 122.155 210.101 122.42 209.8 122.616C209.218 122.939 208.765 122.616 208.765 122.033C208.773 121.672 208.873 121.319 209.054 121.006C209.235 120.694 209.491 120.431 209.8 120.243Z" fill="#585760"/>
<path d="M209.412 125.937C209.994 125.614 210.447 125.937 210.447 126.541C210.426 126.899 210.321 127.248 210.141 127.558C209.962 127.869 209.712 128.133 209.412 128.331C208.851 128.654 208.377 128.331 208.377 127.727C208.402 127.369 208.508 127.022 208.687 126.712C208.867 126.402 209.115 126.137 209.412 125.937Z" fill="#585760"/>
<path d="M205.767 131.63C206.328 131.285 206.802 131.63 206.802 132.212C206.779 132.57 206.674 132.918 206.494 133.228C206.315 133.539 206.066 133.804 205.767 134.002C205.185 134.326 204.732 134.002 204.732 133.42C204.741 133.059 204.84 132.706 205.021 132.393C205.202 132.08 205.459 131.818 205.767 131.63Z" fill="#585760"/>
<path d="M200.98 133.938C201.563 133.614 202.015 133.938 202.015 134.541C201.994 134.9 201.889 135.248 201.71 135.559C201.53 135.869 201.28 136.134 200.98 136.331C200.42 136.655 199.945 136.331 199.945 135.727C199.97 135.37 200.076 135.023 200.255 134.713C200.435 134.402 200.683 134.137 200.98 133.938Z" fill="#585760"/>
<path d="M197.875 131.543C198.435 131.219 198.91 131.543 198.91 132.147C198.885 132.504 198.779 132.851 198.599 133.161C198.42 133.472 198.172 133.737 197.875 133.936C197.292 134.26 196.839 133.936 196.839 133.333C196.861 132.974 196.966 132.626 197.145 132.315C197.325 132.005 197.575 131.74 197.875 131.543Z" fill="#585760"/>
<path d="M134.971 155.868C134.971 167.168 142.971 171.718 152.826 166.025C162.681 160.332 170.682 146.617 170.682 135.252C170.682 123.888 162.681 119.381 152.826 125.074C142.971 130.767 134.971 144.46 134.971 155.868Z" fill="#23222D"/>
<path d="M153.15 174.716L139.37 166.672L166.692 124.557L178.984 131.608L153.15 174.716Z" fill="#23222D"/>
<path d="M147.695 163.134C147.695 174.434 155.696 179.006 165.551 173.313C175.406 167.62 183.384 153.905 183.384 142.519C183.384 131.133 175.406 126.647 165.551 132.34C155.696 138.033 147.695 151.813 147.695 163.134Z" fill="#292833"/>
<path d="M149.01 162.337C149.01 172.796 156.407 177.023 165.55 171.761C170.35 168.637 174.347 164.426 177.217 159.469C180.087 154.513 181.749 148.95 182.068 143.231C182.068 132.773 174.672 128.546 165.55 133.808C160.744 136.928 156.742 141.138 153.868 146.095C150.995 151.052 149.33 156.617 149.01 162.337Z" fill="#2D2C37"/>
<path d="M153.711 159.642C153.711 167.147 159.016 170.166 165.55 166.392C168.986 164.162 171.847 161.151 173.9 157.607C175.954 154.062 177.142 150.082 177.367 145.992C177.367 138.509 172.084 135.49 165.55 139.264C162.114 141.491 159.251 144.497 157.194 148.038C155.137 151.578 153.944 155.554 153.711 159.642Z" fill="#D8D5DC"/>
<path d="M154.466 159.211C154.466 159.47 154.466 159.686 154.466 159.901C154.768 166.371 159.598 168.958 165.528 165.529C168.743 163.437 171.419 160.617 173.341 157.297C175.263 153.978 176.376 150.253 176.591 146.423C176.591 139.738 172.084 136.849 166.348 139.674L165.528 140.105C163.936 141.022 162.484 142.162 161.215 143.491L160.806 143.922C160.297 144.468 159.821 145.044 159.383 145.647L158.908 146.272C158.279 147.161 157.71 148.09 157.205 149.054L156.881 149.68C156.496 150.438 156.151 151.215 155.846 152.009C155.779 152.156 155.721 152.307 155.673 152.461C154.88 154.624 154.471 156.908 154.466 159.211Z" fill="#929197"/>
<path d="M162.402 163.976C165.622 161.888 168.305 159.069 170.231 155.749C172.157 152.429 173.272 148.702 173.486 144.869C173.615 142.596 172.84 140.363 171.329 138.659C174.456 139.112 176.548 141.872 176.548 146.422C176.336 150.252 175.224 153.979 173.302 157.299C171.38 160.618 168.702 163.438 165.485 165.528C161.776 167.685 158.499 167.469 156.493 165.528C158.582 165.7 160.667 165.152 162.402 163.976Z" fill="#A4A3A8"/>
<path d="M154.466 159.21C154.466 159.469 154.466 159.685 154.466 159.9C154.445 161.899 155.15 163.838 156.45 165.356C157.684 165.905 159.041 166.119 160.384 165.979C161.727 165.839 163.01 165.349 164.105 164.558C167.247 162.506 169.861 159.741 171.734 156.489C173.608 153.237 174.688 149.588 174.887 145.84C174.887 142.153 173.464 139.652 171.264 138.66C169.547 138.484 167.816 138.838 166.305 139.673L165.485 140.104C163.893 141.021 162.441 142.161 161.172 143.49L160.763 143.921C160.254 144.467 159.778 145.043 159.339 145.646L158.865 146.272C158.236 147.16 157.667 148.09 157.161 149.054L156.838 149.679C156.453 150.437 156.108 151.214 155.803 152.008C155.736 152.155 155.678 152.306 155.63 152.461C154.851 154.625 154.457 156.91 154.466 159.21Z" fill="#B6B5B9"/>
<path d="M161.992 163.61C165.143 161.566 167.763 158.804 169.638 155.549C171.512 152.295 172.587 148.643 172.774 144.892C172.868 143.754 172.725 142.608 172.354 141.528C171.983 140.448 171.392 139.457 170.618 138.617C170.862 138.595 171.107 138.595 171.351 138.617C173.508 139.609 174.996 142.11 174.996 145.798C174.796 149.546 173.716 153.194 171.843 156.446C169.969 159.698 167.355 162.463 164.213 164.516C163.119 165.307 161.836 165.797 160.492 165.937C159.149 166.077 157.792 165.862 156.558 165.313L156.299 164.99C158.297 165.17 160.299 164.685 161.992 163.61Z" fill="#D8D5DC"/>
<path d="M154.466 159.211C154.466 159.47 154.466 159.685 154.466 159.901C155.954 162.057 158.779 162.575 162.057 160.677C164.565 159.042 166.654 156.839 168.152 154.247C169.651 151.654 170.518 148.745 170.682 145.755C170.682 142.067 168.936 139.868 166.369 139.674L165.55 140.105C163.958 141.021 162.505 142.162 161.237 143.49L160.827 143.922C160.318 144.467 159.843 145.043 159.404 145.647L158.93 146.272C158.301 147.161 157.732 148.09 157.226 149.054L156.903 149.679C156.518 150.437 156.172 151.215 155.868 152.008C155.801 152.156 155.743 152.307 155.695 152.461C154.894 154.622 154.478 156.907 154.466 159.211Z" fill="#A4A3A8"/>
<path d="M166.498 142.002C166.472 142.474 166.336 142.932 166.1 143.34C165.864 143.749 165.535 144.096 165.139 144.353C164.385 144.806 163.781 144.353 163.781 143.577C163.806 143.106 163.943 142.647 164.179 142.239C164.415 141.83 164.744 141.483 165.139 141.226C165.894 140.773 166.498 141.14 166.498 142.002Z" fill="#22222C"/>
<path d="M159.037 146.272C159.058 146.379 159.102 146.481 159.165 146.57C159.228 146.659 159.31 146.734 159.404 146.79C159.921 147.091 160.784 146.595 161.323 145.668C161.862 144.741 161.862 143.792 161.323 143.512L160.913 143.943C160.404 144.489 159.929 145.065 159.49 145.668L159.037 146.272Z" fill="#22222C"/>
<path d="M155.781 152.46C155.921 152.546 156.081 152.591 156.245 152.591C156.409 152.591 156.569 152.546 156.709 152.46C157.104 152.203 157.433 151.856 157.669 151.447C157.905 151.039 158.042 150.581 158.067 150.109C158.067 149.506 157.765 149.161 157.334 149.161L157.011 149.786C156.626 150.544 156.28 151.321 155.975 152.115C155.905 152.227 155.84 152.342 155.781 152.46Z" fill="#22222C"/>
<path d="M155.954 152.008C156.105 152.288 156.471 152.353 156.859 152.115C157.158 151.921 157.406 151.661 157.586 151.354C157.766 151.047 157.871 150.702 157.894 150.347C157.894 149.722 157.506 149.463 156.989 149.679C156.604 150.437 156.258 151.214 155.954 152.008Z" fill="#585760"/>
<path d="M159.577 145.84C159.577 146.509 160.052 146.768 160.612 146.444C160.915 146.249 161.166 145.985 161.346 145.674C161.526 145.363 161.629 145.013 161.647 144.654C161.647 144.18 161.41 143.9 161.044 143.921C160.535 144.467 160.059 145.043 159.62 145.646C159.587 145.705 159.572 145.773 159.577 145.84Z" fill="#585760"/>
<path d="M165.291 141.743C165.873 141.42 166.326 141.743 166.326 142.326C166.317 142.687 166.218 143.04 166.037 143.353C165.856 143.665 165.6 143.928 165.291 144.116C164.73 144.439 164.256 144.115 164.256 143.533C164.276 143.175 164.38 142.826 164.56 142.515C164.739 142.204 164.99 141.939 165.291 141.743Z" fill="#585760"/>
<path d="M155.264 155.868C155.803 154.94 156.666 154.444 157.205 154.746C157.744 155.048 157.744 156.04 157.205 156.903C156.666 157.765 155.803 158.326 155.264 158.024C154.725 157.722 154.833 156.881 155.264 155.868Z" fill="#22222C"/>
<path d="M158.067 159.686C158.093 159.215 158.229 158.756 158.465 158.348C158.701 157.939 159.03 157.592 159.426 157.335C160.181 156.904 160.806 157.335 160.806 158.112C160.776 158.584 160.636 159.043 160.396 159.451C160.157 159.86 159.824 160.206 159.426 160.462C158.671 160.893 158.067 160.548 158.067 159.686Z" fill="#22222C"/>
<path d="M163.242 158.24C162.725 157.939 162.725 156.947 163.242 156.084C163.76 155.221 164.644 154.682 165.183 154.984C165.722 155.286 165.722 156.278 165.183 157.141C164.644 158.003 163.889 158.542 163.242 158.24Z" fill="#22222C"/>
<path d="M167.857 152.462C167.124 152.893 166.499 152.462 166.499 151.685C166.528 151.215 166.665 150.758 166.901 150.35C167.137 149.942 167.464 149.594 167.857 149.335C168.612 148.903 169.237 149.335 169.237 150.111C169.208 150.584 169.067 151.043 168.828 151.451C168.588 151.859 168.255 152.205 167.857 152.462Z" fill="#22222C"/>
<path d="M169.216 145.733C168.677 146.66 167.814 147.156 167.275 146.854C166.736 146.553 166.758 145.561 167.275 144.698C167.793 143.835 168.677 143.296 169.216 143.598C169.755 143.9 169.755 144.827 169.216 145.733Z" fill="#22222C"/>
<path d="M159.577 153.172C159.577 155.135 160.978 155.933 162.682 154.941C163.585 154.357 164.337 153.569 164.876 152.639C165.416 151.71 165.728 150.666 165.787 149.593C165.787 147.63 164.407 146.832 162.682 147.824C161.783 148.412 161.034 149.201 160.495 150.13C159.955 151.058 159.641 152.1 159.577 153.172Z" fill="#22222C"/>
<path d="M160.978 153.539C160.978 155.199 162.164 155.868 163.609 155.027C164.368 154.529 165 153.86 165.453 153.073C165.906 152.287 166.168 151.405 166.219 150.498C166.219 148.838 165.054 148.169 163.609 149.01C162.848 149.507 162.213 150.176 161.756 150.962C161.299 151.749 161.033 152.631 160.978 153.539Z" fill="#585760"/>
<path d="M168.397 144.137C168.979 143.814 169.432 144.137 169.432 144.72C169.423 145.081 169.324 145.434 169.143 145.747C168.962 146.06 168.705 146.322 168.397 146.51C167.836 146.855 167.362 146.51 167.362 145.927C167.381 145.569 167.485 145.22 167.665 144.909C167.845 144.598 168.096 144.333 168.397 144.137Z" fill="#585760"/>
<path d="M168.03 149.852C168.591 149.507 169.066 149.852 169.066 150.434C169.042 150.792 168.937 151.14 168.758 151.45C168.578 151.761 168.329 152.025 168.03 152.224C167.448 152.547 166.995 152.224 166.995 151.62C167.008 151.263 167.109 150.914 167.289 150.605C167.47 150.297 167.725 150.038 168.03 149.852Z" fill="#585760"/>
<path d="M164.363 155.522C164.946 155.199 165.399 155.522 165.399 156.104C165.39 156.465 165.29 156.819 165.11 157.131C164.929 157.444 164.672 157.706 164.363 157.894C163.803 158.218 163.328 157.894 163.328 157.312C163.348 156.953 163.452 156.604 163.632 156.293C163.812 155.982 164.062 155.718 164.363 155.522Z" fill="#585760"/>
<path d="M159.577 157.853C160.138 157.508 160.612 157.853 160.612 158.435C160.581 158.785 160.472 159.124 160.293 159.426C160.114 159.728 159.869 159.987 159.577 160.182C158.995 160.505 158.542 160.182 158.542 159.578C158.561 159.228 158.666 158.888 158.846 158.587C159.026 158.287 159.277 158.035 159.577 157.853Z" fill="#585760"/>
<path d="M156.471 155.459C157.053 155.114 157.506 155.459 157.506 156.041C157.485 156.399 157.38 156.748 157.2 157.058C157.021 157.369 156.771 157.634 156.471 157.831C155.911 158.154 155.436 157.831 155.436 157.227C155.459 156.872 155.565 156.527 155.744 156.22C155.924 155.913 156.173 155.653 156.471 155.459Z" fill="#585760"/>
<path d="M85.6748 223.042L73.0381 215.731V217.802L85.6748 225.09V223.042Z" fill="#B4AEBC"/>
<path d="M73.0381 215.732L85.6748 223.042L113.795 206.825L101.137 199.515L73.0381 215.732Z" fill="#F3EDF2"/>
<path d="M127.295 137.948L108.038 192.765L78.8829 209.585L72.4135 197.747L70.4512 167.75L93.9995 103.23L77.7184 169.842L111.92 150.111L127.295 137.948Z" fill="#0F3015"/>
<path d="M100.339 188.991L102.646 190.328L99.886 205.1L97.5786 203.763L100.339 188.991Z" fill="#D8D5DC"/>
<path d="M89.3411 195.353L91.6484 196.69L88.8882 211.461L86.5808 210.124L89.3411 195.353Z" fill="#D8D5DC"/>
<path d="M14.0814 175.643H12.5287V170.619C12.5292 170.361 12.4616 170.107 12.3329 169.884C12.2041 169.661 12.0188 169.475 11.7955 169.346C11.568 169.22 11.3119 169.153 11.0516 169.153C10.7912 169.153 10.5352 169.22 10.3076 169.346C9.84911 169.626 9.32415 169.779 8.78692 169.789C8.24969 169.798 7.71964 169.664 7.25151 169.401C6.78337 169.137 6.3941 168.753 6.12389 168.288C5.85368 167.824 5.71231 167.296 5.71438 166.759V129.237C5.71579 127.253 6.23847 125.304 7.23005 123.586C8.22163 121.868 9.6473 120.44 11.3643 119.446L28.0335 109.785L28.8099 111.122L12.0759 120.783C10.5938 121.641 9.36345 122.874 8.50807 124.358C7.6527 125.841 7.2024 127.524 7.20232 129.237V166.759C7.19807 167.02 7.26381 167.278 7.39273 167.505C7.52164 167.733 7.70904 167.922 7.93551 168.052C8.15913 168.179 8.41172 168.246 8.6687 168.246C8.92568 168.246 9.17828 168.179 9.40189 168.052C9.85924 167.768 10.3845 167.61 10.9231 167.597C11.4617 167.584 11.994 167.715 12.4649 167.977C12.9357 168.239 13.3279 168.622 13.6008 169.086C13.8737 169.551 14.0173 170.08 14.0167 170.619L14.0814 175.643Z" fill="#6F9C72"/>
<path d="M26.6968 154.725L22.8368 156.946L18.718 172.516L22.578 170.295L26.6968 154.725Z" fill="#D8D5DC"/>
<path d="M37.6947 148.364L33.8346 150.607L29.7158 166.155L33.5758 163.934L37.6947 148.364Z" fill="#D8D5DC"/>
<path d="M75.8634 94.7767L56.5848 149.572L27.4513 166.414L20.9819 154.575V108.19L32.8424 78.5603L26.2868 126.67L60.4879 106.917L75.8634 94.7767Z" fill="#0F3015"/>
<path d="M148.772 67.1951L88.6509 101.892V124.513L148.772 89.7946V67.1951Z" fill="#1C1922"/>
<path d="M64.3044 118.368L262.201 4.09839V-15.2449L64.3044 99.0249V118.368Z" fill="#222428"/>
<path d="M93.1147 -4.8511L79.3782 98.7012L225.477 14.3628V-81.2754L93.1147 -4.8511Z" fill="#F3EDF2"/>
<path d="M88.1553 76.704L217.175 2.2205V-70.1497L98.3768 -1.55326L88.1553 76.704Z" fill="#D8D5DC"/>
<path d="M91.8865 63.0331L99.6497 1.57457L209.973 -62.1267V-5.15353L91.8865 63.0331Z" fill="#F3EDF2"/>
<path d="M144.481 158.025C147.932 148.472 152.525 136.892 161.604 131.652C166.175 129.021 171.329 124.363 172.386 127.058C172.558 127.447 172.688 127.856 172.839 128.266L184.095 134.735C183.525 132.328 182.805 129.958 181.939 127.641C181.292 126.606 171.868 122.12 170.984 121.365C170.038 120.569 168.967 119.935 167.814 119.489C163.803 117.937 158.757 118.713 153.625 121.646C144.05 127.188 135.64 139.415 133.16 151.426L144.481 158.025Z" fill="#232321"/>
<path d="M121.084 172.71L134.626 180.84C134.626 180.84 142.217 174.371 136.783 149.054L122.097 140.04C122.097 140.277 126.173 163.761 119.941 171.826L121.084 172.71Z" fill="#2F2F2D"/>
<path d="M135.856 181.745C142.519 173.119 138.53 149.808 138.357 148.816L136.934 149.075C136.934 149.312 140.988 172.796 134.777 180.861L135.856 181.745Z" fill="#232321"/>
<path d="M146.639 158.391C148.989 146.962 156.99 135.317 166.047 130.055C170.597 127.424 174.974 126.713 178.381 127.899C179.802 128.501 181.065 129.42 182.074 130.586C183.083 131.753 183.812 133.135 184.204 134.627L186.36 133.958C185.876 132.16 184.984 130.497 183.753 129.098C182.523 127.7 180.988 126.603 179.266 125.893C175.255 124.341 170.209 125.117 165.076 128.05C155.502 133.57 147.091 145.819 144.612 157.809L146.639 158.391Z" fill="#2F2F2D"/>
<path d="M287.863 49.3614V60.1436C287.863 62.4941 267.269 71.2709 269.318 72.4353L278.806 91.6061C279.475 91.9943 307.94 74.9799 308.5 74.5487C308.729 74.3791 308.915 74.158 309.042 73.9032C309.17 73.6484 309.235 73.3671 309.233 73.0823V62.3001C309.219 61.159 308.909 60.0411 308.335 59.0549C307.76 58.0688 306.941 57.2478 305.956 56.6718L290.623 47.8303C290.348 47.6755 290.037 47.5938 289.72 47.593C289.404 47.5922 289.093 47.6724 288.816 47.8258C288.539 47.9792 288.307 48.2009 288.14 48.4697C287.973 48.7385 287.878 49.0454 287.863 49.3614Z" fill="#17191D"/>
<path d="M258.924 66.0739V76.8561C258.914 78.0134 259.216 79.152 259.796 80.1534C260.376 81.1547 261.215 81.982 262.223 82.5491L277.556 91.412C277.835 91.5706 278.15 91.6531 278.471 91.6514C278.792 91.6497 279.107 91.5638 279.384 91.4022C279.661 91.2407 279.891 91.0091 280.051 90.7308C280.211 90.4525 280.295 90.1372 280.294 89.8163V79.0341C280.293 77.8815 279.989 76.7495 279.414 75.7507C278.839 74.7519 278.013 73.9211 277.017 73.3411L261.684 64.4997C261.406 64.3366 261.09 64.2498 260.768 64.2478C260.446 64.2459 260.129 64.3289 259.849 64.4886C259.569 64.6482 259.336 64.8788 259.174 65.1571C259.011 65.4354 258.925 65.7516 258.924 66.0739Z" fill="#0C0C0C"/>
<path d="M280.294 89.8603L309.234 73.1478V62.3225L280.294 79.0134V89.8603Z" fill="#1E2024"/>
<path d="M354.692 13.392L352.471 12.1197L265.825 -18.9331L258.428 -13.0676L329.483 27.9479L354.692 13.392Z" fill="#2A2A28"/>
<path d="M331.013 24.4978L262.201 -15.2454L262.374 -41.7696L263.776 -82.8499L332.588 -43.1282L331.186 -2.048L331.013 24.4978Z" fill="#B5AEBC"/>
<path d="M325.17 8.73448L260.369 -28.6582L248.12 -9.42275L312.964 28.0131L325.17 8.73448Z" fill="#CC454C"/>
<path d="M290.537 -7.87053L283.658 -27.6235L258.428 -13.0676L251.657 -7.15891L245.36 7.95774V20.4435L290.537 -5.6494V-7.87053Z" fill="#383838"/>
<path d="M287.066 3.19243C287.066 14.5137 279.087 28.2934 269.232 33.9864C259.377 39.6794 251.377 35.1078 251.377 23.808C251.377 12.5083 259.377 -1.29297 269.232 -6.98597C279.087 -12.679 287.066 -8.02106 287.066 3.19243Z" fill="#0C0C0C"/>
<path d="M281.049 6.68545C280.82 10.7721 279.631 14.7473 277.577 18.288C275.524 21.8288 272.665 24.8355 269.231 27.0638C262.762 30.8376 257.414 27.8186 257.414 20.3357C257.639 16.2453 258.827 12.2659 260.88 8.7211C262.934 5.17631 265.795 2.16626 269.231 -0.0642099C275.765 -3.83798 281.049 -0.818962 281.049 6.68545Z" fill="#B7B4BA"/>
<path d="M280.337 7.07347C280.12 10.9049 279.003 14.6312 277.077 17.9506C275.152 21.27 272.471 24.0891 269.253 26.1795C263.129 29.6945 258.169 26.8696 258.169 19.8612C258.379 16.0282 259.493 12.2992 261.42 8.97878C263.346 5.65832 266.03 2.84042 269.253 0.755094C275.356 -2.73834 280.337 0.086598 280.337 7.07347Z" fill="#929197"/>
<path d="M277.297 8.84194C277.14 11.6341 276.329 14.3501 274.928 16.7703C273.526 19.1904 271.575 21.2466 269.232 22.7726C264.768 25.3387 261.167 23.2685 261.167 18.1578C261.319 15.3678 262.13 12.6535 263.531 10.2362C264.933 7.81903 266.886 5.7674 269.232 4.24872C273.695 1.66099 277.297 3.73118 277.297 8.84194Z" fill="#B5AAB1"/>
<path d="M272.509 11.6025C272.448 12.7392 272.12 13.8455 271.55 14.831C270.98 15.8166 270.186 16.6537 269.231 17.2739C267.42 18.3306 265.932 17.4895 265.932 15.3978C266.002 14.2608 266.337 13.1558 266.91 12.1711C267.482 11.1864 268.277 10.3492 269.231 9.72635C271.043 8.6697 272.509 9.51071 272.509 11.6025Z" fill="#0C0C0C"/>
<path d="M265.393 9.23064C265.393 9.85601 265.824 10.0932 266.385 9.79131C266.67 9.60423 266.906 9.35231 267.075 9.05618C267.243 8.76006 267.34 8.42817 267.355 8.08773C267.355 7.46236 266.924 7.22515 266.385 7.52705C266.096 7.71171 265.855 7.96258 265.683 8.25886C265.51 8.55513 265.411 8.88827 265.393 9.23064Z" fill="#0C0C0C"/>
<path d="M270.461 5.15437C270.073 5.82286 270.073 6.53448 270.461 6.75013C270.849 6.96577 271.475 6.59918 271.863 5.95225C272.251 5.30531 272.229 4.57213 271.863 4.35648C271.496 4.14084 270.849 4.48587 270.461 5.15437Z" fill="#0C0C0C"/>
<path d="M274.817 5.88809C274.531 6.07064 274.292 6.31812 274.12 6.61039C273.948 6.90266 273.847 7.23147 273.825 7.57011C273.825 8.19548 274.278 8.45426 274.817 8.13079C275.099 7.94583 275.334 7.69731 275.503 7.40518C275.671 7.11306 275.769 6.78548 275.788 6.44876C275.788 5.82339 275.357 5.56462 274.817 5.88809Z" fill="#0C0C0C"/>
<path d="M275.895 11.0848C275.507 10.8476 274.881 11.2142 274.493 11.8827C274.105 12.5512 274.105 13.2628 274.493 13.4785C274.881 13.6941 275.507 13.3275 275.895 12.6806C276.283 12.0336 276.261 11.3867 275.895 11.0848Z" fill="#0C0C0C"/>
<path d="M273.071 17.6837C273.071 17.0799 272.618 16.8212 272.079 17.1231C271.794 17.3102 271.557 17.5621 271.389 17.8582C271.22 18.1543 271.124 18.4862 271.108 18.8267C271.108 19.452 271.539 19.6892 272.079 19.3873C272.367 19.2027 272.608 18.9518 272.781 18.6555C272.953 18.3593 273.052 18.0261 273.071 17.6837Z" fill="#0C0C0C"/>
<path d="M268.003 21.845C268.37 21.1981 268.37 20.4864 268.003 20.2708C267.636 20.0551 266.989 20.4002 266.601 21.0687C266.213 21.7372 266.213 22.4272 266.601 22.6644C266.989 22.9017 267.615 22.5135 268.003 21.845Z" fill="#0C0C0C"/>
<path d="M263.646 21.1338C263.935 20.9492 264.175 20.6983 264.348 20.402C264.52 20.1058 264.62 19.7726 264.638 19.4303C264.638 18.8049 264.185 18.5677 263.646 18.8696C263.361 19.0567 263.125 19.3086 262.956 19.6047C262.787 19.9008 262.691 20.2327 262.676 20.5732C262.676 21.177 263.085 21.4357 263.646 21.1338Z" fill="#0C0C0C"/>
<path d="M262.568 15.9362C262.956 16.1518 263.582 15.7852 263.97 15.1167C264.358 14.4482 264.336 13.7582 263.97 13.5425C263.603 13.3269 262.956 13.6719 262.568 14.3404C262.18 15.0089 262.18 15.699 262.568 15.9362Z" fill="#0C0C0C"/>
<path d="M271.454 1.22984C271.324 1.76895 271.712 2.13554 272.359 2.02772C272.679 1.98169 272.982 1.8517 273.236 1.65096C273.489 1.45022 273.686 1.18588 273.804 0.884806C273.955 0.345695 273.545 0.000658877 272.898 0.0869165C272.58 0.137074 272.279 0.268614 272.026 0.468825C271.773 0.669036 271.576 0.931154 271.454 1.22984Z" fill="#0C0C0C"/>
<path d="M277.577 2.76076C277.381 3.00772 277.261 3.30588 277.23 3.61949C277.2 3.93311 277.26 4.2489 277.404 4.52904C277.445 4.64682 277.516 4.75186 277.61 4.83367C277.704 4.91547 277.818 4.97117 277.94 4.99518C278.062 5.0192 278.189 5.0107 278.307 4.97052C278.425 4.93034 278.53 4.8599 278.612 4.76625C278.803 4.51698 278.92 4.21925 278.951 3.90674C278.981 3.59424 278.924 3.27944 278.785 2.99797C278.504 2.41573 277.944 2.3079 277.577 2.76076Z" fill="#0C0C0C"/>
<path d="M278.806 10.5453C278.396 10.5453 277.879 11.3648 277.642 12.2489C277.405 13.1331 277.534 13.78 277.922 13.7369C278.31 13.6937 278.828 12.9174 279.065 12.0333C279.302 11.1491 279.194 10.4806 278.806 10.5453Z" fill="#0C0C0C"/>
<path d="M274.407 20.0124C274.234 19.6674 273.587 20.0124 272.962 20.6594C272.336 21.3063 271.97 22.1904 272.142 22.5139C272.315 22.8374 272.962 22.5139 273.587 21.8885C274.212 21.2632 274.601 20.4221 274.407 20.0124Z" fill="#0C0C0C"/>
<path d="M266.988 25.7703C267.139 25.2312 266.73 24.8862 266.104 24.9724C265.786 25.0226 265.485 25.1541 265.232 25.3543C264.979 25.5545 264.782 25.8166 264.659 26.1153C264.509 26.6544 264.918 27.021 265.565 26.9132C265.884 26.8701 266.185 26.741 266.436 26.5396C266.686 26.3382 266.878 26.0722 266.988 25.7703Z" fill="#0C0C0C"/>
<path d="M260.93 24.3262C261.121 24.0769 261.238 23.7792 261.269 23.4667C261.299 23.1542 261.242 22.8394 261.102 22.5579C261.064 22.4385 260.995 22.3313 260.902 22.2471C260.81 22.163 260.696 22.1048 260.574 22.0785C260.451 22.0523 260.324 22.0589 260.205 22.0976C260.085 22.1363 259.979 22.2059 259.895 22.2991C259.704 22.5484 259.587 22.8461 259.556 23.1587C259.526 23.4712 259.583 23.786 259.722 24.0674C259.76 24.1868 259.829 24.294 259.922 24.3782C260.015 24.4624 260.129 24.5206 260.251 24.5468C260.374 24.5731 260.501 24.5665 260.62 24.5278C260.739 24.489 260.846 24.4195 260.93 24.3262Z" fill="#0C0C0C"/>
<path d="M259.657 16.4761C260.045 16.4761 260.563 15.6567 260.822 14.7725C261.081 13.8884 260.822 13.2199 260.541 13.2846C260.261 13.3493 259.636 14.104 259.377 14.9882C259.118 15.8723 259.269 16.5193 259.657 16.4761Z" fill="#0C0C0C"/>
<path d="M264.035 6.92332C264.208 7.26835 264.876 6.92332 265.501 6.27638C266.127 5.62945 266.493 4.76687 266.321 4.42184C266.148 4.07681 265.48 4.42184 264.855 5.06877C264.229 5.71571 263.863 6.57828 264.035 6.92332Z" fill="#0C0C0C"/>
<path d="M155.975 78.9048C155.975 90.2045 147.975 103.984 138.12 109.677C128.265 115.37 120.286 110.82 120.286 99.4988C120.286 88.1775 128.265 74.4194 138.12 68.7264C147.975 63.0334 155.975 67.5835 155.975 78.9048Z" fill="#0C0C0C"/>
<path d="M149.937 82.3764C149.712 86.4639 148.524 90.4403 146.471 93.9816C144.417 97.523 141.556 100.529 138.12 102.755C131.651 106.529 126.303 103.51 126.303 96.0267C126.528 91.9363 127.716 87.9569 129.769 84.4121C131.823 80.8673 134.684 77.8572 138.12 75.6268C144.654 71.7667 149.937 74.872 149.937 82.3764Z" fill="#B7B4BA"/>
<path d="M149.204 82.8081C148.994 86.647 147.88 90.3819 145.954 93.7093C144.028 97.0367 141.344 99.8626 138.12 101.957C131.996 105.494 127.036 102.647 127.036 95.639C127.25 91.8068 128.365 88.0791 130.291 84.7592C132.217 81.4393 134.9 78.6208 138.12 76.5329C144.244 72.9532 149.204 75.7781 149.204 82.8081Z" fill="#929197"/>
<path d="M147.997 83.4986C147.804 86.9114 146.809 90.2307 145.093 93.187C143.377 96.1433 140.988 98.6532 138.12 100.513C132.664 103.661 128.265 101.138 128.265 94.8846C128.455 91.4737 129.447 88.1556 131.159 85.1994C132.871 82.2433 135.256 79.7324 138.12 77.8703C143.576 74.7219 147.997 77.2449 147.997 83.4986Z" fill="#B7B4BA"/>
<path d="M147.112 83.9931C146.943 87.1068 146.041 90.1366 144.478 92.8349C142.915 95.5333 140.737 97.8238 138.12 99.5195C133.16 102.388 129.127 100.102 129.127 94.3872C129.303 91.2751 130.208 88.248 131.77 85.5507C133.332 82.8534 135.508 80.5616 138.12 78.8608C143.101 76.079 147.112 78.2354 147.112 83.9931Z" fill="#B2AAAB"/>
<path d="M142.325 86.8621C142.23 88.3306 141.79 89.7559 141.041 91.0223C140.291 92.2887 139.254 93.3606 138.012 94.1509C135.683 95.4879 133.807 94.4097 133.807 91.7357C133.885 90.2786 134.307 88.8606 135.038 87.5976C135.769 86.3346 136.788 85.2623 138.012 84.4685C140.449 83.0237 142.325 84.1019 142.325 86.8621Z" fill="#0C0C0C"/>
<path d="M133.916 85.2234C133.916 86.086 134.519 86.4311 135.274 85.9998C135.67 85.7425 135.999 85.3956 136.235 84.9871C136.471 84.5787 136.607 84.1203 136.633 83.6493C136.633 82.7867 136.029 82.4416 135.274 82.8729C134.879 83.1302 134.55 83.4771 134.313 83.8856C134.077 84.294 133.941 84.7524 133.916 85.2234Z" fill="#22222C"/>
<path d="M139.09 80.6947C138.551 81.6005 138.551 82.5924 139.09 82.8512C139.63 83.11 140.492 82.6356 141.01 81.7298C141.527 80.8241 141.549 79.8106 141.01 79.5734C140.471 79.3362 139.63 79.7675 139.09 80.6947Z" fill="#22222C"/>
<path d="M143.705 81.1478C143.306 81.4026 142.973 81.7485 142.733 82.1571C142.493 82.5657 142.353 83.0253 142.325 83.4983C142.325 84.3609 142.929 84.7059 143.684 84.2746C144.079 84.0174 144.408 83.6704 144.644 83.262C144.88 82.8536 145.017 82.3952 145.042 81.9241C145.064 81.0615 144.482 80.6949 143.705 81.1478Z" fill="#22222C"/>
<path d="M145.042 86.3012C144.525 85.9993 143.662 86.4953 143.123 87.4226C142.584 88.3499 142.584 89.3203 143.123 89.579C143.662 89.8378 144.525 89.3849 145.042 88.4792C145.56 87.5735 145.581 86.6031 145.042 86.3012Z" fill="#22222C"/>
<path d="M142.324 93.1597C142.324 92.2972 141.699 91.9521 140.944 92.3834C140.549 92.6407 140.22 92.9876 139.984 93.3961C139.748 93.8045 139.611 94.2629 139.586 94.734C139.586 95.6181 140.19 95.9631 140.944 95.5103C141.343 95.2542 141.675 94.9079 141.915 94.4996C142.155 94.0913 142.295 93.6323 142.324 93.1597Z" fill="#22222C"/>
<path d="M137.149 97.6442C137.688 96.7169 137.688 95.7249 137.149 95.4877C136.61 95.2505 135.769 95.6818 135.23 96.6091C134.691 97.5363 134.691 98.5067 135.23 98.7655C135.769 99.0243 136.632 98.6146 137.149 97.6442Z" fill="#22222C"/>
<path d="M132.535 97.2556C132.933 96.9995 133.265 96.6533 133.505 96.245C133.745 95.8367 133.885 95.3777 133.915 94.9051C133.915 94.0425 133.289 93.6975 132.535 94.1288C132.139 94.386 131.81 94.733 131.574 95.1414C131.338 95.5499 131.202 96.0082 131.176 96.4793C131.176 97.3419 131.78 97.6438 132.535 97.2556Z" fill="#22222C"/>
<path d="M131.198 92.0806C131.737 92.4041 132.6 91.8865 133.117 90.9808C133.635 90.0751 133.656 89.0616 133.117 88.8244C132.578 88.5872 131.737 89.0185 131.198 89.9457C130.659 90.873 130.659 91.7787 131.198 92.0806Z" fill="#22222C"/>
<path d="M108.022 119.588C114.971 107.635 115.008 94.6919 108.105 90.6783C101.202 86.6647 89.9718 93.1008 83.0225 105.054C76.0732 117.006 76.036 129.95 82.9393 133.963C89.8426 137.977 101.072 131.541 108.022 119.588Z" fill="#0C0C0C"/>
<path d="M108.555 106.271C108.321 110.359 107.13 114.335 105.077 117.879C103.025 121.422 100.168 124.434 96.7378 126.671C90.2685 130.423 84.8989 127.425 84.8989 119.921C85.1318 115.83 86.325 111.851 88.3818 108.307C90.4386 104.763 93.3012 101.753 96.7378 99.5211C103.25 95.7688 108.555 98.7879 108.555 106.271Z" fill="#B7B4BA"/>
<path d="M107.822 106.701C107.607 110.531 106.494 114.256 104.572 117.575C102.65 120.894 99.9738 123.715 96.7596 125.807C90.6354 129.344 85.6755 126.519 85.6755 119.489C85.8928 115.658 87.0095 111.931 88.9352 108.612C90.8609 105.292 93.5414 102.473 96.7596 100.383C102.841 96.8463 107.822 99.6713 107.822 106.701Z" fill="#929197"/>
<path d="M106.593 107.391C106.401 110.805 105.409 114.125 103.698 117.085C101.986 120.044 99.6017 122.559 96.7383 124.427C91.2825 127.554 86.8618 125.053 86.8618 118.799C87.0509 115.385 88.0441 112.065 89.7605 109.108C91.4769 106.151 93.8678 103.642 96.7383 101.785C102.173 98.6362 106.593 101.138 106.593 107.391Z" fill="#B7B4BA"/>
<path d="M105.666 107.91C105.513 111.031 104.625 114.072 103.073 116.786C101.522 119.499 99.3515 121.807 96.7388 123.522C91.7574 126.412 87.7249 124.104 87.7249 118.411C87.8975 115.296 88.804 112.266 90.3705 109.568C91.937 106.869 94.1191 104.58 96.7388 102.885C101.699 99.9092 105.666 102.195 105.666 107.91Z" fill="#B2AAAB"/>
<path d="M100.943 110.582C100.853 112.049 100.415 113.473 99.6645 114.737C98.9145 116.001 97.8742 117.068 96.6298 117.849C94.3008 119.186 92.3169 118.108 92.3169 115.434C92.4138 113.969 92.8548 112.547 93.6042 111.285C94.3535 110.022 95.3901 108.954 96.6298 108.167C99.0666 106.916 100.943 107.994 100.943 110.582Z" fill="#0C0C0C"/>
<path d="M92.5122 109.117C92.5122 110.001 93.116 110.346 93.8708 109.914C94.2707 109.655 94.6039 109.305 94.8437 108.893C95.0834 108.481 95.2229 108.018 95.2509 107.542C95.2509 106.68 94.6255 106.335 93.8708 106.766C93.4765 107.025 93.1483 107.372 92.9124 107.78C92.6764 108.188 92.5394 108.646 92.5122 109.117Z" fill="#22222C"/>
<path d="M97.6863 104.588C97.1687 105.515 97.1687 106.507 97.6863 106.745C98.2038 106.982 99.0879 106.55 99.6271 105.623C100.166 104.696 100.145 103.726 99.6271 103.467C99.1095 103.208 98.2254 103.682 97.6863 104.588Z" fill="#22222C"/>
<path d="M102.302 105.041C101.906 105.298 101.577 105.645 101.341 106.054C101.105 106.462 100.969 106.92 100.943 107.391C100.943 108.254 101.547 108.599 102.302 108.168C102.7 107.912 103.032 107.565 103.272 107.157C103.512 106.749 103.652 106.29 103.682 105.817C103.682 104.955 103.056 104.61 102.302 105.041Z" fill="#22222C"/>
<path d="M103.66 110.196C103.121 109.894 102.259 110.39 101.72 111.317C101.18 112.244 101.202 113.236 101.72 113.474C102.237 113.711 103.121 113.279 103.66 112.352C104.199 111.425 104.199 110.584 103.66 110.196Z" fill="#22222C"/>
<path d="M100.943 117.052C100.943 116.19 100.339 115.823 99.5846 116.276C99.1892 116.533 98.8601 116.88 98.624 117.289C98.3879 117.697 98.2516 118.155 98.2261 118.626C98.2261 119.489 98.8299 119.834 99.5846 119.403C99.9801 119.146 100.309 118.799 100.545 118.39C100.781 117.982 100.918 117.523 100.943 117.052Z" fill="#22222C"/>
<path d="M95.767 121.602C96.3061 120.675 96.3061 119.683 95.767 119.446C95.2279 119.209 94.3653 119.64 93.8262 120.567C93.2871 121.495 93.3087 122.487 93.8262 122.724C94.3438 122.961 95.2279 122.53 95.767 121.602Z" fill="#22222C"/>
<path d="M91.152 121.149C91.5475 120.891 91.8766 120.545 92.1127 120.136C92.3487 119.728 92.4851 119.269 92.5106 118.798C92.5106 117.936 91.9068 117.591 91.152 118.022C90.7566 118.279 90.4274 118.626 90.1914 119.034C89.9553 119.443 89.819 119.901 89.7935 120.372C89.7935 121.235 90.3973 121.58 91.152 121.149Z" fill="#22222C"/>
<path d="M89.7937 115.995C90.3329 116.297 91.1954 115.801 91.7345 114.874C92.2737 113.947 92.2737 112.955 91.7345 112.718C91.1954 112.48 90.3329 112.912 89.7937 113.839C89.2546 114.766 89.2762 115.694 89.7937 115.995Z" fill="#22222C"/>
<path d="M245.36 20.4435L247.948 18.9556V9.53194L252.476 -1.7678L258.428 -6.81387L282.278 -20.5935L287.928 -6.36102L290.537 -7.87053L283.658 -27.6235L258.428 -13.0676L251.657 -7.15891L245.36 7.95774V20.4435Z" fill="#2F2F2D"/>
<path d="M246.115 115.544L233.176 93.0523L256.638 80.1136C257.697 79.5332 258.9 79.2693 260.104 79.3534C261.308 79.4376 262.463 79.8661 263.431 80.588C266.105 82.3183 268.333 84.6558 269.933 87.4101C271.533 90.1643 272.46 93.2576 272.639 96.4379C272.749 97.5473 272.571 98.6662 272.121 99.6864C271.671 100.707 270.966 101.593 270.073 102.26L246.115 115.544Z" fill="#181818"/>
<path d="M228.777 100.383C228.829 103.587 229.673 106.728 231.235 109.526C232.853 112.324 235.182 114.645 237.985 116.254C239.301 116.778 240.722 116.987 242.134 116.863C243.546 116.74 244.909 116.288 246.115 115.543C247.015 114.876 247.727 113.987 248.18 112.963C248.634 111.938 248.814 110.813 248.702 109.699C248.524 106.515 247.597 103.419 245.997 100.661C244.397 97.9037 242.169 95.5623 239.494 93.8273C238.6 93.1848 237.559 92.777 236.466 92.6414C235.374 92.5058 234.265 92.6466 233.241 93.051C231.982 93.8464 230.924 94.9221 230.15 96.1939C229.375 97.4658 228.905 98.8994 228.777 100.383Z" fill="#1D1D1D"/>
<path d="M229.273 101.656C229.435 104.252 230.201 106.774 231.512 109.021C232.823 111.267 234.641 113.176 236.821 114.594C240.983 116.988 244.369 115.069 244.369 110.281C244.207 107.686 243.441 105.163 242.13 102.917C240.819 100.67 239.001 98.7611 236.821 97.3428C232.659 94.9492 229.273 96.8684 229.273 101.656Z" fill="#1D1D1D"/>
<path d="M191.664 52.1221C191.485 55.3026 190.56 58.3963 188.964 61.1534C187.368 63.9105 185.146 66.2536 182.478 67.9935C177.389 70.9262 173.27 68.5757 173.27 62.7318C173.448 59.5514 174.375 56.4582 175.976 53.7039C177.576 50.9497 179.804 48.6122 182.478 46.8819C187.61 43.9492 191.664 46.2997 191.664 52.1221Z" fill="#0C0C0C"/>
<path d="M211.482 50.1386L240.421 33.4262V18.9133L211.482 35.6257V50.1386Z" fill="#F3EDF2"/>
<path d="M66.5475 144.871L65.4045 143.987C71.6798 135.943 67.561 112.438 67.561 112.201L68.9842 111.942C69.1999 112.934 73.1893 136.331 66.5475 144.871Z" fill="#2F2F2D"/>
<path d="M244.088 42.3531L242.966 41.4689C249.242 33.4039 247.84 8.30288 247.84 8.06567H249.263C249.328 9.03607 250.708 33.8567 244.088 42.3531Z" fill="#2F2F2D"/>
<path d="M215.773 14.9233L196.926 25.8134V19.1068L215.773 8.2168V14.9233Z" fill="#F3EDF2"/>
<path d="M57.1887 110.259L131.176 152.979L146.25 41.5336L72.2622 -1.20703L57.1887 110.259Z" fill="#285631"/>
<path d="M142.476 55.3782L113.752 77.2229L80.7371 156.041L84.1011 201.046L110.841 185.606L130.12 152.375L142.476 55.3782Z" fill="#D8D5DC"/>
<path d="M104.307 99.7359L86.1064 156.084L88.8883 192.441L107.11 181.918L122.938 156.946L137.128 53.2214L125.311 60.0574L104.307 99.7359Z" fill="#B4AEBC"/>
<path d="M104.07 179.848L119.898 154.876L133.527 55.3132L137.128 53.2214L122.939 156.946L107.11 181.918L88.8885 192.441L88.6082 188.775L104.07 179.848Z" fill="#798580"/>
<path d="M45.2209 23.959L36.6598 42.1594L26.2874 126.67L28.8535 128.18L78.581 7.67788L75.9717 6.18994L45.2209 23.959Z" fill="#62A868"/>
<path d="M36.6598 42.1606L39.2476 43.6486L28.8535 128.181L26.2874 126.672L36.6598 42.1606Z" fill="#437E48"/>
<path d="M47.8086 25.4471L39.2476 43.6474L28.8535 128.18L65.2327 107.176L78.581 7.67798L47.8086 25.4471Z" fill="#36703A"/>
<path d="M73.664 15.635L44.9402 37.5013L11.925 116.298L15.2675 161.324L42.029 145.862L66.483 107.888L73.664 15.635Z" fill="#ABA4A9"/>
<path d="M44.9831 66.3554L113.795 106.077L113.752 77.2238L44.9399 37.5022L44.9831 66.3554Z" fill="#D6CEDC"/>
<path d="M113.752 77.2228L109.979 75.0664L76.9851 153.884L80.7373 156.041L113.752 77.2228Z" fill="#E5E0E9"/>
<path d="M48.6924 39.6586L44.9402 37.5022L11.925 116.299L15.6988 118.477L48.6924 39.6586Z" fill="#E5E0E9"/>
<path d="M11.925 116.297L80.7371 156.041L84.1011 201.045L15.2675 161.324L11.925 116.297Z" fill="#C9C4CE"/>
<path d="M100.296 98.6575L100.771 102.582L76.9852 153.884L79.0554 198.134L72.4135 197.746L70.4512 167.75L94.0858 103.013L100.296 98.6575Z" fill="#0F3015"/>
<path d="M12.4642 115.175L11.235 114.895C11.0149 114.824 10.8116 114.709 10.6373 114.557C10.4631 114.405 10.3216 114.219 10.2215 114.011C10.0513 113.605 9.96362 113.168 9.96362 112.728C9.96362 112.287 10.0513 111.851 10.2215 111.445L15.4401 98.0748C15.6381 97.3247 16.0638 96.6544 16.6585 96.1562C17.2533 95.658 17.9878 95.3564 18.761 95.293H20.2921L20.1843 96.7378L18.6532 96.6084C18.2003 96.6084 17.2946 97.2769 16.8633 98.4198L11.6448 111.79C11.4701 112.241 11.4701 112.741 11.6448 113.191C11.6448 113.191 11.6448 113.321 11.7741 113.321L13.0033 113.687L12.4642 115.175Z" fill="#D8D5DC"/>
<path d="M238.265 -71.5929V-31.2028C238.396 -19.974 239.587 -8.78265 241.824 2.22204L294.29 32.5416L310.636 41.9653C313.06 32.3728 314.249 22.5099 314.172 12.6161V-27.7525L310.636 -55.5922C309.989 -56.1097 289.308 -72.8437 285.664 -75.0001L266.817 -85.7823C263.129 -87.9388 241.845 -95.2922 241.845 -95.2922L239.689 -80.4775L238.265 -71.5929Z" fill="#D8D5DC"/>
<path d="M221.963 -62.1473V-21.7572C222.091 -10.5222 223.275 0.675804 225.499 11.6892L277.987 41.8794L294.311 51.3031C296.733 41.783 297.928 31.9926 297.869 22.1695V-18.3069L294.311 -46.1465C293.686 -46.6641 272.984 -63.3981 269.34 -65.5545L250.514 -76.4445C246.826 -78.601 225.521 -85.9329 225.521 -85.9329L223.364 -71.1397L221.963 -62.1473Z" fill="#E1E0E6"/>
<path d="M225.477 -81.2754L248.292 -72.9731L270.805 -59.9698L294.289 -41.5537L161.927 34.8705L93.1147 -4.85111L225.477 -81.2754Z" fill="#FCFBFA"/>
<path d="M93.1147 -4.85113L225.477 -81.2754L248.292 -72.9731L109.719 3.1277L93.1147 -4.85113Z" fill="#F8F4FC"/>
<path d="M130.788 20.8753L270.806 -59.9697L294.289 -41.5537L161.927 34.8706L130.788 20.8753Z" fill="#F8F4FC"/>
<path d="M112.868 4.96063L248.293 -72.9731L270.806 -59.9698L132.535 16.0016L112.868 4.96063Z" fill="#FCFBFA"/>
<path d="M38.687 70.9274L94.086 103.015L100.297 98.6592L44.9838 66.3557L38.687 70.9274Z" fill="#62A868"/>
<path d="M113.796 206.825L85.6755 223.041V225.09L113.796 208.873V206.825Z" fill="#B4AEBC"/>
<path d="M95.5085 194.447L91.6484 196.69L88.8882 211.461L91.3897 210.017L95.5085 194.447Z" fill="#B4AEBC"/>
<path d="M106.507 188.108L102.646 190.329L99.8862 205.1L102.388 203.656L106.507 188.108Z" fill="#B4AEBC"/>
<path d="M161.927 34.8706L148.191 138.444L294.29 54.0844V-41.5537L161.927 34.8706Z" fill="#C9C4CE"/>
<path d="M156.988 116.449L286.008 41.9441V-30.4045L167.21 38.1703L156.988 116.449Z" fill="#D0CCD5"/>
<path d="M160.697 102.755L168.46 41.2967L278.806 -22.4045V34.5902L160.697 102.755Z" fill="#C9C4CE"/>
<path d="M284.585 54.6658L265.738 65.5343V58.8278L284.585 47.9377V54.6658Z" fill="#798580"/>
<path d="M131.176 152.979L150.606 141.765L165.701 30.2988L146.25 41.5339L131.176 152.979Z" fill="#437E48"/>
<path d="M80.0687 154.531L78.8396 154.164C78.6173 154.104 78.411 153.996 78.2357 153.847C78.0604 153.698 77.9205 153.511 77.826 153.301C77.6459 152.898 77.5527 152.46 77.5527 152.018C77.5527 151.576 77.6459 151.139 77.826 150.735L83.0231 137.365C83.2351 136.637 83.6608 135.988 84.2451 135.504C84.8294 135.019 85.5455 134.721 86.3009 134.648L87.8104 134.778V136.201H86.2793C85.8264 136.201 84.9423 136.891 84.4895 138.012L79.2924 151.382C79.0668 151.814 79.0203 152.318 79.163 152.784C79.163 152.913 79.163 152.913 79.314 152.935L80.5432 153.28L80.0687 154.531Z" fill="#F3EDF2"/>
<path d="M91.7133 -12.4202L165.701 30.2989L146.25 41.534L72.2622 -1.20667L91.7133 -12.4202Z" fill="#62A868"/>
<path d="M73.6637 15.635L142.476 55.3782L113.752 77.223L44.9399 37.5013L73.6637 15.635Z" fill="#C9C4CE"/>
<path d="M74.7636 14.8157L143.576 54.5373L114.852 76.3821L46.0398 36.6604L74.7636 14.8157Z" fill="#F8F4FC"/>
<path d="M38.6865 70.9263L94.0855 103.014L70.4509 167.75L72.4133 197.747L78.8826 209.585L23.5699 177.282L17.1005 165.443L15.1382 135.447L38.6865 70.9263Z" fill="#437E48"/>
<path d="M72.4138 197.747L17.1011 165.443L23.5704 177.282L78.8831 209.585L72.4138 197.747Z" fill="#28432A"/>
<path d="M46.0829 47.5498L45.0479 48.1537V30.708L46.0829 30.1042V47.5498Z" fill="#F3EDF2"/>
<path d="M48.4553 55.8949C48.6612 55.8949 48.8586 55.8131 49.0042 55.6675C49.1498 55.5219 49.2316 55.3244 49.2316 55.1185V42.1799C49.2316 41.974 49.1498 41.7765 49.0042 41.631C48.8586 41.4854 48.6612 41.4036 48.4553 41.4036C48.2494 41.4036 48.0519 41.4854 47.9063 41.631C47.7607 41.7765 47.679 41.974 47.679 42.1799V55.1185C47.679 55.3244 47.7607 55.5219 47.9063 55.6675C48.0519 55.8131 48.2494 55.8949 48.4553 55.8949Z" fill="#D8D5DC"/>
<path d="M45.0479 48.1534L50.8055 51.4743V34.0503L45.0479 30.7078V48.1534Z" fill="#FCFBFA"/>
<path d="M51.8626 50.8714L50.8059 51.4752V34.0512L51.8626 33.4258V50.8714Z" fill="#B0A9B8"/>
<path d="M46.0829 30.1042L45.0479 30.708L50.8055 34.0505L51.8622 33.4252L46.0829 30.1042Z" fill="#F3EDF2"/>
<path d="M44.5952 48.4136L49.0375 50.9797V35.0652L44.5952 32.499V48.4136Z" fill="#BA1914"/>
<path d="M45.5007 39.2482L48.11 40.7577V36.186L45.5007 34.6765V39.2482Z" fill="#D8D5DC"/>
<path d="M50.1367 50.3531L49.0369 50.9785V35.0639L50.1367 34.417V50.3531Z" fill="#6F0A14"/>
<path d="M44.5952 48.4127L49.0375 50.9789V46.9464L44.5952 44.3586V48.4127Z" fill="#FF8D22"/>
<path d="M50.1367 50.3537L49.0369 50.979V46.9465L50.1367 46.2996V50.3537Z" fill="#B84F22"/>
<path d="M50.1373 34.418L49.0375 35.0649L44.5952 32.4987L45.695 31.8518L50.1373 34.418Z" fill="#DD363B"/>
<path d="M97.6008 77.2874L96.5442 77.8912V60.4456L97.6008 59.8418V77.2874Z" fill="#F3EDF2"/>
<path d="M100.792 70.1711H99.2393V84.684H100.792V70.1711Z" fill="#F3EDF2"/>
<path d="M100.016 87.1866C100.221 87.1866 100.419 87.1048 100.565 86.9592C100.71 86.8136 100.792 86.6162 100.792 86.4103V73.4716C100.792 73.2657 100.71 73.0683 100.565 72.9227C100.419 72.7771 100.221 72.6953 100.016 72.6953C99.8097 72.6953 99.6122 72.7771 99.4666 72.9227C99.321 73.0683 99.2393 73.2657 99.2393 73.4716V86.4103C99.2393 86.6162 99.321 86.8136 99.4666 86.9592C99.6122 87.1048 99.8097 87.1866 100.016 87.1866Z" fill="#D8D5DC"/>
<path d="M96.5442 77.8924L102.323 81.2349V63.7893L96.5442 60.4468V77.8924Z" fill="#FCFBFA"/>
<path d="M103.38 80.6086L102.323 81.234V63.7884L103.38 63.1846V80.6086Z" fill="#B0A9B8"/>
<path d="M97.6008 59.8418L96.5442 60.4456L102.323 63.7881L103.38 63.1843L97.6008 59.8418Z" fill="#F3EDF2"/>
<path d="M96.0913 78.1501L100.555 80.7379V64.8017L96.0913 62.2356V78.1501Z" fill="#BA1914"/>
<path d="M97.0183 68.9855L99.6276 70.495V65.9233L97.0183 64.4138V68.9855Z" fill="#D8D5DC"/>
<path d="M101.654 80.0906L100.554 80.7376V64.8015L101.654 64.1545V80.0906Z" fill="#6F0A14"/>
<path d="M96.0913 78.1503L100.555 80.738V76.6839L96.0913 74.0962V78.1503Z" fill="#FF8D22"/>
<path d="M101.654 80.0905L100.554 80.7374V76.6833L101.654 76.0364V80.0905Z" fill="#B84F22"/>
<path d="M101.655 64.1548L100.555 64.8017L96.0913 62.2356L97.2127 61.5886L101.655 64.1548Z" fill="#DD363B"/>
<path d="M111.446 62.1922L102.885 80.3925L92.5122 164.903L95.0999 166.413L144.806 45.911L142.218 44.4231L111.446 62.1922Z" fill="#62A868"/>
<path d="M102.885 80.3928L105.472 81.8808L95.0999 166.413L92.5122 164.904L102.885 80.3928Z" fill="#437E48"/>
<path d="M114.033 63.6812L105.472 81.8816L95.0991 166.414L131.478 145.41L144.805 45.9121L114.033 63.6812Z" fill="#437E48"/>
<path d="M82.8932 215.364H81.3405V210.362C81.3346 210.111 81.2653 209.865 81.1391 209.648C81.0128 209.431 80.8338 209.25 80.6186 209.121C80.4034 208.992 80.159 208.919 79.9082 208.91C79.6574 208.901 79.4083 208.955 79.1841 209.068C78.7208 209.354 78.1869 209.506 77.6423 209.506C77.0976 209.506 76.5637 209.354 76.1004 209.068C75.6392 208.807 75.2562 208.427 74.9908 207.968C74.7254 207.51 74.5874 206.988 74.5909 206.458V168.958C74.5939 166.977 75.1174 165.032 76.1091 163.318C77.1007 161.603 78.5255 160.179 80.2408 159.189L102.107 146.941C102.254 146.867 102.377 146.752 102.461 146.611C102.545 146.47 102.587 146.307 102.581 146.143C102.586 145.976 102.544 145.811 102.46 145.666C102.376 145.521 102.254 145.403 102.107 145.323L100.641 144.504L101.395 143.145L102.862 143.986C103.251 144.195 103.575 144.507 103.799 144.887C104.024 145.267 104.139 145.701 104.134 146.143C104.135 146.583 104.017 147.016 103.793 147.395C103.569 147.774 103.248 148.087 102.862 148.299L80.9955 160.526C79.5192 161.384 78.2939 162.614 77.4424 164.093C76.5909 165.573 76.143 167.251 76.1435 168.958V206.501C76.1472 206.753 76.2155 206.999 76.3417 207.217C76.468 207.434 76.6481 207.615 76.8646 207.743C77.0811 207.871 77.3269 207.941 77.5783 207.946C77.8296 207.951 78.0781 207.892 78.3 207.774C78.7713 207.499 79.3071 207.354 79.8526 207.354C80.3981 207.354 80.9339 207.499 81.4052 207.774C81.8666 208.04 82.2493 208.424 82.5144 208.886C82.7795 209.348 82.9176 209.872 82.9148 210.405L82.8932 215.364Z" fill="#6F9C72"/>
<path d="M15.1382 135.448L70.4509 167.751L72.4133 197.747L17.1005 165.444L15.1382 135.448Z" fill="#285631"/>
<path d="M278.806 34.5906L286.009 41.9441V-30.4045L278.806 -22.4041V34.5906Z" fill="#BCB6BA"/>
<path d="M278.806 -22.4041L168.461 41.2971L167.21 38.1703L286.009 -30.4045L278.806 -22.4041Z" fill="#ABA4A9"/>
<path d="M168.461 41.2973L160.697 102.756L156.988 116.449L167.21 38.1704L168.461 41.2973Z" fill="#968D93"/>
<path d="M69.179 181.681L67.001 182.931V207.795L69.179 206.544V181.681Z" fill="#798580"/>
<path d="M21.1335 181.314L67.001 207.795V182.932L21.1335 156.45V181.314Z" fill="#D8D5DC"/>
<path d="M21.1335 156.451L67.001 182.932L69.1791 181.681L23.3116 155.2L21.1335 156.451Z" fill="#F3EDF2"/>
<path d="M239.365 51.3026C239.47 51.5365 239.525 51.7901 239.525 52.0466C239.525 52.3031 239.47 52.5567 239.365 52.7906C239.365 52.9631 239.235 53.0709 239.171 53.0925L225.132 61.2007V49.7284L233.909 44.6824L239.365 51.3026Z" fill="#62A868"/>
<path d="M210.232 57.1462L200.549 62.7098C200.299 62.9051 200 63.0284 199.684 63.0664C199.369 63.1044 199.049 63.0557 198.76 62.9255L204.258 49.7927L212.69 51.1082L210.232 57.1462Z" fill="#62A868"/>
<path d="M221.639 38.1264L209.433 48.3048L206.738 35.8406L209.972 36.3366L214.997 24.3252C215.868 22.2145 217.376 20.428 219.31 19.2144L228.453 13.9312L218.49 37.652L221.639 38.1264Z" fill="#62A868"/>
<path d="M222.976 28.9834L227.634 17.7053C227.94 16.9204 228.483 16.2499 229.186 15.786C229.316 15.786 229.424 15.6566 229.488 15.786L236.54 24.4118L228.108 35.4528L222.976 28.9834Z" fill="#62A868"/>
<path d="M230.373 46.2348L233.068 30.7947L245.274 26.8484L242.061 31.1613L245.468 35.1076C245.974 35.9848 246.255 36.9739 246.285 37.9862C246.315 38.9986 246.093 40.0026 245.64 40.9084L241.565 51.6906L233.607 41.9435L230.373 46.2348Z" fill="#62A868"/>
<path d="M214.738 55.7665V51.4536L223.601 56.4781L214.738 71.7242V67.4113L205.962 72.4789C204.236 73.4709 202.641 73.3199 201.821 72.0692L197.659 65.7724L214.738 55.7665Z" fill="#62A868"/>
<path d="M20.5078 133.203L33.4896 140.772L67.4751 160.633L83.0446 120.07L88.7376 105.277L69.1787 93.9559L41.6625 78.0198L20.5078 133.203Z" fill="#285631"/>
<path d="M33.49 140.773L67.4755 160.634L83.045 120.071L69.1791 112.006L33.49 140.773Z" fill="#194222"/>
<path d="M160.245 125.463L256.616 69.8269V72.9106L160.245 128.547V125.463Z" fill="#C4DDBD"/>
<path d="M165.657 122.336L162.509 124.147L160.245 128.546L163.393 126.735L165.657 122.336Z" fill="#FF6D5E"/>
<path d="M173.939 117.548L170.769 119.381L168.505 123.78L171.653 121.969L173.939 117.548Z" fill="#FF6D5E"/>
<path d="M182.198 112.783L179.05 114.594L176.786 119.015L179.934 117.182L182.198 112.783Z" fill="#FF6D5E"/>
<path d="M190.456 108.018L187.308 109.829L185.044 114.228L188.192 112.417L190.456 108.018Z" fill="#FF6D5E"/>
<path d="M198.738 103.23L195.589 105.063L193.303 109.462L196.473 107.65L198.738 103.23Z" fill="#FF6D5E"/>
<path d="M206.997 98.4634L203.848 100.275L201.584 104.695L204.733 102.863L206.997 98.4634Z" fill="#FF6D5E"/>
<path d="M215.278 93.6978L212.108 95.5092L209.843 99.9083L213.013 98.0969L215.278 93.6978Z" fill="#FF6D5E"/>
<path d="M223.536 88.9109L220.388 90.7439L218.124 95.143L221.272 93.3316L223.536 88.9109Z" fill="#FF6D5E"/>
<path d="M231.796 84.1453L228.647 85.9567L226.383 90.3774L229.531 88.5444L231.796 84.1453Z" fill="#FF6D5E"/>
<path d="M240.077 79.3584L236.929 81.1914L234.643 85.5905L237.813 83.7791L240.077 79.3584Z" fill="#FF6D5E"/>
<path d="M248.336 74.5918L245.187 76.4032L242.923 80.8239L246.071 79.0125L248.336 74.5918Z" fill="#FF6D5E"/>
<path d="M256.617 69.8269L253.447 71.6383L251.183 76.059L254.331 74.226L256.617 69.8269Z" fill="#FF6D5E"/>
<path d="M135.403 37.9975L87.8105 10.5244V13.6297L135.403 41.1027V37.9975Z" fill="#F3EDF2"/>
<path d="M129.99 34.8706L133.138 36.682L135.403 41.1027L132.254 39.2913L129.99 34.8706Z" fill="#FF6D5E"/>
<path d="M122.96 30.8162L126.109 32.6276L128.373 37.0483L125.225 35.2369L122.96 30.8162Z" fill="#FF6D5E"/>
<path d="M115.93 26.7617L119.079 28.5731L121.343 32.9938L118.194 31.1609L115.93 26.7617Z" fill="#FF6D5E"/>
<path d="M108.9 22.707L112.048 24.5184L114.312 28.9176L111.164 27.1062L108.9 22.707Z" fill="#FF6D5E"/>
<path d="M101.871 18.6328L105.019 20.4658L107.283 24.8649L104.135 23.0535L101.871 18.6328Z" fill="#FF6D5E"/>
<path d="M94.8406 14.5791L97.989 16.3905L100.253 20.8112L97.1048 18.9782L94.8406 14.5791Z" fill="#FF6D5E"/>
<path d="M87.8105 10.5244L90.9589 12.3358L93.2232 16.7565L90.0748 14.9236L87.8105 10.5244Z" fill="#FF6D5E"/>
</g>
<defs>
<clipPath id="clip0_843_21305">
<rect width="436.701" height="358.422" fill="white" transform="translate(0 -118)"/>
</clipPath>
</defs>
</svg>
