<svg width="296" height="1013" viewBox="0 0 296 1013" fill="none" xmlns="http://www.w3.org/2000/svg">
<g clip-path="url(#clip0_1037_32613)">
<path d="M35.769 844.563L0 823.906V829.694L35.769 850.351V844.563Z" fill="#B4AEBC"/>
<path d="M115.167 798.681L35.7686 844.566V850.355L115.167 804.531V798.681Z" fill="#F3EDF2"/>
<path d="M79.3987 778.081L0 823.904L35.769 844.561L115.168 798.677L79.3987 778.081Z" fill="#F3EDF2"/>
<g style="mix-blend-mode:multiply">
<path d="M1015.49 311.928L1234 438.064L238.562 1012.81L20.0479 886.608L1015.49 311.928Z" fill="#C7CCD1"/>
</g>
<path d="M242.095 963.693L206.387 943.036V948.886L242.095 969.482V963.693Z" fill="#B4AEBC"/>
<path d="M206.387 943.036L242.095 963.693L321.554 917.87L285.785 897.213L206.387 943.036Z" fill="#F3EDF2"/>
<path d="M359.702 723.242L305.286 878.14L222.902 925.669L204.621 892.216L199.076 807.455L265.618 625.136L219.611 813.365L316.255 757.61L359.702 723.242Z" fill="#0F3015"/>
<path d="M283.531 867.476L290.051 871.254L282.252 912.994L275.731 909.216L283.531 867.476Z" fill="#D8D5DC"/>
<path d="M252.455 885.451L258.975 889.229L251.175 930.969L244.655 927.191L252.455 885.451Z" fill="#D8D5DC"/>
<path d="M39.7904 829.757H35.4031V815.559C35.4043 814.831 35.2134 814.115 34.8496 813.484C34.4859 812.852 33.9622 812.328 33.3313 811.964C32.6883 811.607 31.9647 811.419 31.229 811.419C30.4933 811.419 29.7697 811.607 29.1267 811.964C27.8312 812.756 26.3478 813.187 24.8297 813.214C23.3116 813.241 21.8139 812.863 20.491 812.117C19.1682 811.372 18.0682 810.287 17.3047 808.975C16.5411 807.663 16.1417 806.17 16.1475 804.652V698.624C16.1515 693.019 17.6285 687.512 20.4304 682.657C23.2324 677.802 27.2609 673.768 32.1126 670.96L79.2155 643.661L81.4092 647.439L34.1234 674.738C29.9356 677.163 26.4588 680.646 24.0418 684.839C21.6247 689.031 20.3523 693.785 20.3521 698.624V804.652C20.34 805.391 20.5258 806.119 20.8901 806.762C21.2544 807.405 21.7839 807.939 22.4239 808.308C23.0557 808.666 23.7695 808.854 24.4957 808.854C25.2218 808.854 25.9356 808.666 26.5675 808.308C27.8598 807.503 29.3439 807.059 30.8659 807.021C32.3878 806.984 33.8921 807.354 35.2226 808.094C36.5531 808.834 37.6614 809.916 38.4325 811.229C39.2036 812.542 39.6093 814.037 39.6076 815.559L39.7904 829.757Z" fill="#6F9C72"/>
<path d="M75.4386 770.649L64.5312 776.925L52.8926 820.92L63.8 814.644L75.4386 770.649Z" fill="#D8D5DC"/>
<path d="M106.516 752.674L95.6084 759.011L83.9697 802.945L94.8771 796.669L106.516 752.674Z" fill="#D8D5DC"/>
<path d="M214.37 601.25L159.894 756.087L77.5706 803.677L59.29 770.224V639.152L92.8044 555.427L74.2801 691.374L170.923 635.557L214.37 601.25Z" fill="#0F3015"/>
<path d="M420.391 523.312L250.504 621.357V685.278L420.391 587.172V523.312Z" fill="#1C1922"/>
<path d="M181.708 667.913L740.911 345.017V290.358L181.708 613.254V667.913Z" fill="#222428"/>
<path d="M263.119 319.729L224.303 612.34L637.139 374.022V103.774L263.119 319.729Z" fill="#F3EDF2"/>
<path d="M249.104 550.181L613.679 339.711V135.212L277.987 329.047L249.104 550.181Z" fill="#D8D5DC"/>
<path d="M259.647 511.551L281.584 337.886L593.329 157.883V318.874L259.647 511.551Z" fill="#F3EDF2"/>
<path d="M305.24 671.36C324.877 637.585 324.982 601.011 305.475 589.669C285.968 578.328 254.236 596.514 234.599 630.29C214.962 664.065 214.856 700.64 234.363 711.981C253.87 723.322 285.603 705.136 305.24 671.36Z" fill="#0C0C0C"/>
<path d="M306.747 633.729C306.086 645.282 302.72 656.518 296.92 666.53C291.12 676.543 283.048 685.053 273.355 691.374C255.074 701.977 239.901 693.507 239.901 672.301C240.559 660.741 243.931 649.498 249.743 639.483C255.555 629.468 263.644 620.963 273.355 614.656C291.757 604.054 306.747 612.585 306.747 633.729Z" fill="#B7B4BA"/>
<path d="M304.676 634.946C304.069 645.767 300.923 656.293 295.492 665.672C290.061 675.052 282.499 683.021 273.416 688.935C256.111 698.928 242.096 690.945 242.096 671.08C242.71 660.254 245.865 649.724 251.307 640.345C256.748 630.965 264.323 622.999 273.416 617.092C290.6 607.098 304.676 615.081 304.676 634.946Z" fill="#929197"/>
<path d="M301.204 636.896C300.662 646.541 297.859 655.924 293.021 664.286C288.184 672.649 281.448 679.756 273.357 685.035C257.94 693.87 245.448 686.802 245.448 669.131C245.983 659.485 248.789 650.101 253.639 641.746C258.489 633.391 265.245 626.3 273.357 621.053C288.712 612.156 301.204 619.225 301.204 636.896Z" fill="#B7B4BA"/>
<path d="M298.584 638.36C298.151 647.181 295.641 655.775 291.257 663.442C286.873 671.108 280.739 677.631 273.357 682.477C259.281 690.643 247.886 684.123 247.886 668.036C248.374 659.233 250.935 650.67 255.362 643.045C259.788 635.421 265.954 628.951 273.357 624.162C287.372 615.753 298.584 622.212 298.584 638.36Z" fill="#B2AAAB"/>
<path d="M285.237 645.912C284.983 650.057 283.745 654.081 281.626 657.652C279.506 661.223 276.567 664.238 273.05 666.447C266.469 670.225 260.863 667.178 260.863 659.622C261.137 655.482 262.383 651.465 264.501 647.897C266.618 644.329 269.547 641.311 273.05 639.087C279.936 635.553 285.237 638.6 285.237 645.912Z" fill="#0C0C0C"/>
<path d="M261.415 641.771C261.415 644.269 263.121 645.244 265.254 644.025C266.384 643.292 267.326 642.303 268.003 641.139C268.681 639.975 269.075 638.667 269.154 637.322C269.154 634.885 267.387 633.91 265.254 635.129C264.14 635.859 263.212 636.84 262.546 637.994C261.879 639.147 261.492 640.441 261.415 641.771Z" fill="#22222C"/>
<path d="M276.036 628.975C274.574 631.595 274.574 634.398 276.036 635.068C277.499 635.739 279.997 634.52 281.52 631.9C283.044 629.279 282.983 626.537 281.52 625.806C280.058 625.075 277.56 626.415 276.036 628.975Z" fill="#22222C"/>
<path d="M289.076 630.254C287.959 630.981 287.029 631.961 286.362 633.116C285.695 634.27 285.309 635.565 285.237 636.896C285.237 639.333 286.943 640.308 289.076 639.09C290.202 638.366 291.141 637.388 291.818 636.234C292.496 635.08 292.892 633.783 292.976 632.448C292.976 630.01 291.209 629.035 289.076 630.254Z" fill="#22222C"/>
<path d="M292.916 644.82C291.393 643.967 288.956 645.369 287.432 647.989C285.909 650.609 285.97 653.412 287.432 654.082C288.895 654.753 291.393 653.534 292.916 650.914C294.44 648.294 294.44 645.917 292.916 644.82Z" fill="#22222C"/>
<path d="M285.238 664.195C285.238 661.758 283.532 660.722 281.399 662.001C280.282 662.728 279.352 663.709 278.685 664.863C278.018 666.017 277.633 667.312 277.561 668.643C277.561 671.081 279.267 672.056 281.399 670.837C282.517 670.11 283.447 669.13 284.114 667.976C284.781 666.821 285.166 665.526 285.238 664.195Z" fill="#22222C"/>
<path d="M270.613 677.052C272.136 674.432 272.136 671.629 270.613 670.959C269.089 670.289 266.652 671.507 265.129 674.127C263.605 676.748 263.666 679.551 265.129 680.221C266.591 680.891 269.089 679.673 270.613 677.052Z" fill="#22222C"/>
<path d="M257.571 675.77C258.689 675.043 259.619 674.063 260.286 672.909C260.953 671.755 261.338 670.46 261.41 669.128C261.41 666.691 259.704 665.716 257.571 666.935C256.454 667.662 255.524 668.642 254.857 669.796C254.19 670.95 253.804 672.246 253.732 673.577C253.732 676.014 255.439 676.989 257.571 675.77Z" fill="#22222C"/>
<path d="M253.733 661.209C255.256 662.062 257.694 660.66 259.217 658.04C260.741 655.42 260.741 652.617 259.217 651.947C257.694 651.276 255.256 652.495 253.733 655.115C252.21 657.736 252.271 660.356 253.733 661.209Z" fill="#22222C"/>
<path d="M188.046 742.804L184.816 740.305C202.549 717.576 190.91 651.157 190.91 650.487L194.932 649.755C195.541 652.558 206.814 718.673 188.046 742.804Z" fill="#2F2F2D"/>
<path d="M161.601 645L370.669 765.713L413.263 450.8L204.194 330.026L161.601 645Z" fill="#285631"/>
<path d="M402.6 489.921L321.434 551.648L228.143 774.366L237.648 901.538L313.208 857.909L367.684 764.007L402.6 489.921Z" fill="#D8D5DC"/>
<path d="M294.743 615.263L243.313 774.487L251.174 877.224L302.664 847.488L347.391 776.925L387.486 483.826L354.094 503.143L294.743 615.263Z" fill="#B4AEBC"/>
<path d="M294.074 841.638L338.801 771.075L377.312 489.737L387.488 483.826L347.393 776.925L302.666 847.488L251.176 877.224L250.384 866.865L294.074 841.638Z" fill="#798580"/>
<path d="M127.781 401.138L103.59 452.568L74.2803 691.373L81.5316 695.638L222.048 355.132L214.675 350.928L127.781 401.138Z" fill="#62A868"/>
<path d="M103.59 452.571L110.902 456.776L81.5316 695.642L74.2803 691.377L103.59 452.571Z" fill="#437E48"/>
<path d="M135.094 405.343L110.903 456.773L81.5322 695.639L184.33 636.288L222.049 355.133L135.094 405.343Z" fill="#36703A"/>
<path d="M208.155 377.617L126.989 439.405L33.6973 662.063L43.1422 789.296L118.763 745.605L187.863 638.298L208.155 377.617Z" fill="#ABA4A9"/>
<path d="M127.11 520.939L321.555 633.182L321.433 551.651L126.988 439.408L127.11 520.939Z" fill="#D6CEDC"/>
<path d="M321.434 551.648L310.77 545.554L217.539 768.273L228.142 774.366L321.434 551.648Z" fill="#E5E0E9"/>
<path d="M137.592 445.501L126.989 439.408L33.6973 662.065L44.3609 668.22L137.592 445.501Z" fill="#E5E0E9"/>
<path d="M33.6973 662.062L228.142 774.366L237.648 901.537L43.1422 789.295L33.6973 662.062Z" fill="#C9C4CE"/>
<path d="M283.411 612.216L284.751 623.306L217.54 768.271L223.389 893.311L204.621 892.214L199.076 807.453L265.861 624.525L283.411 612.216Z" fill="#0F3015"/>
<path d="M35.2212 658.891L31.7479 658.099C31.126 657.899 30.5513 657.574 30.059 657.144C29.5666 656.715 29.1668 656.19 28.884 655.601C28.403 654.452 28.1553 653.22 28.1553 651.975C28.1553 650.73 28.403 649.498 28.884 648.349L43.6303 610.569C44.1899 608.45 45.3928 606.556 47.0733 605.148C48.7539 603.74 50.8295 602.888 53.0143 602.709H57.3407L57.0361 606.792L52.7097 606.426C51.43 606.426 48.8707 608.315 47.652 611.544L32.9057 649.324C32.4123 650.598 32.4123 652.011 32.9057 653.285C32.9057 653.285 32.9057 653.651 33.2713 653.651L36.7446 654.687L35.2212 658.891Z" fill="#D8D5DC"/>
<path d="M637.138 103.774L701.607 127.234L765.224 163.978L831.582 216.017L457.562 431.971L263.117 319.729L637.138 103.774Z" fill="#FCFBFA"/>
<path d="M263.117 319.729L637.138 103.774L701.607 127.234L310.037 342.275L263.117 319.729Z" fill="#F8F4FC"/>
<path d="M109.319 533.858L265.862 624.53L283.411 612.221L127.112 520.94L109.319 533.858Z" fill="#62A868"/>
<path d="M321.555 917.868L242.096 963.691V969.48L321.555 923.657V917.868Z" fill="#B4AEBC"/>
<path d="M269.882 882.892L258.975 889.229L251.175 930.97L258.243 926.887L269.882 882.892Z" fill="#B4AEBC"/>
<path d="M300.959 864.979L290.052 871.255L282.252 912.996L289.32 908.913L300.959 864.979Z" fill="#B4AEBC"/>
<path d="M226.253 770.099L222.78 769.063C222.152 768.894 221.569 768.588 221.073 768.167C220.578 767.745 220.183 767.219 219.916 766.625C219.407 765.484 219.144 764.249 219.144 763C219.144 761.75 219.407 760.515 219.916 759.374L234.601 721.594C235.201 719.535 236.403 717.703 238.054 716.334C239.705 714.966 241.729 714.123 243.863 713.916L248.129 714.282V718.304H243.802C242.523 718.304 240.025 720.254 238.745 723.422L224.059 761.202C223.422 762.423 223.29 763.846 223.694 765.163C223.694 765.529 223.694 765.529 224.12 765.589L227.594 766.564L226.253 770.099Z" fill="#F3EDF2"/>
<path d="M259.158 298.34L468.227 419.053L413.263 450.801L204.194 330.027L259.158 298.34Z" fill="#62A868"/>
<path d="M208.154 377.617L402.598 489.921L321.433 551.648L126.988 439.405L208.154 377.617Z" fill="#C9C4CE"/>
<path d="M211.261 375.302L405.706 487.544L324.54 549.272L130.096 437.029L211.261 375.302Z" fill="#F8F4FC"/>
<path d="M109.318 533.855L265.86 624.527L199.075 807.455L204.62 892.216L222.901 925.669L66.6021 834.388L48.3215 800.935L42.7764 716.174L109.318 533.855Z" fill="#437E48"/>
<path d="M204.622 892.216L48.3232 800.935L66.6038 834.388L222.903 925.669L204.622 892.216Z" fill="#28432A"/>
<path d="M130.218 467.8L127.293 469.506V420.209L130.218 418.503V467.8Z" fill="#F3EDF2"/>
<path d="M136.921 491.38C137.503 491.38 138.061 491.149 138.472 490.738C138.884 490.327 139.115 489.769 139.115 489.187V452.626C139.115 452.044 138.884 451.486 138.472 451.074C138.061 450.663 137.503 450.432 136.921 450.432C136.339 450.432 135.781 450.663 135.37 451.074C134.959 451.486 134.728 452.044 134.728 452.626V489.187C134.728 489.769 134.959 490.327 135.37 490.738C135.781 491.149 136.339 491.38 136.921 491.38Z" fill="#D8D5DC"/>
<path d="M127.293 469.505L143.563 478.889V429.653L127.293 420.208V469.505Z" fill="#FCFBFA"/>
<path d="M146.55 477.185L143.564 478.892V429.656L146.55 427.889V477.185Z" fill="#B0A9B8"/>
<path d="M130.218 418.503L127.293 420.209L143.563 429.654L146.549 427.887L130.218 418.503Z" fill="#F3EDF2"/>
<path d="M126.014 470.24L138.566 477.491V432.521L126.014 425.27V470.24Z" fill="#BA1914"/>
<path d="M128.572 444.341L135.945 448.607V435.689L128.572 431.423V444.341Z" fill="#D8D5DC"/>
<path d="M141.673 475.721L138.565 477.488V432.518L141.673 430.69V475.721Z" fill="#6F0A14"/>
<path d="M126.014 470.238L138.566 477.489V466.094L126.014 458.782V470.238Z" fill="#FF8D22"/>
<path d="M141.673 475.723L138.565 477.49V466.095L141.673 464.267V475.723Z" fill="#B84F22"/>
<path d="M141.674 430.692L138.566 432.521L126.014 425.269L129.121 423.441L141.674 430.692Z" fill="#DD363B"/>
<path d="M275.793 551.83L272.808 553.536V504.24L275.793 502.533V551.83Z" fill="#F3EDF2"/>
<path d="M284.811 531.721H280.424V572.731H284.811V531.721Z" fill="#F3EDF2"/>
<path d="M282.618 579.803C283.199 579.803 283.757 579.572 284.169 579.16C284.58 578.749 284.811 578.191 284.811 577.609V541.048C284.811 540.466 284.58 539.908 284.169 539.497C283.757 539.085 283.199 538.854 282.618 538.854C282.036 538.854 281.478 539.085 281.066 539.497C280.655 539.908 280.424 540.466 280.424 541.048V577.609C280.424 578.191 280.655 578.749 281.066 579.16C281.478 579.572 282.036 579.803 282.618 579.803Z" fill="#D8D5DC"/>
<path d="M272.808 553.539L289.138 562.984V513.688L272.808 504.243V553.539Z" fill="#FCFBFA"/>
<path d="M292.124 561.215L289.138 562.982V513.685L292.124 511.979V561.215Z" fill="#B0A9B8"/>
<path d="M275.793 502.533L272.808 504.24L289.138 513.685L292.124 511.978L275.793 502.533Z" fill="#F3EDF2"/>
<path d="M271.528 554.268L284.142 561.58V516.549L271.528 509.298V554.268Z" fill="#BA1914"/>
<path d="M274.146 528.371L281.52 532.637V519.718L274.146 515.453V528.371Z" fill="#D8D5DC"/>
<path d="M287.247 559.751L284.14 561.579V516.548L287.247 514.72V559.751Z" fill="#6F0A14"/>
<path d="M271.528 554.269L284.142 561.581V550.125L271.528 542.813V554.269Z" fill="#FF8D22"/>
<path d="M287.247 559.751L284.14 561.579V550.123L287.247 548.295V559.751Z" fill="#B84F22"/>
<path d="M287.25 514.721L284.142 516.549L271.528 509.298L274.697 507.47L287.25 514.721Z" fill="#DD363B"/>
<path d="M314.916 509.175L290.725 560.604L261.415 799.41L268.727 803.675L409.183 463.169L401.871 458.964L314.916 509.175Z" fill="#62A868"/>
<path d="M290.725 560.605L298.037 564.81L268.727 803.676L261.415 799.411L290.725 560.605Z" fill="#437E48"/>
<path d="M322.226 513.383L298.034 564.812L268.725 803.678L371.522 744.327L409.18 463.172L322.226 513.383Z" fill="#437E48"/>
<path d="M234.234 941.999H229.846V927.862C229.83 927.153 229.634 926.46 229.277 925.847C228.92 925.234 228.414 924.721 227.806 924.356C227.198 923.991 226.508 923.786 225.799 923.76C225.09 923.734 224.386 923.887 223.753 924.206C222.444 925.015 220.935 925.444 219.396 925.444C217.857 925.444 216.348 925.015 215.039 924.206C213.736 923.468 212.654 922.396 211.904 921.099C211.154 919.803 210.764 918.33 210.774 916.833V810.866C210.782 805.27 212.262 799.774 215.064 794.929C217.866 790.084 221.892 786.061 226.739 783.263L288.527 748.651C288.942 748.443 289.289 748.119 289.526 747.72C289.764 747.32 289.882 746.861 289.868 746.397C289.88 745.925 289.761 745.459 289.524 745.05C289.287 744.641 288.942 744.306 288.527 744.081L284.383 741.766L286.516 737.927L290.66 740.303C291.759 740.893 292.675 741.774 293.309 742.848C293.942 743.922 294.27 745.15 294.255 746.397C294.257 747.641 293.924 748.864 293.291 749.936C292.659 751.008 291.75 751.89 290.66 752.49L228.871 787.041C224.7 789.463 221.237 792.939 218.831 797.121C216.425 801.302 215.16 806.042 215.161 810.866V916.955C215.171 917.665 215.364 918.361 215.721 918.975C216.078 919.589 216.587 920.102 217.199 920.463C217.81 920.824 218.505 921.021 219.215 921.037C219.925 921.052 220.628 920.884 221.254 920.55C222.586 919.774 224.1 919.365 225.642 919.365C227.183 919.365 228.697 919.774 230.029 920.55C231.333 921.303 232.414 922.387 233.163 923.692C233.912 924.998 234.303 926.479 234.295 927.984L234.234 941.999Z" fill="#6F9C72"/>
<path d="M42.7764 716.175L199.075 807.456L204.62 892.217L48.3215 800.936L42.7764 716.175Z" fill="#285631"/>
<path d="M195.482 846.818L189.327 850.352V920.61L195.482 917.076V846.818Z" fill="#798580"/>
<path d="M59.7168 845.782L189.326 920.61V850.352L59.7168 775.524V845.782Z" fill="#D8D5DC"/>
<path d="M59.7168 775.524L189.326 850.353L195.481 846.819L65.8713 771.99L59.7168 775.524Z" fill="#F3EDF2"/>
<path d="M57.9492 709.833L94.6323 731.221L190.666 787.343L234.661 672.723L250.748 630.922L195.48 598.931L117.727 553.9L57.9492 709.833Z" fill="#285631"/>
<path d="M94.6328 731.223L190.667 787.345L234.662 672.726L195.481 649.936L94.6328 731.223Z" fill="#194222"/>
<path d="M382.613 440.807L248.129 363.176V371.95L382.613 449.582V440.807Z" fill="#F3EDF2"/>
<path d="M287.859 386.088L296.756 391.267L303.154 403.698L294.258 398.58L287.859 386.088Z" fill="#FF6D5E"/>
<path d="M267.993 374.633L276.89 379.752L283.288 392.243L274.391 387.064L267.993 374.633Z" fill="#FF6D5E"/>
<path d="M248.129 363.176L257.025 368.294L263.424 380.786L254.527 375.606L248.129 363.176Z" fill="#FF6D5E"/>
</g>
<defs>
<clipPath id="clip0_1037_32613">
<rect width="1234" height="1012.81" fill="white"/>
</clipPath>
</defs>
</svg>
