<svg width="251" height="1085" viewBox="0 0 251 1085" fill="none" xmlns="http://www.w3.org/2000/svg">
<g clip-path="url(#clip0_1037_32180)">
<path d="M196.962 150.119L182.123 130.018C161.811 102.339 156.602 71.2926 170.546 61.0316L250.056 2.62242C250.056 2.62242 281.629 -7.90173 302.098 19.9873L339.564 71.6084C345.336 79.0418 348.407 88.2172 348.273 97.627C348.139 107.037 344.808 116.121 338.828 123.387L259.318 181.849C245.32 192.11 217.274 177.85 196.962 150.119Z" fill="#C8E9EC"/>
<path opacity="0.56" d="M298.68 30.5641L272.632 42.4038L192.07 101.602C189.807 104.568 188.173 107.965 187.268 111.584C186.363 115.203 186.207 118.969 186.808 122.651C189.544 134.017 159.498 94.4458 173.547 78.7648C187.597 63.0838 255.425 13.8833 255.425 13.8833L287.892 15.6724L298.68 30.5641Z" fill="#F3F5F7"/>
</g>
<g clip-path="url(#clip1_1037_32180)">
<path d="M273.483 836.694L248.178 913.345L262.868 918.195L288.174 841.544L273.483 836.694Z" fill="#2BBFB1"/>
</g>
<g clip-path="url(#clip2_1037_32180)">
<path d="M37.9805 308.317L135.329 323.156L158.272 233.859L54.2403 214.547L37.9805 308.317Z" fill="#C8E9EC"/>
<path opacity="0.56" d="M49.6641 298.793L64.0822 228.334L137.278 238.437L75.8166 243.068L49.6641 298.793Z" fill="#F3F5F7"/>
<path d="M55.8203 302.477L124.859 313.316L144.066 246.33L113.124 298.53L55.8203 302.477Z" fill="#B8D0D1"/>
</g>
<g clip-path="url(#clip3_1037_32180)">
<path d="M205.188 330.708L214.028 313.606C219.604 302.432 229.367 293.913 241.193 289.902C253.019 285.891 265.95 286.713 277.173 292.19L406.831 358.965C406.831 358.965 438.403 399.484 426.09 423.005L417.355 440.054C405.252 463.576 354.21 461.471 354.21 461.471L224.868 394.695C213.777 388.815 205.474 378.773 201.784 366.775C198.094 354.777 199.318 341.804 205.188 330.708Z" fill="#EACAEA"/>
<path opacity="0.56" d="M415.038 423.847L384.202 397.537L248.966 327.656C248.966 327.656 230.865 322.394 219.341 329.393C207.817 336.391 231.286 288.506 261.438 298.767C291.589 309.028 400.725 370.647 400.725 370.647L423.562 412.744L415.038 423.847Z" fill="#F3F5F7"/>
</g>
<g clip-path="url(#clip4_1037_32180)">
<path d="M18.791 445.185L108.246 533.325L152.974 507.014L96.4068 388.618L18.791 445.185Z" fill="#D3CAEA"/>
<path opacity="0.56" d="M34.5781 445.185L109.563 522.801L125.349 516.224L62.2041 422.822L34.5781 445.185Z" fill="#F3F5F7"/>
</g>
<g clip-path="url(#clip5_1037_32180)">
<path d="M35.7872 761.803L26.3681 748.438C20.1254 739.809 17.5511 729.061 19.2075 718.541C20.8639 708.021 26.6164 698.584 35.2084 692.291L244.429 540.164C244.429 540.164 287.368 532.482 300.26 550.688L309.679 564.054C322.624 582.471 300.839 620.201 300.839 620.201L91.6179 772.328C82.8078 778.3 71.9928 780.546 61.5332 778.574C51.0735 776.602 41.8183 770.574 35.7872 761.803Z" fill="#C8E9EC"/>
<path opacity="0.56" d="M293.942 567.107L261.896 579.946L48.3078 735.283C48.3078 735.283 37.0469 746.807 37.7836 758.278C38.5203 769.75 11.4731 733.178 31.2586 714.603C51.044 696.028 248.267 557.003 248.267 557.003L288.785 556.267L293.942 567.107Z" fill="#F3F5F7"/>
</g>
<g clip-path="url(#clip6_1037_32180)">
<path d="M135.211 957.663L120.53 949.192C110.956 943.738 103.903 934.749 100.882 924.153C97.8619 913.558 99.116 902.2 104.375 892.519L168.625 781.489C168.625 781.489 205.46 755.599 225.824 767.281L240.453 775.753C260.659 787.435 256.66 832.426 256.66 832.426L192.357 943.456C186.637 952.889 177.418 959.676 166.712 962.338C156.007 965 144.683 963.319 135.211 957.663Z" fill="#C8E9EC"/>
<path d="M255.261 771.139L222.299 752.196L212.564 769.134L245.526 788.078L255.261 771.139Z" fill="#E54B54"/>
<path opacity="0.56" d="M226.084 776.911L201.563 802.905L134.419 918.987C134.419 918.987 128.841 934.773 134.419 945.297C139.997 955.822 98.9524 933.037 109.266 907.042C119.58 881.047 178.463 787.487 178.463 787.487L216.244 769.123L226.084 776.911Z" fill="#F3F5F7"/>
</g>
<g clip-path="url(#clip7_1037_32180)">
<path d="M261.131 917.042H256.447L40.0703 918.147L68.0646 1356.27C68.0646 1356.27 73.3267 1407.78 122.001 1407.78H395.63C444.146 1407.78 449.566 1356.27 449.566 1356.27L477.56 918.147L261.183 917.042H261.131Z" fill="#02572E"/>
<path d="M261.131 940.774H256.447L40.0703 941.826L68.0646 1358.16C68.0646 1358.16 73.3267 1407.78 122.001 1407.78H395.63C444.146 1407.78 449.566 1358.16 449.566 1358.16L477.56 941.826L261.183 940.774H261.131Z" fill="#2C8258"/>
<path d="M469.561 925.566H47.3312C44.3253 925.58 41.346 925.002 38.5635 923.864C35.7811 922.727 33.2499 921.052 31.1146 918.937C28.9793 916.821 27.2816 914.305 26.1185 911.533C24.9554 908.761 24.3497 905.788 24.3359 902.782C24.3498 896.738 26.7531 890.945 31.0215 886.667C35.29 882.389 41.0773 879.972 47.1208 879.944H469.351C472.386 879.895 475.4 880.449 478.219 881.574C481.038 882.698 483.607 884.371 485.775 886.495C487.943 888.619 489.668 891.153 490.85 893.948C492.032 896.744 492.648 899.746 492.662 902.782C492.641 905.794 492.027 908.774 490.855 911.549C489.683 914.325 487.976 916.843 485.83 918.958C483.685 921.074 481.144 922.747 478.353 923.881C475.561 925.014 472.574 925.587 469.561 925.566Z" fill="#2C8258"/>
<path d="M68.591 1360.58L83.6405 1392.16C92.1514 1401.3 103.851 1406.82 116.318 1407.57L117.265 1405.89L40.123 941.826L68.1174 1358.16C68.1174 1358.16 68.3279 1359 68.591 1360.58Z" fill="#026937"/>
<path opacity="0.37" d="M264.867 895.572C388.931 895.572 489.505 893.97 489.505 891.994C489.505 890.018 388.931 888.416 264.867 888.416C140.803 888.416 40.2285 890.018 40.2285 891.994C40.2285 893.97 140.803 895.572 264.867 895.572Z" fill="white"/>
</g>
<defs>
<clipPath id="clip0_1037_32180">
<rect width="192.54" height="184.436" fill="white" transform="translate(162.707 0.727905)"/>
</clipPath>
<clipPath id="clip1_1037_32180">
<rect width="189.33" height="174.175" fill="white" transform="translate(248.061 818.356)"/>
</clipPath>
<clipPath id="clip2_1037_32180">
<rect width="120.291" height="108.609" fill="white" transform="translate(37.9805 214.547)"/>
</clipPath>
<clipPath id="clip3_1037_32180">
<rect width="250.107" height="174.28" fill="white" transform="translate(199.715 287.19)"/>
</clipPath>
<clipPath id="clip4_1037_32180">
<rect width="134.183" height="144.707" fill="white" transform="translate(18.791 388.617)"/>
</clipPath>
<clipPath id="clip5_1037_32180">
<rect width="311.358" height="246.95" fill="white" transform="translate(18.791 532.534)"/>
</clipPath>
<clipPath id="clip6_1037_32180">
<rect width="159.862" height="217.324" fill="white" transform="translate(99.0586 746.18)"/>
</clipPath>
<clipPath id="clip7_1037_32180">
<rect width="514.053" height="528.577" fill="white" transform="translate(0.972656 879.892)"/>
</clipPath>
</defs>
</svg>
